{"glyphs":{"0":{"ha":694,"x_min":106,"x_max":587,"o":"m 106 736 q 168 880 106 827 q 347 935 233 935 q 524 880 459 935 q 587 734 587 827 l 587 186 q 449 1 587 44 q 347 -13 404 -13 q 245 1 290 -13 q 170 41 200 15 q 106 188 106 95 l 106 736 m 427 732 q 410 783 427 766 q 347 813 380 813 q 296 796 313 813 q 267 732 267 766 l 267 182 q 289 129 267 147 q 346 110 312 110 q 404 129 380 110 q 427 182 427 147 l 427 732 z "},"1":{"ha":460,"x_min":4,"x_max":310,"o":"m 27 812 q 20 819 27 812 q 9 837 14 825 q 4 867 4 848 q 21 904 4 886 q 64 922 39 922 l 250 922 q 293 904 275 922 q 310 861 310 886 l 310 66 q 293 16 310 33 q 238 -14 263 -14 q 198 -7 213 -14 q 172 9 183 -1 q 149 66 149 33 l 149 799 l 64 799 q 27 812 40 799 z "},"2":{"ha":694,"x_min":109,"x_max":585,"o":"m 357 922 q 528 846 465 922 q 585 676 585 779 q 502 460 585 562 q 448 397 477 429 l 340 276 q 288 208 299 231 q 270 123 270 170 l 522 123 q 559 110 546 123 q 582 61 582 87 q 565 18 582 36 q 522 0 547 0 l 189 0 q 138 18 156 0 q 109 81 109 47 l 109 83 q 132 239 109 187 q 184 331 155 290 q 262 422 214 371 l 380 551 q 416 610 401 574 q 431 679 431 646 q 421 734 431 712 q 397 770 412 756 q 327 799 368 799 l 194 799 q 156 812 170 799 q 133 861 133 836 q 151 904 133 886 q 194 922 169 922 l 357 922 z "},"3":{"ha":694,"x_min":85,"x_max":574,"o":"m 386 579 q 433 589 405 589 q 487 575 461 589 q 533 534 513 560 q 574 389 574 477 l 574 199 q 515 58 574 112 q 333 0 450 0 l 172 0 q 134 14 148 0 q 112 61 112 36 q 129 105 112 87 q 172 123 146 123 l 333 123 q 384 140 366 123 q 413 203 413 170 l 413 387 q 397 450 413 430 q 349 481 371 481 q 317 475 328 481 q 297 463 307 469 q 256 444 273 444 q 228 449 239 444 q 208 463 216 454 q 189 498 189 481 q 201 543 189 526 l 380 799 l 144 799 q 107 812 121 799 q 85 860 85 835 q 102 904 85 886 q 144 922 119 922 l 503 922 q 553 903 533 922 q 574 864 574 884 q 562 814 574 829 l 386 579 z "},"4":{"ha":694,"x_min":56,"x_max":663,"o":"m 663 247 q 625 190 663 206 q 602 185 614 185 l 561 185 l 561 66 q 544 16 561 33 q 489 -14 514 -14 q 449 -7 464 -14 q 423 9 434 -1 q 399 66 399 33 l 399 185 l 121 185 q 68 221 86 185 q 63 269 56 243 l 244 875 q 274 917 252 901 q 315 932 296 932 q 353 926 334 932 q 386 899 372 920 q 401 858 401 878 q 397 825 401 838 l 224 307 l 399 307 l 399 538 q 416 590 399 572 q 481 620 446 620 q 531 602 515 620 q 561 538 561 572 l 561 307 l 602 307 q 640 294 627 307 q 663 247 663 273 z "},"5":{"ha":694,"x_min":99,"x_max":588,"o":"m 99 840 q 148 916 99 894 q 179 922 162 922 l 519 922 q 561 904 544 922 q 578 867 578 886 q 574 837 578 848 q 561 817 569 825 q 519 799 543 799 l 254 799 l 254 576 q 261 559 254 564 q 275 555 268 555 q 287 561 281 555 q 305 579 292 566 q 418 618 345 618 q 540 559 490 618 q 588 417 588 500 l 588 199 q 529 58 588 112 q 347 0 465 0 l 184 0 q 146 14 160 0 q 124 61 124 36 q 141 105 124 87 q 184 123 159 123 l 347 123 q 397 140 380 123 q 427 203 427 170 l 427 415 q 373 490 427 467 q 333 496 357 496 q 289 481 309 496 q 259 446 269 467 q 228 412 249 425 q 186 399 206 399 q 150 406 165 399 q 123 425 135 413 q 99 484 99 449 l 99 840 z "},"6":{"ha":694,"x_min":106,"x_max":587,"o":"m 437 922 q 480 904 462 922 q 498 867 498 886 q 493 837 498 848 q 480 818 488 826 q 437 800 460 800 l 384 800 q 304 761 338 800 q 267 642 267 719 l 267 583 q 274 565 267 570 q 288 561 281 561 q 300 567 294 561 l 311 578 q 417 624 357 624 q 538 564 490 624 q 587 423 587 506 l 587 186 q 525 42 587 95 q 347 -13 460 -13 q 170 42 234 -13 q 106 188 106 96 l 106 635 q 168 833 106 754 q 361 922 238 922 l 437 922 m 427 421 q 410 472 427 455 q 355 502 380 502 q 316 497 330 502 q 290 482 302 492 q 267 429 267 462 l 267 190 q 283 139 267 156 q 347 109 313 109 q 397 126 380 109 q 427 190 427 156 l 427 421 z "},"7":{"ha":580,"x_min":74,"x_max":547,"o":"m 303 44 q 274 2 296 18 q 233 -14 252 -14 q 195 -7 214 -14 q 161 20 176 -1 q 146 61 146 41 q 151 94 146 80 l 378 800 l 136 800 q 97 812 111 800 q 74 860 74 834 q 111 917 74 901 q 136 922 123 922 l 473 922 q 529 895 509 922 q 538 838 547 869 l 303 44 z "},"8":{"ha":694,"x_min":101,"x_max":592,"o":"m 487 481 q 592 330 592 441 l 592 188 q 526 41 592 95 q 347 -13 460 -13 q 167 41 233 -13 q 101 188 101 95 l 101 330 q 205 481 101 441 q 140 536 159 508 q 109 650 109 585 l 109 734 q 172 880 109 827 q 347 935 236 935 q 521 880 457 935 q 584 734 584 827 l 584 650 q 526 509 584 556 q 487 481 509 494 m 433 344 q 414 395 433 377 q 346 425 382 425 q 291 407 310 425 q 259 344 259 378 l 259 181 q 284 128 259 146 q 346 109 309 109 q 408 128 382 109 q 433 181 433 146 l 433 344 m 422 732 q 377 807 422 785 q 337 813 363 813 q 290 790 311 813 q 269 732 269 766 l 269 606 q 292 552 269 571 q 338 534 314 534 q 375 538 361 534 q 400 552 389 543 q 422 606 422 572 l 422 732 z "},"9":{"ha":694,"x_min":106,"x_max":587,"o":"m 309 0 q 266 18 284 0 q 248 55 248 36 q 253 84 248 73 q 266 104 258 96 q 308 122 286 122 q 351 133 330 122 q 389 165 372 144 q 427 300 427 213 l 427 353 q 419 370 427 366 q 406 374 412 374 q 393 369 399 374 l 382 357 q 276 311 336 311 q 155 370 203 311 q 106 512 106 429 l 106 736 q 168 880 106 827 q 347 935 233 935 q 524 880 459 935 q 587 734 587 827 l 587 307 q 525 95 587 180 q 332 0 454 0 l 309 0 m 267 514 q 283 463 267 480 q 338 433 313 433 q 377 438 363 433 q 403 453 391 444 q 427 506 427 473 l 427 732 q 410 783 427 766 q 347 813 380 813 q 296 796 313 813 q 267 732 267 766 l 267 514 z "},"\u0001":{"ha":0,"x_min":0,"x_max":0,"o":""},"\u0002":{"ha":0,"x_min":0,"x_max":0,"o":""},"\u0003":{"ha":0,"x_min":0,"x_max":0,"o":""},"\u0004":{"ha":0,"x_min":0,"x_max":0,"o":""},"\u0005":{"ha":0,"x_min":0,"x_max":0,"o":""},"\u0006":{"ha":0,"x_min":0,"x_max":0,"o":""},"\u0007":{"ha":0,"x_min":0,"x_max":0,"o":""},"\b":{"ha":0,"x_min":0,"x_max":0,"o":""},"\t":{"ha":0,"x_min":0,"x_max":0,"o":""},"\u0010":{"ha":0,"x_min":0,"x_max":0,"o":""},"\u0011":{"ha":0,"x_min":0,"x_max":0,"o":""},"\u0012":{"ha":0,"x_min":0,"x_max":0,"o":""},"\u0013":{"ha":0,"x_min":0,"x_max":0,"o":""},"\u0014":{"ha":0,"x_min":0,"x_max":0,"o":""},"\u0015":{"ha":0,"x_min":0,"x_max":0,"o":""},"\u0016":{"ha":0,"x_min":0,"x_max":0,"o":""},"\u0017":{"ha":0,"x_min":0,"x_max":0,"o":""},"\u0018":{"ha":0,"x_min":0,"x_max":0,"o":""},"\u0019":{"ha":0,"x_min":0,"x_max":0,"o":""}," ":{"ha":348,"x_min":0,"x_max":0,"o":""},"!":{"ha":348,"x_min":62,"x_max":284,"o":"m 69 802 q 121 924 62 891 q 171 935 141 935 q 222 924 201 935 q 257 894 243 912 q 279 802 284 857 l 239 354 q 218 309 237 328 q 172 290 199 290 q 127 309 145 290 q 107 354 110 327 l 69 802 m 172 168 q 236 141 210 168 q 264 86 264 114 q 256 42 264 58 q 236 14 249 26 q 172 -14 210 -14 q 109 14 135 -14 q 81 68 81 41 q 108 141 81 114 q 172 168 135 168 z "},"\"":{"ha":696,"x_min":117,"x_max":578,"o":"m 121 799 q 117 831 117 815 q 124 865 117 848 q 143 895 131 882 q 198 922 169 922 q 244 914 227 922 q 273 894 261 907 q 300 829 300 867 q 298 799 300 814 l 264 595 q 246 557 261 573 q 208 541 231 541 q 171 557 185 541 q 153 595 157 573 l 121 799 m 399 799 q 395 831 395 815 q 401 865 395 848 q 420 895 408 882 q 475 922 446 922 q 522 914 505 922 q 551 894 538 907 q 578 829 578 867 q 575 799 578 814 l 542 595 q 524 557 538 573 q 486 541 509 541 q 448 557 463 541 q 431 595 434 573 l 399 799 z "},"#":{"ha":694,"x_min":7,"x_max":673,"o":"m 370 291 l 275 291 l 245 41 q 222 -1 242 15 q 183 -14 203 -16 q 154 -5 164 -11 q 136 11 143 1 q 123 55 120 32 l 151 291 l 66 291 q 30 304 43 291 q 7 352 7 327 q 24 396 7 378 q 66 414 41 414 l 165 414 l 178 528 l 98 528 q 61 541 74 528 q 38 590 38 564 q 55 633 38 615 q 98 651 73 651 l 193 651 l 220 880 q 237 918 222 907 q 283 936 264 938 q 313 927 302 933 q 331 911 323 921 q 343 866 346 891 l 317 651 l 412 651 l 439 880 q 456 918 441 907 q 502 936 483 938 q 532 927 522 933 q 549 911 543 921 q 562 866 565 891 l 536 651 l 614 651 q 651 637 637 651 q 673 590 673 615 q 656 546 673 564 q 614 528 639 528 l 522 528 l 509 414 l 583 414 q 620 400 606 414 q 642 352 642 378 q 625 309 642 327 q 583 291 608 291 l 494 291 l 465 41 q 441 -1 461 15 q 402 -14 422 -16 q 373 -5 383 -11 q 355 11 362 1 q 342 55 339 32 l 370 291 m 290 414 l 384 414 l 397 528 l 303 528 l 290 414 z "},"$":{"ha":694,"x_min":109,"x_max":585,"o":"m 387 895 l 477 895 q 520 877 503 895 q 538 840 538 859 q 534 810 538 821 q 521 791 529 799 q 477 772 501 772 l 387 772 l 387 559 l 431 546 q 540 472 498 526 q 585 336 585 414 l 585 228 q 534 91 585 143 q 387 29 483 39 l 387 -17 q 376 -47 387 -35 q 349 -59 365 -59 q 321 -47 332 -58 q 311 -19 311 -36 l 311 27 l 199 27 q 156 45 174 27 q 138 82 138 63 q 143 112 138 100 q 156 131 148 123 q 199 149 176 149 l 311 149 l 311 424 l 249 441 q 119 565 151 469 q 109 630 109 595 l 109 694 q 161 830 109 778 q 311 892 214 883 l 311 949 q 322 976 311 965 q 349 987 333 987 q 376 976 366 987 q 387 949 387 965 l 387 895 m 387 153 q 438 229 438 169 l 438 327 q 387 401 438 377 l 387 153 m 256 650 q 268 606 256 623 q 311 581 281 590 l 311 768 q 271 739 287 760 q 256 692 256 718 l 256 650 z "},"%":{"ha":1152,"x_min":100,"x_max":1050,"o":"m 703 923 q 759 961 719 961 q 812 933 794 961 q 822 903 822 918 q 817 875 822 888 l 439 -13 q 385 -50 424 -50 q 331 -22 349 -50 q 321 10 321 -5 q 326 35 321 25 l 703 923 m 100 778 q 149 892 100 850 q 290 935 198 935 q 467 842 426 935 q 480 777 480 813 l 480 595 q 431 480 480 522 q 291 438 382 438 q 150 480 200 438 q 100 597 100 523 l 100 778 m 353 775 q 335 820 353 802 q 290 839 317 839 q 245 820 263 839 q 227 775 227 802 l 227 592 q 245 550 227 564 q 290 535 263 535 q 335 550 317 535 q 353 592 353 564 l 353 775 m 671 327 q 720 441 671 399 q 861 484 768 484 q 1038 391 996 484 q 1050 326 1050 362 l 1050 144 q 1001 29 1050 71 q 861 -13 952 -13 q 721 30 770 -13 q 671 146 671 72 l 671 327 m 924 324 q 905 369 924 351 q 860 388 887 388 q 815 369 833 388 q 797 324 797 351 l 797 141 q 815 99 797 113 q 860 84 833 84 q 905 99 887 84 q 924 141 924 113 l 924 324 z "},"&":{"ha":809,"x_min":106,"x_max":810,"o":"m 578 287 q 602 202 602 250 q 586 118 602 155 q 537 54 569 81 q 355 0 471 0 q 123 117 176 0 q 106 201 106 154 l 106 372 q 171 516 106 469 q 217 543 191 531 q 149 598 167 570 q 117 714 117 648 l 117 736 q 179 880 117 827 q 357 935 244 935 q 529 882 466 935 q 591 738 590 829 l 591 728 q 574 677 591 694 q 512 648 545 648 q 461 665 479 648 q 432 728 432 694 l 432 738 q 415 785 431 770 q 364 813 387 813 q 326 807 340 813 q 300 790 311 801 q 277 733 277 767 l 277 691 q 321 620 277 644 q 351 610 332 614 q 387 589 370 606 q 404 544 404 572 q 387 498 404 515 q 350 477 370 481 q 317 466 331 473 q 292 450 303 460 q 266 395 266 426 l 266 195 q 320 127 266 143 q 356 123 336 123 q 395 129 376 123 q 427 146 413 135 q 455 197 455 169 q 446 239 455 225 q 427 267 437 254 q 398 323 398 300 q 404 361 398 347 q 421 386 410 375 q 478 409 444 409 l 576 409 q 623 427 606 409 q 650 490 650 458 l 650 533 q 667 583 650 567 q 722 612 697 612 q 762 606 747 612 q 787 589 777 600 q 810 533 810 565 l 810 488 q 751 346 810 405 q 610 287 692 287 l 578 287 z "},"'":{"ha":348,"x_min":83,"x_max":266,"o":"m 87 799 q 83 831 83 815 q 90 865 83 848 q 109 895 96 882 q 163 922 134 922 q 210 914 193 922 q 239 894 227 907 q 266 829 266 867 q 263 799 266 814 l 230 595 q 212 557 227 573 q 174 541 197 541 q 136 557 151 541 q 119 595 122 573 l 87 799 z "},"(":{"ha":694,"x_min":198,"x_max":494,"o":"m 359 254 q 433 -35 359 69 q 469 -80 453 -64 q 494 -127 494 -107 q 490 -159 494 -148 q 476 -180 485 -171 q 437 -199 457 -199 q 399 -191 416 -199 q 361 -166 382 -183 q 317 -123 340 -150 q 273 -60 295 -97 q 235 23 252 -24 q 198 258 198 128 l 198 602 q 317 983 198 842 q 431 1058 381 1058 q 476 1039 458 1058 q 494 1002 494 1021 q 474 945 494 967 q 433 894 453 923 q 396 825 412 865 q 359 605 359 735 l 359 254 z "},")":{"ha":694,"x_min":199,"x_max":495,"o":"m 334 254 q 260 -35 334 69 q 224 -80 240 -64 q 199 -127 199 -107 q 203 -159 199 -148 q 217 -180 208 -171 q 256 -199 236 -199 q 294 -191 277 -199 q 332 -166 311 -183 q 376 -123 353 -150 q 420 -60 398 -97 q 458 23 441 -24 q 495 258 495 128 l 495 602 q 376 983 495 842 q 262 1058 312 1058 q 217 1039 235 1058 q 199 1002 199 1021 q 219 945 199 967 q 260 894 240 923 q 297 825 281 865 q 334 605 334 735 l 334 254 z "},"*":{"ha":548,"x_min":65,"x_max":484,"o":"m 323 772 l 381 802 q 422 814 401 814 q 479 772 465 814 q 484 742 484 760 q 464 708 484 724 q 419 688 445 692 l 358 678 l 405 632 q 431 585 431 606 q 410 531 431 547 q 369 516 389 516 q 307 561 329 516 l 277 619 l 248 560 q 185 515 225 515 q 151 526 166 515 q 123 568 123 547 q 150 631 123 605 l 195 676 l 130 686 q 71 724 86 694 q 65 747 65 734 q 71 775 65 759 q 92 802 76 791 q 126 812 107 812 q 168 801 146 812 l 223 772 l 213 838 q 241 914 205 892 q 272 922 254 922 q 304 914 291 922 q 324 895 317 907 q 334 838 340 872 l 323 772 z "},"+":{"ha":694,"x_min":64,"x_max":629,"o":"m 394 135 q 388 128 394 135 q 370 117 381 121 q 346 112 359 112 q 322 117 334 112 q 302 130 311 121 q 285 172 285 146 l 285 356 l 123 356 q 87 369 100 356 q 64 411 64 392 q 68 441 64 430 q 81 461 73 452 q 123 479 98 479 l 285 479 l 285 657 q 298 694 285 681 q 340 717 321 717 q 370 712 359 717 q 389 699 381 707 q 408 657 408 682 l 408 479 l 570 479 q 606 465 593 479 q 629 424 629 443 q 625 394 629 405 q 612 374 620 382 q 570 356 595 356 l 408 356 l 408 172 q 394 135 408 148 z "},",":{"ha":348,"x_min":82,"x_max":276,"o":"m 140 -42 q 119 5 140 -13 q 82 79 82 38 q 109 142 82 116 q 167 168 134 168 q 219 156 199 168 q 252 125 239 144 q 276 33 276 87 q 216 -135 276 -73 q 156 -170 180 -170 q 119 -156 132 -170 q 106 -126 106 -142 q 112 -101 106 -111 q 123 -83 117 -92 q 140 -42 140 -60 z "},"-":{"ha":694,"x_min":71,"x_max":623,"o":"m 600 466 q 606 459 600 466 q 618 441 613 452 q 623 417 623 430 q 618 394 623 405 q 605 374 613 382 q 563 356 588 356 l 130 356 q 94 369 106 356 q 71 411 71 392 q 75 441 71 430 q 88 461 80 452 q 130 479 105 479 l 563 479 q 600 466 587 479 z "},".":{"ha":348,"x_min":83,"x_max":266,"o":"m 174 168 q 239 141 212 168 q 266 86 266 114 q 258 42 266 58 q 239 14 251 26 q 174 -14 212 -14 q 110 14 137 -14 q 83 68 83 41 q 110 141 83 114 q 174 168 137 168 z "},"/":{"ha":694,"x_min":124,"x_max":569,"o":"m 443 997 q 472 1035 450 1023 q 519 1041 494 1048 q 556 1013 544 1034 q 562 965 569 991 l 250 -198 q 222 -236 243 -223 q 181 -243 200 -248 q 153 -230 163 -238 q 137 -212 143 -222 q 131 -166 124 -189 l 443 997 z "},":":{"ha":348,"x_min":83,"x_max":266,"o":"m 174 168 q 239 141 212 168 q 266 86 266 114 q 258 42 266 58 q 239 14 251 26 q 174 -14 212 -14 q 110 14 137 -14 q 83 68 83 41 q 110 141 83 114 q 174 168 137 168 m 174 736 q 239 709 212 736 q 266 654 266 682 q 258 610 266 626 q 239 581 251 593 q 174 554 212 554 q 110 581 137 554 q 83 635 83 608 q 110 709 83 682 q 174 736 137 736 z "},";":{"ha":348,"x_min":82,"x_max":276,"o":"m 174 736 q 239 709 212 736 q 266 654 266 682 q 258 610 266 626 q 239 581 251 593 q 174 554 212 554 q 110 581 137 554 q 83 635 83 608 q 110 709 83 682 q 174 736 137 736 m 140 -42 q 119 5 140 -13 q 82 79 82 38 q 109 142 82 116 q 167 168 134 168 q 219 156 199 168 q 252 125 239 144 q 276 33 276 87 q 216 -135 276 -73 q 156 -170 180 -170 q 119 -156 132 -170 q 106 -126 106 -142 q 112 -101 106 -111 q 123 -83 117 -92 q 140 -42 140 -60 z "},"<":{"ha":694,"x_min":57,"x_max":609,"o":"m 578 161 q 547 153 563 153 q 518 161 531 153 l 86 410 q 57 465 57 427 q 86 515 57 498 l 518 764 q 547 772 531 772 q 600 741 583 772 q 609 710 609 726 q 580 659 609 675 l 240 463 l 580 267 q 609 215 609 250 q 578 161 609 179 z "},"=":{"ha":694,"x_min":71,"x_max":623,"o":"m 600 343 q 606 336 600 343 q 618 318 613 330 q 623 295 623 307 q 618 271 623 282 q 605 251 613 260 q 563 233 588 233 l 130 233 q 94 247 106 233 q 71 288 71 269 q 75 318 71 307 q 88 338 80 330 q 130 356 105 356 l 563 356 q 600 343 587 356 m 600 588 q 606 582 600 588 q 618 564 613 575 q 623 540 623 553 q 618 516 623 528 q 605 496 613 505 q 563 479 588 479 l 130 479 q 94 492 106 479 q 71 534 71 515 q 75 564 71 553 q 88 583 80 575 q 130 602 105 602 l 563 602 q 600 588 587 602 z "},">":{"ha":694,"x_min":86,"x_max":638,"o":"m 117 161 q 148 153 132 153 q 177 161 164 153 l 609 410 q 638 465 638 427 q 609 515 638 498 l 177 764 q 149 772 164 772 q 95 741 112 772 q 86 710 86 726 q 115 659 86 675 l 455 463 l 115 267 q 86 215 86 250 q 117 161 86 179 z "},"?":{"ha":696,"x_min":109,"x_max":585,"o":"m 195 406 q 340 616 195 536 l 382 638 q 425 703 425 660 l 425 718 q 407 769 425 751 q 344 799 377 799 l 170 799 q 132 812 146 799 q 109 860 109 834 q 127 903 109 885 q 170 921 145 921 l 345 921 q 522 867 457 921 q 585 720 585 813 l 585 697 q 445 509 585 585 l 414 491 q 354 426 371 467 q 348 397 348 412 l 348 379 q 332 332 348 348 q 280 304 304 304 q 241 310 256 304 q 217 326 227 316 q 195 379 195 349 l 195 406 m 271 169 q 335 142 308 169 q 362 87 362 115 q 355 43 362 59 q 335 14 347 26 q 271 -13 308 -13 q 206 14 233 -13 q 179 69 179 41 q 206 142 179 115 q 271 169 233 169 z "},"@":{"ha":1152,"x_min":148,"x_max":1004,"o":"m 734 -121 q 761 -133 749 -121 q 772 -160 772 -144 q 761 -187 772 -176 q 734 -197 749 -197 l 570 -197 q 259 -119 372 -197 q 148 92 148 -42 l 148 696 q 257 907 148 830 q 569 987 369 987 q 889 907 773 987 q 1004 694 1004 828 l 1004 190 q 960 79 1004 121 q 839 37 918 37 q 717 90 760 37 q 707 96 711 96 q 692 90 696 96 q 559 37 649 37 q 434 79 485 37 q 382 192 382 122 l 382 581 q 425 690 382 644 q 525 735 468 735 q 624 691 583 735 q 634 687 627 687 q 646 695 643 687 q 654 709 650 703 q 665 720 658 715 q 699 735 681 735 q 730 730 718 735 q 751 718 742 726 q 773 673 773 698 l 773 186 q 800 136 773 157 q 851 115 826 115 q 892 132 876 115 q 908 180 908 149 l 908 694 q 818 852 908 794 q 567 911 728 911 q 327 853 413 911 q 243 696 243 795 l 243 102 q 328 -61 243 -2 q 568 -121 415 -121 l 734 -121 m 643 585 q 627 622 643 610 q 580 642 600 642 q 549 637 560 642 q 530 624 538 632 q 513 579 513 605 l 513 186 q 531 146 513 160 q 568 132 549 132 q 599 135 587 132 q 621 145 612 138 q 643 186 643 161 l 643 585 z "},"A":{"ha":809,"x_min":-43,"x_max":708,"o":"m 290 779 q 270 799 290 799 l 191 799 q 145 781 161 799 q 118 719 118 751 l 118 680 q 68 607 118 627 q 37 601 54 601 q 6 607 20 601 q -19 624 -9 613 q -43 680 -43 647 l -43 721 q 16 863 -43 804 q 158 922 75 922 l 467 922 q 644 867 580 922 q 708 721 708 813 l 708 66 q 659 -7 708 15 q 628 -13 645 -13 q 597 -6 612 -13 q 571 11 582 0 q 547 66 547 33 l 547 294 l 387 294 l 387 66 q 369 16 387 34 q 315 -13 340 -13 q 275 -6 290 -13 q 249 11 260 0 q 226 66 226 33 l 226 294 l 177 294 q 140 307 153 294 q 117 355 117 330 q 135 398 117 380 q 177 416 152 416 l 226 416 l 226 648 q 283 766 226 712 q 290 779 290 772 m 387 416 l 547 416 l 547 718 q 530 769 547 752 q 475 799 500 799 q 435 792 450 799 q 410 775 420 786 q 387 719 387 752 l 387 416 z "},"B":{"ha":808,"x_min":-42,"x_max":707,"o":"m 157 0 q 118 13 132 0 q 95 54 95 35 q 100 84 95 73 q 113 104 104 96 q 157 123 132 123 l 226 123 l 226 648 q 283 766 226 712 q 290 778 290 772 q 285 792 290 785 q 268 799 281 799 l 192 799 q 146 781 161 799 q 119 719 119 751 l 119 680 q 69 607 119 627 q 38 601 54 601 q 6 607 21 601 q -19 624 -8 613 q -42 680 -42 647 l -42 721 q 17 863 -42 804 q 159 922 76 922 l 473 922 q 688 812 633 922 q 707 721 707 774 l 707 578 q 597 425 707 466 q 660 370 642 398 q 691 258 691 322 l 691 201 q 633 59 691 117 q 491 0 574 0 l 157 0 m 387 490 l 467 490 q 540 538 519 490 q 547 570 547 553 l 547 720 q 530 769 547 751 q 474 799 501 799 q 433 792 448 799 q 408 774 418 786 q 387 720 387 751 l 387 490 m 450 123 q 500 140 484 123 q 531 203 531 170 l 531 288 q 514 338 531 321 q 450 368 484 368 l 387 368 l 387 123 l 450 123 z "},"C":{"ha":696,"x_min":106,"x_max":594,"o":"m 418 669 q 424 676 418 669 q 438 697 429 682 q 447 730 447 711 q 440 764 447 749 q 421 789 433 779 q 354 813 395 813 q 290 790 313 813 q 267 732 267 766 l 267 182 q 289 129 267 147 q 346 110 312 110 q 404 129 380 110 q 427 182 427 147 l 427 226 q 444 277 427 260 q 498 306 473 306 q 538 300 523 306 q 564 283 553 294 q 587 226 587 259 l 587 186 q 449 1 587 44 q 347 -13 404 -13 q 245 1 290 -13 q 170 41 200 15 q 106 188 106 95 l 106 736 q 168 880 106 827 q 347 935 233 935 q 529 880 463 935 q 594 735 594 827 q 521 542 594 592 q 476 526 498 526 q 438 532 453 526 q 413 549 424 538 q 390 599 390 571 q 399 641 390 627 q 418 669 408 656 z "},"D":{"ha":809,"x_min":-43,"x_max":706,"o":"m 118 680 q 68 607 118 627 q 37 601 54 601 q 6 607 20 601 q -20 624 -9 613 q -43 680 -43 646 l -43 721 q 16 863 -43 804 q 158 922 75 922 l 506 922 q 648 863 589 922 q 706 721 706 804 l 706 201 q 648 59 706 117 q 506 0 589 0 l 150 0 q 111 13 125 0 q 88 54 88 35 q 93 84 88 73 q 106 104 98 96 q 150 123 125 123 l 226 123 l 226 648 q 283 767 226 713 q 290 779 290 772 q 285 792 290 785 q 268 800 281 800 l 191 800 q 145 781 161 800 q 118 719 118 751 l 118 680 m 387 123 l 467 123 q 517 140 499 123 q 546 202 546 168 l 546 719 q 529 770 546 753 q 474 800 499 800 q 434 793 449 800 q 408 776 419 787 q 387 720 387 753 l 387 123 z "},"E":{"ha":694,"x_min":103,"x_max":600,"o":"m 353 935 q 457 922 411 935 q 534 882 503 908 q 600 735 600 828 q 526 542 600 592 q 481 526 504 526 q 444 532 458 526 q 418 549 429 538 q 395 599 395 571 q 404 641 395 627 q 424 669 413 656 q 452 737 452 704 q 427 791 452 770 q 359 812 401 812 q 290 794 316 812 q 263 741 263 775 l 263 532 q 280 481 263 499 q 342 452 309 452 l 355 452 q 398 434 380 452 q 415 390 415 416 q 398 347 415 365 q 359 330 380 330 q 323 323 338 330 q 298 307 309 317 q 275 250 275 283 l 275 202 q 292 151 275 168 q 355 122 321 122 q 401 138 385 122 q 429 193 429 168 q 435 232 429 217 q 452 257 441 246 q 509 281 476 281 q 559 263 542 281 q 589 194 589 234 q 573 118 589 155 q 527 54 557 81 q 355 0 465 0 q 176 54 241 0 q 114 199 114 108 l 114 220 q 171 361 114 312 q 210 388 188 376 q 127 449 151 411 q 103 540 103 486 l 103 734 q 169 881 103 827 q 353 935 235 935 z "},"F":{"ha":695,"x_min":37,"x_max":695,"o":"m 368 779 q 349 800 368 800 l 271 800 q 224 781 241 800 q 197 719 197 751 l 197 680 q 148 607 197 627 q 116 601 133 601 q 85 607 100 601 q 60 624 71 613 q 37 680 37 647 l 37 721 q 96 863 37 804 q 237 922 155 922 l 635 922 q 678 904 661 922 q 695 867 695 886 q 690 837 695 848 q 677 817 686 825 q 635 800 660 800 l 539 800 q 492 783 509 800 q 465 720 465 753 l 465 482 l 595 482 q 633 469 620 482 q 656 428 656 448 q 652 398 656 409 q 639 378 647 387 q 595 360 621 360 l 465 360 l 465 201 q 406 59 465 117 q 264 0 347 0 l 186 0 q 142 18 160 0 q 125 61 125 35 q 142 104 125 86 q 186 123 160 123 l 224 123 q 275 140 258 123 q 304 202 304 168 l 304 360 l 275 360 q 236 373 250 360 q 213 414 213 395 q 218 445 213 433 q 231 464 222 456 q 275 482 249 482 l 304 482 l 304 648 q 362 767 304 713 q 368 779 368 772 z "},"G":{"ha":693,"x_min":106,"x_max":594,"o":"m 418 669 q 424 676 418 669 q 438 697 429 682 q 447 730 447 711 q 440 764 447 749 q 421 789 433 779 q 354 813 395 813 q 290 790 313 813 q 267 732 267 766 l 267 182 q 290 129 267 147 q 347 110 313 110 q 404 129 380 110 q 427 182 427 147 l 427 298 q 444 349 427 332 q 498 378 473 378 q 538 372 523 378 q 564 355 553 366 q 587 298 587 332 l 587 -97 q 529 -239 587 -180 q 388 -298 470 -298 l 308 -298 q 264 -280 282 -298 q 247 -237 247 -262 q 264 -193 247 -212 q 308 -175 282 -175 l 347 -175 q 397 -159 380 -175 q 427 -96 427 -130 l 427 28 q 419 45 427 41 q 406 50 412 50 q 393 43 399 50 l 382 33 q 276 -14 336 -14 q 155 46 203 -14 q 106 187 106 104 l 106 736 q 168 880 106 827 q 347 935 233 935 q 529 880 463 935 q 594 735 594 827 q 521 542 594 592 q 476 526 498 526 q 438 532 453 526 q 413 549 424 538 q 390 599 390 571 q 399 641 390 627 q 418 669 408 656 z "},"H":{"ha":925,"x_min":43,"x_max":794,"o":"m 228 307 q 221 313 228 307 q 210 331 214 320 q 205 361 205 342 q 222 398 205 380 q 264 416 239 416 l 312 416 l 312 800 l 281 800 q 225 777 247 800 q 204 719 204 755 l 204 680 q 155 607 204 627 q 123 601 140 601 q 92 607 106 601 q 66 624 77 613 q 43 680 43 647 l 43 721 q 103 863 43 804 q 244 922 163 922 l 392 922 q 442 905 425 922 q 472 840 472 875 l 472 416 l 634 416 l 634 840 q 682 916 634 894 q 714 922 697 922 q 746 915 732 922 q 771 898 760 909 q 794 840 794 875 l 794 79 q 746 7 794 28 q 714 0 732 0 q 683 6 697 0 q 657 23 668 13 q 634 79 634 45 l 634 294 l 472 294 l 472 201 q 414 59 472 117 q 272 0 355 0 l 193 0 q 150 18 168 0 q 132 61 132 35 q 150 104 132 86 q 193 123 168 123 l 232 123 q 283 140 265 123 q 312 202 312 168 l 312 294 l 264 294 q 228 307 241 294 z "},"I":{"ha":580,"x_min":20,"x_max":449,"o":"m 181 680 q 132 607 181 627 q 100 601 117 601 q 69 607 83 601 q 43 624 54 613 q 20 680 20 647 l 20 721 q 80 863 20 804 q 221 922 140 922 l 369 922 q 419 905 402 922 q 449 840 449 875 l 449 201 q 391 59 449 117 q 249 0 332 0 l 170 0 q 127 18 144 0 q 109 61 109 35 q 127 104 109 86 q 170 123 144 123 l 209 123 q 260 140 242 123 q 289 202 289 168 l 289 800 l 258 800 q 209 782 226 800 q 181 719 181 752 l 181 680 z "},"J":{"ha":580,"x_min":33,"x_max":456,"o":"m 296 800 l 275 800 q 224 783 241 800 q 194 719 194 753 l 194 680 q 144 607 194 627 q 113 601 130 601 q 82 607 96 601 q 57 624 67 613 q 33 680 33 647 l 33 721 q 92 863 33 804 q 234 922 153 922 l 376 922 q 426 905 409 922 q 456 840 456 875 l 456 -121 q 397 -262 456 -203 q 254 -321 338 -321 l 149 -321 q 92 -285 109 -321 q 87 -260 87 -273 q 100 -222 87 -236 q 149 -199 123 -199 l 215 -199 q 266 -182 249 -199 q 296 -119 296 -152 l 296 800 z "},"K":{"ha":922,"x_min":30,"x_max":922,"o":"m 680 430 q 781 281 781 391 l 781 261 q 852 12 781 103 q 892 -38 873 -17 q 922 -100 922 -71 q 882 -162 922 -144 q 857 -168 869 -168 q 770 -125 816 -168 q 693 -29 724 -83 q 619 288 619 100 q 602 339 619 321 q 540 369 574 369 l 460 369 l 460 66 q 444 16 460 34 q 389 -13 414 -13 q 349 -6 363 -13 q 323 11 334 0 q 299 66 299 33 l 299 800 l 264 800 q 218 781 234 800 q 191 719 191 751 l 191 680 q 141 607 191 627 q 110 601 126 601 q 78 607 93 601 q 53 624 64 613 q 30 680 30 647 l 30 721 q 89 863 30 804 q 231 922 148 922 l 380 922 q 431 905 414 922 q 460 840 460 873 l 460 491 l 539 491 q 589 509 572 491 q 618 572 618 538 l 618 840 q 636 892 618 873 q 700 922 665 922 q 750 905 734 922 q 780 840 780 873 l 780 601 q 721 457 780 505 q 680 430 703 442 z "},"L":{"ha":695,"x_min":7,"x_max":667,"o":"m 244 142 q 264 122 244 122 l 433 122 q 478 140 463 122 q 506 195 506 170 q 512 233 506 219 q 529 258 518 248 q 578 281 553 281 q 618 275 604 281 q 644 258 633 269 q 667 197 667 235 q 651 123 667 159 q 608 59 635 86 q 466 0 549 0 l 66 0 q 30 14 43 0 q 7 61 7 36 q 24 105 7 87 q 62 123 41 123 q 98 129 83 123 q 123 144 113 134 q 146 199 146 166 l 146 721 q 206 863 146 804 q 347 922 266 922 l 446 922 q 503 884 486 922 q 507 854 507 873 q 490 817 507 835 q 446 800 472 800 l 388 800 q 336 783 354 800 q 307 719 307 753 l 307 273 q 261 167 307 213 q 244 142 244 152 z "},"M":{"ha":1157,"x_min":-35,"x_max":1038,"o":"m 125 680 q 76 607 125 627 q 44 601 61 601 q 13 607 28 601 q -12 624 -1 613 q -35 680 -35 647 l -35 721 q 24 863 -35 804 q 165 922 84 922 l 313 922 q 382 883 357 922 q 398 872 389 872 q 412 878 406 872 l 424 889 q 490 928 461 922 q 549 935 518 935 q 614 916 580 935 q 675 863 649 896 q 689 856 681 856 q 717 878 703 856 q 765 918 732 900 q 842 935 798 935 q 921 919 885 935 q 982 876 956 903 q 1038 734 1038 818 l 1038 66 q 989 -7 1038 15 q 958 -13 975 -13 q 927 -6 941 -13 q 902 11 912 0 q 878 66 878 34 l 878 732 q 861 783 878 766 q 805 813 831 813 q 766 807 780 813 q 741 789 751 800 q 716 734 716 765 l 716 66 q 667 -7 716 15 q 636 -13 653 -13 q 605 -6 620 -13 q 579 11 590 0 q 555 66 555 33 l 555 732 q 538 783 555 766 q 475 813 508 813 q 425 798 442 813 q 393 732 393 769 l 393 201 q 335 59 393 117 q 193 0 276 0 l 135 0 q 92 18 109 0 q 74 61 74 35 q 92 104 74 86 q 135 123 109 123 l 153 123 q 204 140 186 123 q 233 202 233 168 l 233 800 l 203 800 q 154 781 170 798 q 125 719 125 751 l 125 680 z "},"N":{"ha":809,"x_min":-31,"x_max":709,"o":"m 130 680 q 81 607 130 627 q 49 601 66 601 q 18 607 33 601 q -7 624 3 613 q -31 680 -31 647 l -31 721 q 28 863 -31 804 q 170 922 89 922 l 306 922 q 370 888 346 922 q 390 872 380 872 q 404 878 399 872 l 416 889 q 530 935 466 935 q 656 876 604 935 q 708 734 708 818 l 709 66 q 661 -7 709 15 q 629 -13 646 -13 q 597 -6 612 -13 q 572 11 583 0 q 548 66 548 33 l 547 732 q 530 783 547 766 q 468 813 500 813 q 418 798 435 813 q 386 737 386 769 l 386 201 q 328 59 386 117 q 186 0 269 0 l 127 0 q 84 18 102 0 q 66 61 66 35 q 84 104 66 86 q 127 123 102 123 l 146 123 q 197 140 179 123 q 226 202 226 168 l 226 800 l 208 800 q 159 781 175 798 q 130 719 130 751 l 130 680 z "},"O":{"ha":693,"x_min":99,"x_max":587,"o":"m 272 789 q 266 784 272 789 q 253 764 260 779 q 246 730 246 749 q 255 697 246 711 q 275 669 264 682 q 303 611 303 634 q 297 574 303 589 q 280 549 291 559 q 225 526 256 526 q 172 542 195 526 q 133 585 149 557 q 99 735 99 642 q 164 880 99 827 q 347 935 230 935 q 525 880 460 935 q 587 736 587 827 l 587 188 q 524 41 587 95 q 347 -13 460 -13 q 168 41 233 -13 q 106 186 106 93 l 106 407 q 123 457 106 440 q 178 487 153 487 q 218 481 203 487 q 243 464 233 475 q 267 407 267 441 l 267 182 q 290 129 267 147 q 347 110 313 110 q 404 129 381 110 q 427 182 427 147 l 427 732 q 403 790 427 766 q 350 813 380 813 q 302 807 319 813 q 272 789 284 800 z "},"P":{"ha":809,"x_min":-37,"x_max":715,"o":"m -37 721 q 22 863 -37 804 q 164 922 81 922 l 519 922 q 659 863 601 922 q 715 721 715 805 l 715 522 q 656 380 715 438 q 515 321 598 321 l 393 321 l 393 66 q 345 -7 393 15 q 313 -13 330 -13 q 281 -6 296 -13 q 256 11 267 0 q 232 66 232 33 l 232 648 q 290 767 232 713 q 296 779 296 772 q 291 792 296 785 q 274 800 287 800 l 197 800 q 151 781 168 800 q 124 719 124 751 l 124 680 q 75 607 124 627 q 43 601 60 601 q 12 607 26 601 q -14 624 -3 613 q -37 680 -37 647 l -37 721 m 393 442 l 475 442 q 525 460 509 442 q 555 524 555 490 l 555 719 q 538 769 555 751 q 484 800 509 800 q 443 793 458 800 q 416 776 427 787 q 393 720 393 753 l 393 442 z "},"Q":{"ha":693,"x_min":106,"x_max":648,"o":"m 524 143 q 544 123 524 123 l 587 123 q 643 85 626 123 q 648 61 648 74 q 610 5 648 21 q 587 0 600 0 l 170 0 q 133 14 146 0 q 110 61 110 36 q 127 105 110 87 q 170 123 144 123 l 347 123 q 403 140 379 123 q 427 191 427 158 l 427 732 q 410 783 427 766 q 354 813 380 813 q 312 807 328 813 q 285 789 296 800 q 260 732 260 767 l 260 453 q 279 400 260 425 q 308 362 299 376 q 317 328 317 347 q 311 295 317 309 q 294 270 304 280 q 237 247 270 247 q 141 301 177 247 q 106 456 106 355 l 106 736 q 168 880 106 827 q 347 935 233 935 q 524 880 459 935 q 587 734 587 827 l 587 273 q 541 168 587 214 l 530 156 q 524 143 524 151 z "},"R":{"ha":808,"x_min":-47,"x_max":845,"o":"m 602 430 q 703 281 703 391 l 703 261 q 774 9 703 103 q 815 -39 795 -19 q 845 -99 845 -71 q 830 -142 845 -126 q 782 -168 806 -168 q 737 -157 758 -168 q 681 -115 715 -147 q 614 -29 646 -83 q 541 288 541 100 q 524 339 541 321 q 462 369 496 369 l 382 369 l 382 66 q 334 -7 382 15 q 302 -13 319 -13 q 271 -6 286 -13 q 245 11 256 0 q 221 66 221 33 l 221 648 q 267 755 221 711 l 279 767 q 285 779 285 773 q 280 792 285 785 q 263 800 276 800 l 186 800 q 140 781 157 800 q 113 719 113 751 l 113 680 q 64 607 113 627 q 32 601 49 601 q 1 607 16 601 q -24 624 -14 613 q -47 680 -47 647 l -47 721 q 12 863 -47 804 q 153 922 71 922 l 505 922 q 644 863 587 922 q 701 721 701 804 l 702 601 q 602 430 703 483 m 382 491 l 461 491 q 511 509 494 491 q 541 572 541 538 l 541 719 q 524 769 541 751 q 461 799 496 800 q 404 776 426 799 q 382 720 382 753 l 382 491 z "},"S":{"ha":696,"x_min":81,"x_max":569,"o":"m 393 675 q 399 681 393 675 q 413 700 404 687 q 422 731 422 713 q 415 764 422 749 q 397 789 409 779 q 341 813 371 813 q 293 804 311 813 q 262 779 275 795 q 233 687 233 745 q 279 552 233 611 q 308 522 292 534 l 462 399 q 556 212 556 320 q 490 60 556 122 q 342 0 427 0 l 246 0 q 203 18 221 0 q 184 54 184 35 q 190 84 184 73 q 203 104 195 96 q 246 123 222 123 l 303 123 q 370 144 345 123 q 395 195 395 165 q 352 281 395 243 l 236 376 q 119 503 153 444 q 81 675 81 570 q 149 867 81 798 q 332 935 214 935 q 506 880 443 935 q 569 728 569 825 q 535 594 569 647 q 445 540 500 540 q 394 556 412 540 q 365 611 365 585 q 374 651 365 638 q 393 675 382 664 z "},"T":{"ha":580,"x_min":-1,"x_max":634,"o":"m 339 648 q 397 767 339 713 q 403 779 403 772 q 398 792 403 785 q 381 800 394 800 l 233 800 q 187 781 203 800 q 160 719 160 751 l 160 680 q 111 607 160 627 q 79 601 96 601 q 48 607 62 601 q 23 624 33 613 q -1 680 -1 647 l -1 721 q 58 863 -1 804 q 200 922 117 922 l 574 922 q 617 904 600 922 q 634 867 634 886 q 629 837 634 848 q 616 817 625 825 q 578 800 599 800 q 545 793 558 800 q 521 776 531 787 q 499 720 499 753 l 499 201 q 441 59 499 117 q 299 0 382 0 l 220 0 q 177 18 195 0 q 159 61 159 35 q 177 104 159 86 q 220 123 195 123 l 259 123 q 310 140 292 123 q 339 202 339 168 l 339 648 z "},"U":{"ha":924,"x_min":43,"x_max":795,"o":"m 651 906 q 660 914 651 906 q 683 929 669 922 q 714 935 698 935 q 746 929 731 935 q 771 911 760 922 q 795 856 795 889 l 795 68 q 777 17 795 35 q 684 -7 733 -28 q 642 33 656 4 q 624 50 633 50 q 609 45 614 50 l 597 33 q 553 1 578 16 q 491 -13 529 -13 q 421 3 454 -13 q 365 46 389 19 q 313 188 313 104 l 313 800 l 281 800 q 232 782 249 800 q 204 719 204 752 l 204 680 q 155 607 204 627 q 123 601 140 601 q 92 607 106 601 q 66 624 77 613 q 43 680 43 646 l 43 721 q 102 863 43 804 q 244 922 161 922 l 392 922 q 443 905 425 922 q 473 842 473 876 l 473 190 q 490 139 473 156 q 553 109 520 109 q 627 151 606 109 q 634 182 634 165 l 634 856 q 651 906 634 889 z "},"V":{"ha":809,"x_min":-43,"x_max":787,"o":"m 117 680 q 68 607 117 627 q 36 601 53 601 q 5 607 20 601 q -20 624 -9 613 q -43 680 -43 647 l -43 721 q 16 863 -43 804 q 157 922 76 922 l 298 922 q 352 906 328 922 q 383 860 377 890 l 449 545 q 461 485 454 521 q 477 406 469 450 q 507 211 496 312 q 561 543 524 377 l 629 860 q 656 902 635 887 q 725 920 695 928 q 771 891 755 913 q 787 850 787 870 q 785 819 787 829 l 591 53 q 561 6 583 24 q 515 -13 539 -13 q 477 -7 491 -13 q 452 7 463 -2 q 421 55 428 26 l 232 800 l 195 800 q 145 782 162 800 q 117 719 117 752 l 117 680 z "},"W":{"ha":1157,"x_min":-37,"x_max":1034,"o":"m 873 854 q 890 905 873 887 q 954 935 919 935 q 1004 918 988 935 q 1034 854 1034 888 l 1033 186 q 970 41 1033 96 q 812 -13 909 -13 q 648 55 705 -13 q 632 63 640 63 q 616 55 624 63 q 451 -13 559 -13 q 294 41 355 -13 q 231 188 231 97 l 231 800 l 201 800 q 152 782 169 800 q 124 719 124 752 l 124 680 q 75 607 124 627 q 43 601 60 601 q 12 607 26 601 q -14 624 -3 613 q -37 680 -37 647 l -37 721 q 23 863 -37 804 q 164 922 83 922 l 312 922 q 362 905 346 922 q 391 840 391 874 l 391 182 q 414 129 391 147 q 470 110 437 110 q 528 128 504 110 q 551 182 551 146 l 551 854 q 568 905 551 887 q 633 935 597 935 q 683 918 667 935 q 712 854 712 888 l 712 182 q 735 128 712 146 q 792 110 758 110 q 849 129 826 110 q 872 182 872 147 l 873 854 z "},"X":{"ha":808,"x_min":-44,"x_max":707,"o":"m 225 328 q 326 477 225 437 q 258 532 275 505 q 225 648 225 582 l 225 800 l 194 800 q 144 782 161 800 q 117 719 117 752 l 117 680 q 67 607 117 627 q 36 601 52 601 q 4 607 19 601 q -20 624 -10 613 q -44 680 -44 647 l -44 721 q 15 863 -44 804 q 157 922 75 922 l 304 922 q 355 905 338 922 q 385 840 385 875 l 385 618 q 402 568 385 585 q 468 538 431 538 q 540 587 519 538 q 547 618 547 602 l 547 854 q 595 929 547 907 q 627 935 610 935 q 659 929 644 935 q 684 911 673 922 q 707 854 707 888 l 707 648 q 647 505 707 553 q 606 477 629 490 q 707 328 707 437 l 707 66 q 659 -7 707 16 q 627 -13 644 -13 q 595 -6 610 -13 q 570 11 581 0 q 547 66 547 33 l 547 336 q 530 387 547 369 q 476 416 501 416 q 435 410 450 416 q 410 393 420 404 q 385 336 385 370 l 385 66 q 336 -7 385 15 q 304 -13 321 -13 q 254 4 271 -13 q 225 66 225 33 l 225 328 z "},"Y":{"ha":923,"x_min":43,"x_max":794,"o":"m 650 906 q 659 914 650 906 q 682 929 667 922 q 713 935 696 935 q 745 929 730 935 q 770 911 760 922 q 794 856 794 889 l 794 201 q 734 59 794 118 q 591 0 674 0 l 471 0 q 428 18 446 0 q 410 61 410 35 q 428 105 410 87 q 471 123 446 123 l 551 123 q 627 171 605 123 q 633 202 633 186 l 633 295 q 626 312 633 308 q 612 317 618 317 q 600 311 605 317 l 588 300 q 481 254 542 254 q 359 313 408 254 q 311 454 311 371 l 311 800 l 281 800 q 232 782 249 800 q 204 719 204 752 l 204 680 q 155 607 204 627 q 123 601 140 601 q 92 607 106 601 q 66 624 77 613 q 43 680 43 647 l 43 721 q 103 863 43 804 q 244 922 163 922 l 391 922 q 441 905 424 922 q 472 842 472 876 l 472 456 q 490 406 472 423 q 544 376 519 376 q 583 381 569 376 q 609 395 597 386 q 633 448 633 416 l 633 856 q 650 906 633 889 z "},"Z":{"ha":696,"x_min":66,"x_max":616,"o":"m 440 0 q 333 46 382 0 l 321 58 q 307 63 315 63 q 288 46 296 63 q 215 0 265 0 q 165 18 181 0 q 135 75 135 48 q 144 119 135 102 l 439 800 l 300 800 q 254 781 271 800 q 227 719 227 751 l 227 680 q 178 607 227 627 q 146 601 163 601 q 115 607 130 601 q 90 624 100 613 q 66 680 66 647 l 66 721 q 125 863 66 804 q 267 922 184 922 l 309 922 q 416 876 367 922 l 429 864 q 442 859 434 859 q 461 876 454 859 q 534 922 484 922 q 585 905 568 922 q 614 846 614 873 q 605 802 614 819 l 310 122 l 555 122 q 612 84 594 122 q 616 54 616 73 q 598 18 616 35 q 555 0 580 0 l 440 0 z "},"[":{"ha":694,"x_min":194,"x_max":500,"o":"m 477 -74 q 484 -81 477 -74 q 495 -99 490 -87 q 500 -129 500 -110 q 483 -166 500 -148 q 440 -184 465 -184 l 254 -184 q 211 -166 229 -184 q 194 -123 194 -148 l 194 983 q 211 1026 194 1008 q 254 1044 229 1044 l 440 1044 q 483 1026 465 1044 q 500 989 500 1008 q 495 959 500 970 q 482 940 490 948 q 440 922 464 922 l 355 922 l 355 -61 l 440 -61 q 477 -74 464 -61 z "},"\\":{"ha":694,"x_min":125,"x_max":570,"o":"m 251 997 q 222 1035 244 1023 q 175 1041 200 1048 q 137 1013 150 1034 q 132 965 125 991 l 444 -198 q 472 -236 450 -223 q 512 -243 494 -248 q 541 -230 531 -238 q 557 -212 551 -222 q 563 -166 570 -189 l 251 997 z "},"]":{"ha":694,"x_min":194,"x_max":500,"o":"m 217 -74 q 210 -81 217 -74 q 199 -99 203 -87 q 194 -129 194 -110 q 211 -166 194 -148 q 254 -184 229 -184 l 439 -184 q 483 -166 465 -184 q 500 -123 500 -148 l 500 983 q 483 1026 500 1008 q 439 1044 465 1044 l 254 1044 q 211 1026 229 1044 q 194 989 194 1008 q 199 959 194 970 q 212 940 203 948 q 254 922 230 922 l 338 922 l 338 -61 l 254 -61 q 217 -74 230 -61 z "},"^":{"ha":694,"x_min":75,"x_max":619,"o":"m 613 496 q 619 469 619 483 q 593 424 619 438 q 566 416 580 416 q 517 442 536 416 l 347 690 l 176 442 q 135 416 157 416 q 100 423 113 416 q 75 469 75 439 q 81 496 75 483 l 250 860 q 344 935 286 935 q 444 860 410 935 l 613 496 z "},"_":{"ha":1038,"x_min":-41,"x_max":1077,"o":"m -1 -171 q -31 -160 -20 -171 q -41 -133 -41 -149 q -30 -106 -41 -117 q -1 -95 -18 -95 l 1038 -95 q 1066 -106 1055 -95 q 1077 -134 1077 -117 q 1065 -160 1077 -150 q 1038 -171 1054 -171 l -1 -171 z "},"`":{"ha":1198,"x_min":405,"x_max":672,"o":"m 661 874 q 672 841 672 859 q 663 814 672 824 q 631 800 648 800 q 597 810 613 800 l 448 915 q 405 991 405 944 q 422 1039 405 1021 q 475 1067 450 1067 q 554 1022 522 1067 l 661 874 z "},"a":{"ha":694,"x_min":106,"x_max":588,"o":"m 165 661 q 203 718 165 702 q 227 723 214 723 l 387 723 q 529 664 470 723 q 588 522 588 605 l 588 66 q 539 -7 588 14 q 507 -14 524 -14 q 476 -8 489 -14 q 455 5 464 -2 q 440 25 448 12 q 429 43 433 37 q 416 50 425 50 q 401 43 407 50 l 391 32 q 284 -14 345 -14 q 159 46 212 -14 q 106 187 106 105 l 106 281 q 165 422 106 363 q 307 481 223 481 l 427 481 l 427 520 q 410 571 427 554 q 347 601 380 601 l 227 601 q 189 614 202 601 q 165 661 165 635 m 267 189 q 283 138 267 154 q 338 109 313 109 q 378 114 363 109 q 404 127 393 119 q 427 178 427 146 l 427 359 l 347 359 q 296 342 313 359 q 267 279 267 313 l 267 189 z "},"b":{"ha":694,"x_min":106,"x_max":588,"o":"m 106 962 q 155 1036 106 1015 q 186 1043 170 1043 q 218 1037 203 1043 q 243 1019 233 1030 q 267 962 267 996 l 267 695 q 274 678 267 682 q 288 673 281 673 q 300 679 294 673 q 317 697 305 685 q 418 737 357 737 q 540 678 490 737 q 588 535 588 619 l 588 200 q 529 59 588 118 q 388 0 470 0 l 187 0 q 136 17 153 0 q 106 81 106 45 l 106 962 m 427 534 q 378 608 427 586 q 339 614 364 614 q 292 593 314 614 q 267 540 269 572 l 267 122 l 347 122 q 398 139 381 122 q 427 203 427 168 l 427 534 z "},"c":{"ha":694,"x_min":106,"x_max":574,"o":"m 421 578 q 350 614 392 614 q 296 597 313 614 q 267 534 267 568 l 267 202 q 283 151 267 168 q 347 123 313 123 l 513 123 q 570 84 553 123 q 574 61 574 73 q 570 37 574 48 q 557 18 565 26 q 513 0 539 0 l 307 0 q 165 59 224 0 q 106 201 106 118 l 106 537 q 165 678 106 625 q 347 736 229 736 q 557 663 505 736 q 574 618 574 641 q 568 581 574 595 q 551 555 562 566 q 499 532 528 532 q 421 578 452 532 z "},"d":{"ha":694,"x_min":106,"x_max":588,"o":"m 588 66 q 539 -7 588 14 q 507 -14 524 -14 q 476 -8 489 -14 q 454 4 463 -3 q 437 25 442 15 q 428 42 432 35 q 416 50 424 50 q 401 43 408 50 l 389 32 q 284 -14 345 -14 q 158 46 211 -14 q 106 187 106 104 l 106 522 q 165 664 106 605 q 307 723 224 723 l 427 723 l 427 963 q 444 1014 427 997 q 507 1043 473 1043 q 559 1026 542 1043 q 588 963 588 997 l 588 66 m 267 181 q 289 128 267 146 q 337 109 312 109 q 377 114 363 109 q 403 127 392 119 q 427 178 427 146 l 427 601 l 347 601 q 296 583 313 601 q 267 520 267 554 l 267 181 z "},"e":{"ha":694,"x_min":106,"x_max":588,"o":"m 467 123 q 510 104 492 123 q 528 61 528 86 q 510 18 528 35 q 467 0 492 0 l 307 0 q 165 59 224 0 q 106 201 106 118 l 106 534 q 168 681 106 626 q 347 736 233 736 q 525 681 460 736 q 588 532 588 625 l 588 342 q 571 292 588 309 q 507 262 542 262 l 267 262 l 267 202 q 283 151 267 168 q 347 123 313 123 l 467 123 m 427 534 q 410 585 427 568 q 347 614 380 614 q 296 597 313 614 q 267 534 267 568 l 267 381 l 427 381 l 427 534 z "},"f":{"ha":576,"x_min":84,"x_max":532,"o":"m 355 66 q 338 16 355 33 q 275 -14 309 -14 q 225 3 243 -14 q 195 66 195 32 l 195 604 l 144 604 q 89 640 105 604 q 84 663 84 651 q 121 718 84 702 q 144 723 132 723 l 195 723 l 195 842 q 254 985 195 926 q 395 1043 312 1043 l 471 1043 q 527 1005 511 1043 q 532 975 532 994 q 514 939 532 956 q 471 922 497 922 l 435 922 q 385 905 403 922 q 355 840 355 874 l 355 723 l 460 723 q 496 710 484 723 q 518 663 518 688 q 483 608 518 625 q 460 604 472 604 l 355 604 l 355 66 z "},"g":{"ha":694,"x_min":106,"x_max":588,"o":"m 588 -121 q 529 -262 588 -204 q 387 -321 469 -321 l 267 -321 q 223 -304 241 -321 q 205 -260 205 -286 q 223 -217 205 -235 q 267 -199 241 -199 l 347 -199 q 397 -182 380 -199 q 427 -119 427 -153 l 427 28 q 419 45 427 41 q 406 50 412 50 q 393 43 399 50 l 382 33 q 276 -14 336 -14 q 155 46 203 -14 q 106 187 106 104 l 106 522 q 165 664 106 605 q 307 723 224 723 l 507 723 q 582 673 560 723 q 588 642 588 659 l 588 -121 m 267 189 q 283 138 267 155 q 338 109 313 109 q 377 114 363 109 q 403 128 391 119 q 427 181 427 149 l 427 601 l 347 601 q 296 583 313 601 q 267 520 267 554 l 267 189 z "},"h":{"ha":694,"x_min":106,"x_max":588,"o":"m 250 16 q 241 8 250 16 q 218 -7 233 -1 q 187 -14 203 -14 q 155 -7 170 -14 q 130 9 140 -1 q 106 66 106 33 l 106 963 q 123 1013 106 996 q 178 1043 153 1043 q 218 1037 203 1043 q 243 1020 233 1031 q 267 963 267 996 l 267 695 q 274 678 267 682 q 288 673 281 673 q 301 680 295 673 l 312 690 q 418 736 358 736 q 540 677 492 736 q 588 536 588 618 l 588 66 q 540 -7 588 14 q 508 -14 525 -14 q 477 -7 492 -14 q 451 9 462 -1 q 427 66 427 33 l 427 534 q 410 585 427 568 q 356 614 380 614 q 317 609 331 614 q 292 595 302 604 q 267 542 267 574 l 267 66 q 250 16 267 33 z "},"i":{"ha":460,"x_min":138,"x_max":321,"o":"m 149 655 q 165 707 149 688 q 230 736 195 736 q 280 719 264 736 q 310 655 310 688 l 310 66 q 293 16 310 33 q 238 -14 263 -14 q 198 -7 213 -14 q 172 9 183 -1 q 149 66 149 33 l 149 655 m 230 1043 q 294 1016 267 1043 q 321 961 321 989 q 314 917 321 933 q 294 888 307 901 q 230 861 267 861 q 165 888 193 861 q 138 943 138 916 q 165 1016 138 989 q 230 1043 193 1043 z "},"j":{"ha":464,"x_min":-31,"x_max":321,"o":"m 149 655 q 166 707 149 689 q 229 736 195 736 q 280 719 264 736 q 309 655 309 689 l 309 -121 q 251 -262 309 -205 q 109 -321 191 -321 l 30 -321 q -26 -285 -9 -321 q -31 -260 -31 -273 q -18 -222 -31 -236 q 30 -199 4 -199 l 69 -199 q 120 -182 103 -199 q 149 -119 149 -153 l 149 655 m 165 886 q 159 892 165 886 q 145 915 153 899 q 138 950 138 931 q 145 985 138 968 q 165 1015 153 1002 q 220 1041 192 1041 q 265 1034 248 1041 q 294 1015 281 1027 q 321 959 321 987 q 314 915 321 931 q 294 886 307 899 q 239 859 267 859 q 194 866 211 859 q 165 886 178 873 z "},"k":{"ha":694,"x_min":106,"x_max":596,"o":"m 466 408 q 587 229 587 359 l 587 66 q 570 16 587 33 q 475 -7 524 -28 q 425 66 425 14 l 425 227 q 408 277 425 260 q 346 307 378 307 l 267 307 l 267 66 q 250 16 267 33 q 195 -14 220 -14 q 155 -7 170 -14 q 130 9 140 -1 q 106 66 106 33 l 106 962 q 123 1013 106 995 q 187 1043 152 1043 q 237 1025 221 1043 q 267 962 267 995 l 267 429 l 316 429 l 444 692 q 473 726 453 714 q 515 738 494 738 q 555 728 536 738 q 585 699 574 718 q 596 657 596 679 q 587 619 596 636 l 466 408 z "},"l":{"ha":460,"x_min":136,"x_max":445,"o":"m 296 202 q 313 151 296 168 q 376 123 343 123 l 383 123 q 422 109 408 123 q 445 67 445 86 q 440 37 445 48 q 427 18 435 26 q 383 0 408 0 l 336 0 q 195 59 254 0 q 136 201 136 118 l 136 963 q 153 1014 136 997 q 216 1043 182 1043 q 267 1026 250 1043 q 296 963 296 997 l 296 202 z "},"m":{"ha":1041,"x_min":119,"x_max":922,"o":"m 262 16 q 253 8 262 16 q 230 -7 245 -1 q 199 -14 216 -14 q 168 -7 182 -14 q 142 9 153 -1 q 119 66 119 33 l 119 655 q 136 707 119 688 q 191 736 165 736 q 230 731 217 736 q 252 718 243 726 q 269 696 263 707 q 278 679 275 684 q 291 673 282 673 q 305 679 299 673 l 317 690 q 416 736 366 736 q 560 665 503 736 q 574 657 566 657 q 603 679 588 657 q 650 719 617 701 q 726 736 682 736 q 805 721 769 736 q 867 677 840 705 q 922 536 922 618 l 922 66 q 873 -7 922 14 q 842 -14 859 -14 q 811 -7 825 -14 q 785 9 796 -1 q 762 66 762 34 l 762 534 q 745 585 762 568 q 690 614 715 614 q 651 608 665 614 q 625 590 637 602 q 602 535 602 566 l 602 66 q 553 -7 602 14 q 522 -14 538 -14 q 490 -7 505 -14 q 465 9 475 -1 q 441 66 441 33 l 441 534 q 424 585 441 568 q 361 614 394 614 q 286 572 307 614 q 279 542 279 559 l 279 66 q 262 16 279 33 z "},"n":{"ha":694,"x_min":106,"x_max":588,"o":"m 249 16 q 241 8 249 16 q 217 -7 232 -1 q 186 -14 203 -14 q 155 -7 170 -14 q 130 9 140 -1 q 106 66 106 33 l 106 655 q 123 707 106 688 q 178 736 152 736 q 217 731 204 736 q 238 718 229 725 q 256 695 251 707 q 265 679 261 684 q 278 673 269 673 q 292 679 286 673 q 309 697 297 685 q 398 736 350 736 q 479 721 447 736 q 536 677 512 705 q 588 536 588 618 l 588 66 q 540 -7 588 14 q 508 -14 525 -14 q 477 -7 492 -14 q 451 9 462 -1 q 427 66 427 33 l 427 534 q 411 585 427 567 q 349 614 382 614 q 273 572 294 614 q 267 542 267 559 l 267 66 q 249 16 267 33 z "},"o":{"ha":694,"x_min":106,"x_max":588,"o":"m 106 537 q 168 682 106 629 q 347 736 233 736 q 525 682 460 736 q 588 536 588 628 l 588 185 q 450 0 588 43 q 348 -14 405 -14 q 245 0 290 -14 q 170 41 201 14 q 106 187 106 94 l 106 537 m 427 534 q 410 585 427 568 q 347 614 380 614 q 296 597 313 614 q 267 534 267 568 l 267 181 q 290 128 267 146 q 347 109 313 109 q 404 128 381 109 q 427 181 427 146 l 427 534 z "},"p":{"ha":694,"x_min":106,"x_max":588,"o":"m 106 655 q 123 707 106 689 q 178 736 151 736 q 217 731 204 736 q 239 718 230 725 q 255 696 250 709 q 265 679 260 684 q 277 673 269 673 q 291 679 286 673 q 309 697 296 685 q 398 736 349 736 q 478 721 446 736 q 535 677 511 705 q 588 536 588 618 l 588 201 q 529 59 588 117 q 387 0 469 0 l 267 0 l 267 -241 q 250 -292 267 -275 q 186 -321 220 -321 q 135 -304 152 -321 q 106 -241 106 -275 l 106 655 m 427 542 q 404 595 427 575 q 356 614 381 614 q 316 609 330 614 q 290 595 301 604 q 267 545 267 575 l 267 123 l 347 123 q 397 140 380 123 q 427 202 427 168 l 427 542 z "},"q":{"ha":694,"x_min":106,"x_max":588,"o":"m 571 -292 q 562 -301 571 -292 q 538 -315 553 -309 q 507 -321 524 -321 q 476 -315 490 -321 q 450 -298 461 -309 q 427 -241 427 -275 l 427 28 q 419 45 427 41 q 406 50 412 50 q 393 43 399 50 l 382 33 q 276 -14 336 -14 q 155 46 203 -14 q 106 187 106 104 l 106 522 q 165 664 106 605 q 307 723 224 723 l 507 723 q 582 673 560 723 q 588 642 588 659 l 588 -241 q 571 -292 588 -275 m 267 189 q 283 138 267 155 q 338 109 313 109 q 377 114 363 109 q 403 128 391 119 q 427 181 427 149 l 427 601 l 347 601 q 296 583 313 601 q 267 520 267 554 l 267 189 z "},"r":{"ha":578,"x_min":113,"x_max":517,"o":"m 420 736 q 454 732 437 736 q 484 717 470 727 q 517 651 517 693 q 499 600 517 617 q 442 571 469 571 q 380 593 408 571 q 332 607 359 607 q 289 590 304 607 q 273 546 273 572 l 273 66 q 256 16 273 34 q 201 -14 226 -14 q 162 -7 176 -14 q 136 10 147 -1 q 113 66 113 34 l 113 655 q 130 707 113 688 q 185 736 159 736 q 224 731 211 736 q 245 718 237 725 q 263 695 258 707 q 272 679 269 684 q 284 673 276 673 q 298 679 293 673 l 311 690 q 420 736 363 736 z "},"s":{"ha":694,"x_min":110,"x_max":597,"o":"m 195 0 q 151 18 170 0 q 133 54 133 35 q 138 84 133 73 q 152 104 143 96 q 195 123 170 123 l 345 123 q 411 146 386 123 q 436 204 436 170 q 417 260 436 239 q 370 290 398 281 l 248 324 q 148 395 185 343 q 110 505 110 447 q 127 602 110 564 q 174 667 144 640 q 323 723 234 723 l 488 723 q 531 705 514 723 q 548 661 548 687 q 531 618 548 635 q 488 601 514 601 l 336 601 q 282 581 301 601 q 262 532 262 560 q 311 467 262 489 l 444 429 q 586 293 551 393 q 597 215 597 259 q 579 131 597 171 q 532 62 562 91 q 383 0 469 0 l 195 0 z "},"t":{"ha":576,"x_min":34,"x_max":515,"o":"m 455 123 q 498 104 481 123 q 515 61 515 86 q 498 18 515 35 q 455 0 481 0 l 374 0 q 232 59 291 0 q 174 201 174 117 l 174 604 l 94 604 q 39 640 55 604 q 34 663 34 651 q 71 718 34 702 q 94 723 81 723 l 174 723 l 174 864 q 222 939 174 918 q 254 945 237 945 q 304 928 287 945 q 334 864 334 899 l 334 723 l 456 723 q 493 710 480 723 q 515 664 515 688 q 498 621 515 639 q 456 604 481 604 l 334 604 l 334 202 q 351 152 334 168 q 414 123 381 123 l 455 123 z "},"u":{"ha":694,"x_min":106,"x_max":588,"o":"m 445 707 q 453 715 445 707 q 476 730 462 724 q 508 736 491 736 q 539 730 524 736 q 564 713 553 724 q 588 657 588 690 l 588 68 q 571 16 588 35 q 516 -14 542 -14 q 477 -8 490 -14 q 456 5 464 -2 q 438 27 443 16 q 429 44 433 39 q 416 50 425 50 q 402 44 408 50 q 385 26 397 38 q 295 -14 344 -14 q 214 2 247 -14 q 157 46 182 18 q 106 187 106 105 l 106 657 q 155 730 106 709 q 185 736 169 736 q 217 730 202 736 q 243 713 232 724 q 267 657 267 690 l 267 189 q 283 138 267 155 q 346 109 313 109 q 420 151 399 109 q 427 181 427 164 l 427 657 q 445 707 427 690 z "},"v":{"ha":694,"x_min":68,"x_max":626,"o":"m 71 641 q 68 663 68 650 q 74 690 68 676 q 89 713 79 703 q 131 736 109 736 q 166 732 153 736 q 190 722 179 728 q 220 680 214 705 l 260 528 q 277 467 267 502 l 300 388 q 349 184 331 277 q 373 293 361 241 q 414 460 403 418 l 474 680 q 527 732 482 718 q 554 736 540 736 q 583 730 569 736 q 606 713 596 724 q 626 669 626 690 q 623 641 626 649 l 432 53 q 402 6 424 25 q 356 -14 380 -14 q 318 -8 332 -14 q 293 7 304 -3 q 262 55 271 26 l 71 641 z "},"w":{"ha":1041,"x_min":119,"x_max":922,"o":"m 762 655 q 779 707 762 688 q 843 736 808 736 q 893 719 877 736 q 922 655 922 689 l 922 185 q 860 40 922 95 q 702 -14 798 -14 q 536 54 592 -14 q 505 54 519 69 q 340 -14 448 -14 q 182 41 244 -14 q 119 187 119 96 l 119 655 q 136 707 119 688 q 200 736 165 736 q 250 719 234 736 q 279 655 279 689 l 279 181 q 302 128 279 146 q 359 109 326 109 q 416 127 393 109 q 440 181 440 145 l 440 654 q 457 706 440 688 q 522 736 486 736 q 572 719 555 736 q 601 654 601 688 l 601 181 q 624 127 601 145 q 682 109 648 109 q 739 128 715 109 q 762 181 762 146 l 762 655 z "},"x":{"ha":694,"x_min":106,"x_max":587,"o":"m 106 232 q 207 381 106 340 q 139 436 157 408 q 106 552 106 486 l 106 655 q 123 707 106 689 q 186 736 152 736 q 237 719 220 736 q 267 655 267 690 l 267 522 q 283 471 267 489 q 349 442 311 442 q 420 491 399 442 q 427 522 427 505 l 427 655 q 476 730 427 709 q 508 736 490 736 q 539 730 525 736 q 564 713 553 724 q 587 655 587 690 l 587 552 q 528 408 587 457 q 487 381 509 393 q 587 232 587 340 l 587 66 q 570 16 587 33 q 516 -14 541 -14 q 476 -7 490 -14 q 450 9 461 -1 q 427 66 427 33 l 427 239 q 411 290 427 273 q 356 320 382 320 q 316 314 331 320 q 290 297 301 308 q 267 239 267 275 l 267 66 q 250 16 267 33 q 186 -14 220 -14 q 135 3 151 -14 q 106 66 106 33 l 106 232 z "},"y":{"ha":694,"x_min":106,"x_max":588,"o":"m 444 707 q 453 715 444 707 q 476 730 461 724 q 507 736 490 736 q 538 730 524 736 q 564 713 553 724 q 588 657 588 690 l 588 -121 q 529 -262 588 -204 q 386 -321 469 -321 l 266 -321 q 222 -304 240 -321 q 204 -260 204 -286 q 222 -217 204 -235 q 266 -199 240 -199 l 346 -199 q 397 -182 380 -199 q 427 -119 427 -153 l 427 28 q 419 45 427 41 q 406 50 412 50 q 393 43 399 50 l 382 33 q 275 -14 336 -14 q 154 46 202 -14 q 106 187 106 105 l 106 657 q 155 730 106 709 q 185 736 169 736 q 217 730 202 736 q 243 713 232 724 q 267 657 267 690 l 267 189 q 283 138 267 156 q 337 109 312 109 q 377 114 362 109 q 403 128 391 119 q 427 181 427 149 l 427 657 q 444 707 427 690 z "},"z":{"ha":579,"x_min":46,"x_max":516,"o":"m 54 661 q 92 718 54 702 q 116 723 103 723 l 432 723 q 492 699 468 723 q 516 649 516 675 q 505 604 516 623 l 230 123 l 454 123 q 492 109 479 123 q 516 60 516 85 q 498 18 516 35 q 454 0 479 0 l 128 0 q 52 50 73 0 q 46 76 46 64 q 58 119 46 100 l 332 601 l 116 601 q 77 614 91 601 q 54 661 54 635 z "},"{":{"ha":694,"x_min":114,"x_max":580,"o":"m 114 430 q 114 444 114 430 q 131 476 114 458 q 167 497 149 494 q 197 506 185 500 q 218 522 209 512 q 241 578 241 546 l 241 736 q 304 948 241 863 q 496 1043 374 1043 l 519 1043 q 562 1025 544 1043 q 580 988 580 1007 q 575 959 580 970 q 562 939 570 947 q 520 921 543 921 q 476 910 497 921 q 439 878 456 899 q 401 743 401 830 l 401 601 q 342 457 401 506 q 301 430 323 442 q 368 375 350 404 q 401 259 401 324 l 401 116 q 476 -51 401 -12 q 514 -62 497 -62 q 542 -67 531 -62 q 562 -80 553 -72 q 580 -122 580 -97 q 562 -166 580 -148 q 519 -184 544 -184 l 496 -184 q 304 -89 374 -184 q 241 123 241 -4 l 241 282 q 225 331 241 314 q 174 362 200 357 q 131 384 149 367 q 114 430 114 401 z "},"|":{"ha":460,"x_min":168,"x_max":291,"o":"m 181 1020 q 188 1027 181 1020 q 206 1038 195 1034 q 230 1043 217 1043 q 253 1038 242 1043 q 273 1025 264 1034 q 291 983 291 1008 l 291 -184 q 278 -221 291 -208 q 236 -243 255 -243 q 206 -239 217 -243 q 186 -226 195 -234 q 168 -184 168 -209 l 168 983 q 181 1020 168 1007 z "},"}":{"ha":694,"x_min":114,"x_max":580,"o":"m 580 430 q 580 444 580 430 q 563 476 580 458 q 527 497 545 494 q 497 506 509 500 q 475 522 485 512 q 453 578 453 546 l 453 736 q 390 948 453 863 q 198 1043 320 1043 l 175 1043 q 132 1025 150 1043 q 114 988 114 1007 q 119 959 114 970 q 132 939 123 947 q 174 921 151 921 q 217 910 197 921 q 255 878 238 899 q 292 743 292 830 l 292 601 q 352 457 292 506 q 393 430 370 442 q 326 375 344 404 q 292 259 292 324 l 292 116 q 218 -51 292 -12 q 180 -62 197 -62 q 152 -67 163 -62 q 132 -80 140 -72 q 114 -122 114 -97 q 132 -166 114 -148 q 175 -184 150 -184 l 198 -184 q 390 -89 320 -184 q 453 123 453 -4 l 453 282 q 469 331 453 314 q 519 362 494 357 q 563 384 545 367 q 580 430 580 401 z "},"~":{"ha":694,"x_min":79,"x_max":615,"o":"m 531 399 q 568 411 546 411 q 602 398 589 411 q 615 365 615 385 q 598 323 615 345 q 562 279 582 301 q 519 242 542 258 q 409 208 469 208 q 269 280 334 208 l 258 292 q 244 298 252 298 q 214 280 235 298 l 163 241 q 125 229 148 229 q 92 242 104 229 q 79 275 79 255 q 95 318 79 296 q 131 361 111 340 q 174 399 151 383 q 285 432 223 432 q 396 388 347 432 q 420 364 411 374 l 437 349 q 450 342 442 342 q 480 360 458 342 l 531 399 z "},"":{"ha":273,"x_min":0,"x_max":0,"o":""},"":{"ha":348,"x_min":64,"x_max":286,"o":"m 279 120 q 228 -2 286 31 q 177 -14 207 -14 q 126 -2 147 -14 q 91 28 104 9 q 68 120 64 65 l 109 568 q 130 613 111 594 q 176 631 149 631 q 220 613 203 631 q 241 568 238 595 l 279 120 m 176 753 q 111 780 138 753 q 84 836 84 808 q 92 880 84 863 q 111 909 99 896 q 176 935 138 935 q 240 909 213 935 q 267 853 267 881 q 240 781 267 808 q 176 753 213 753 z "},"":{"ha":694,"x_min":119,"x_max":574,"o":"m 422 667 l 422 213 l 513 213 q 570 175 553 213 q 574 151 574 163 q 570 127 574 138 q 557 108 565 116 q 513 90 539 90 l 422 90 l 422 41 q 411 11 422 23 q 384 0 400 -1 q 357 11 368 0 q 346 39 346 22 l 346 90 l 320 90 q 178 149 237 90 q 119 291 119 208 l 119 627 q 175 765 119 712 q 346 827 235 823 l 346 883 q 357 910 346 899 q 385 922 368 922 q 411 910 401 922 q 422 884 422 899 l 422 822 q 533 781 491 812 q 574 703 574 749 q 557 652 574 669 q 491 623 528 623 q 422 667 453 623 m 280 292 q 299 240 280 262 q 346 214 317 219 l 346 703 q 299 676 317 698 q 280 624 280 654 l 280 292 z "},"":{"ha":694,"x_min":68,"x_max":626,"o":"m 307 140 q 326 119 307 119 l 568 119 q 621 83 605 119 q 626 60 626 72 q 590 5 626 21 q 568 0 580 0 l 130 0 q 86 18 104 0 q 68 61 68 35 q 86 104 68 86 q 125 123 104 123 q 161 129 146 123 q 186 145 176 135 q 210 202 210 168 l 210 412 l 136 412 q 105 423 117 412 q 94 450 94 434 q 105 477 94 467 q 134 488 117 488 l 210 488 l 210 721 q 269 863 210 804 q 410 922 328 922 l 488 922 q 545 884 528 922 q 549 854 549 873 q 532 817 549 835 q 488 800 514 800 l 451 800 q 400 783 417 800 q 370 719 370 753 l 370 488 l 503 488 q 531 477 519 488 q 542 450 542 466 q 531 423 542 433 q 504 412 519 412 l 370 412 l 370 270 q 324 164 370 210 l 313 153 q 307 140 307 147 z "},"":{"ha":694,"x_min":-13,"x_max":707,"o":"m 154 711 q 346 770 217 770 q 540 711 474 770 l 641 812 q 669 824 653 824 q 695 813 684 824 q 707 786 707 802 q 693 757 707 770 l 585 648 q 600 562 600 609 l 600 363 q 586 278 600 315 l 693 171 q 707 142 707 158 q 695 115 707 125 q 669 104 684 104 q 641 116 653 104 l 543 214 q 350 156 481 156 q 155 218 219 156 l 53 116 q 25 104 41 104 q -2 115 9 104 q -13 142 -13 125 q 1 171 -13 158 l 112 283 q 98 364 98 316 l 98 562 q 111 645 98 609 l 1 757 q -13 786 -13 770 q -2 813 -13 802 q 25 824 9 824 q 53 812 41 824 l 154 711 m 441 525 q 425 608 441 585 q 344 648 397 648 q 262 575 273 648 q 258 525 258 553 l 258 401 q 273 317 258 340 q 355 277 301 277 q 437 350 425 277 q 441 401 441 373 l 441 525 z "},"":{"ha":694,"x_min":88,"x_max":606,"o":"m 265 236 l 130 236 q 100 247 112 236 q 89 274 88 258 q 100 301 89 290 q 128 312 111 312 l 258 312 l 235 382 l 130 382 q 100 393 112 382 q 89 420 88 404 q 100 447 89 436 q 128 458 111 458 l 211 458 l 93 826 q 89 850 89 842 q 94 872 89 859 q 109 897 99 886 q 159 922 130 922 q 212 906 189 922 q 242 865 235 890 l 275 747 q 347 416 317 600 q 418 747 378 610 l 453 865 q 507 918 465 904 q 534 922 519 922 q 563 915 549 922 q 586 897 576 907 q 606 856 606 874 q 602 826 606 838 l 482 458 l 567 458 q 594 447 583 458 q 606 419 606 435 q 594 392 606 403 q 568 382 583 382 l 457 382 l 435 312 l 567 312 q 594 301 583 312 q 606 273 606 290 q 594 247 606 257 q 568 236 583 236 l 427 236 l 427 66 q 410 16 427 34 q 355 -13 380 -13 q 315 -6 330 -13 q 289 11 300 0 q 265 66 265 33 l 265 236 z "},"":{"ha":460,"x_min":168,"x_max":291,"o":"m 181 1020 q 188 1027 181 1020 q 206 1038 195 1034 q 230 1043 217 1043 q 253 1038 242 1043 q 273 1025 264 1034 q 291 983 291 1008 l 291 529 q 278 492 291 505 q 236 469 255 469 q 206 474 217 469 q 186 487 195 479 q 168 529 168 504 l 168 983 q 181 1020 168 1007 m 181 308 q 188 314 181 308 q 206 326 195 321 q 230 330 217 330 q 253 326 242 330 q 273 313 264 321 q 291 271 291 296 l 291 -184 q 278 -221 291 -208 q 236 -243 255 -243 q 206 -239 217 -243 q 186 -226 195 -234 q 168 -184 168 -209 l 168 271 q 181 308 168 294 z "},"":{"ha":694,"x_min":102,"x_max":591,"o":"m 490 219 q 577 50 577 162 q 513 -100 577 -41 q 364 -156 453 -156 l 212 -156 q 170 -138 186 -156 q 153 -94 153 -120 q 170 -51 153 -68 q 212 -34 186 -34 l 351 -34 q 405 -14 386 -34 q 425 35 425 7 q 376 100 425 84 l 257 138 q 144 221 185 161 q 102 348 102 279 q 204 547 102 479 q 117 715 117 604 q 180 865 117 806 q 330 922 241 922 l 481 922 q 524 904 507 922 q 541 860 541 886 q 524 817 541 834 q 481 800 507 800 l 342 800 q 289 779 308 800 q 269 731 269 759 q 317 666 269 682 l 437 627 q 579 488 545 591 q 591 410 591 452 q 490 219 591 288 m 249 382 q 278 307 249 338 q 347 276 306 276 q 416 307 388 276 q 445 382 445 338 q 416 457 445 426 q 347 488 387 488 q 278 457 307 488 q 249 382 249 426 z "},"":{"ha":1150,"x_min":349,"x_max":800,"o":"m 440 980 q 505 954 477 980 q 532 898 532 926 q 524 854 532 870 q 505 825 517 838 q 440 798 477 798 q 376 825 403 798 q 349 880 349 852 q 376 953 349 926 q 440 980 403 980 m 644 825 q 638 831 644 825 q 624 854 631 838 q 617 889 617 870 q 624 924 617 907 q 644 954 631 941 q 699 980 671 980 q 744 973 727 980 q 773 954 760 966 q 800 898 800 926 q 792 854 800 870 q 773 825 785 838 q 718 798 746 798 q 673 805 690 798 q 644 825 656 812 z "},"":{"ha":1152,"x_min":195,"x_max":956,"o":"m 956 245 q 859 58 956 127 q 581 -13 759 -13 q 297 58 400 -13 q 195 247 195 127 l 195 663 q 293 850 195 781 q 570 921 392 921 q 854 850 751 921 q 956 661 956 781 l 956 245 m 871 661 q 792 802 871 750 q 568 854 711 854 q 355 802 431 854 q 280 663 280 751 l 280 247 q 359 106 280 158 q 583 54 441 54 q 852 167 792 54 q 871 245 871 202 l 871 661 m 629 600 q 589 625 614 625 q 548 608 564 625 q 532 570 532 592 l 532 342 q 548 304 532 320 q 587 288 564 288 l 692 288 q 722 275 710 288 q 734 246 734 263 q 722 216 734 229 q 692 204 710 204 l 559 204 q 463 244 503 204 q 422 341 422 285 l 422 572 q 463 669 422 631 q 587 708 507 708 q 682 691 652 708 q 734 623 734 662 q 719 585 734 601 q 682 568 703 568 q 629 600 652 568 z "},"":{"ha":573,"x_min":127,"x_max":431,"o":"m 182 285 q 152 296 164 285 q 141 323 140 307 q 152 350 141 339 q 180 361 163 361 l 378 360 q 406 349 395 360 q 417 322 418 338 q 406 295 417 306 q 379 285 395 285 l 182 285 m 204 846 q 176 857 188 846 q 165 884 165 868 q 176 911 165 900 q 204 922 188 922 l 305 922 q 394 885 357 922 q 431 796 431 848 l 431 509 q 417 473 431 488 q 386 458 402 458 q 361 462 369 458 q 348 471 353 466 q 339 480 342 475 q 335 488 336 486 q 323 498 330 498 q 307 487 318 498 q 248 458 278 458 q 197 469 217 458 q 161 496 176 479 q 127 585 127 534 l 127 644 q 164 733 127 696 q 254 770 201 770 l 330 770 l 330 795 q 316 831 330 817 q 279 846 301 846 l 204 846 m 229 586 q 243 550 229 565 q 279 536 258 536 q 315 547 300 536 q 330 579 330 559 l 330 694 l 279 694 q 243 679 258 694 q 229 643 229 665 l 229 586 z "},"":{"ha":1040,"x_min":182,"x_max":817,"o":"m 220 295 q 182 357 182 329 q 194 401 182 386 q 220 429 205 416 l 420 631 q 453 645 435 645 q 482 635 470 645 q 496 603 496 621 q 487 572 496 585 l 349 362 l 487 153 q 496 127 496 140 q 483 92 496 104 q 453 79 470 79 q 420 93 435 79 l 220 295 m 540 295 q 503 357 503 329 q 514 401 503 386 q 540 429 525 416 l 741 631 q 773 645 755 645 q 802 635 790 645 q 817 603 817 621 q 807 572 817 585 l 669 362 l 807 153 q 817 127 817 140 q 803 92 817 104 q 773 79 790 79 q 741 93 755 79 l 540 295 z "},"":{"ha":694,"x_min":71,"x_max":623,"o":"m 609 166 q 603 159 609 166 q 585 148 596 153 q 561 143 574 143 q 537 148 549 143 q 518 161 526 153 q 500 203 500 178 l 500 356 l 130 356 q 94 369 106 356 q 71 411 71 392 q 75 441 71 430 q 88 461 80 452 q 130 479 105 479 l 563 479 q 600 465 587 479 q 623 418 623 443 l 623 203 q 609 166 623 179 z "},"":{"ha":864,"x_min":156,"x_max":708,"o":"m 685 513 q 692 506 685 513 q 703 489 699 500 q 708 465 708 477 q 703 441 708 452 q 690 422 699 430 q 648 404 673 404 l 216 404 q 179 416 192 404 q 156 458 156 439 q 161 489 156 477 q 174 509 165 500 q 216 526 191 526 l 648 526 q 685 513 672 526 z "},"":{"ha":1152,"x_min":195,"x_max":956,"o":"m 682 444 q 751 341 751 415 l 751 258 q 734 220 751 235 q 695 204 718 204 q 656 220 672 204 q 640 258 640 235 l 640 347 q 624 386 640 370 q 586 401 608 401 l 532 401 l 532 258 q 516 220 532 235 q 477 204 500 204 q 438 220 454 204 q 422 258 422 235 l 422 654 q 438 692 422 676 q 477 709 454 709 l 587 709 q 708 672 665 709 q 751 572 751 635 l 751 560 q 682 444 751 479 m 532 485 l 586 485 q 625 500 609 485 q 641 540 641 516 l 641 570 q 625 609 641 593 q 586 625 609 625 l 532 625 l 532 485 m 956 245 q 859 58 956 127 q 581 -13 759 -13 q 297 58 400 -13 q 195 247 195 127 l 195 663 q 293 850 195 781 q 570 921 392 921 q 854 850 751 921 q 956 661 956 781 l 956 245 m 871 661 q 792 802 871 750 q 568 854 711 854 q 355 802 431 854 q 280 663 280 751 l 280 247 q 359 106 280 158 q 583 54 441 54 q 852 167 792 54 q 871 245 871 202 l 871 661 z "},"":{"ha":1013,"x_min":378,"x_max":770,"o":"m 748 945 q 754 938 748 945 q 766 921 761 932 q 770 897 770 909 q 766 873 770 884 q 753 853 761 862 q 711 836 736 836 l 437 836 q 400 849 414 836 q 378 890 378 871 q 382 921 378 909 q 395 940 387 932 q 437 958 412 958 l 711 958 q 748 945 734 958 z "},"":{"ha":573,"x_min":107,"x_max":466,"o":"m 288 577 q 160 630 214 577 q 107 755 107 682 q 160 882 107 830 q 288 936 215 936 q 414 882 360 936 q 466 755 466 830 q 414 629 466 682 q 288 577 361 577 m 342 810 q 337 815 342 810 q 317 827 332 821 q 287 833 303 833 q 256 827 271 833 q 232 811 242 821 q 209 764 209 788 q 215 726 209 740 q 233 701 222 712 q 279 679 256 679 q 317 685 302 679 q 342 703 331 692 q 366 748 366 726 q 360 785 366 771 q 342 810 353 800 z "},"":{"ha":694,"x_min":71,"x_max":623,"o":"m 394 406 q 388 399 394 406 q 370 388 381 393 q 346 383 359 383 q 322 388 334 383 q 302 401 311 393 q 285 443 285 418 l 285 590 l 130 590 q 94 604 106 590 q 71 645 71 626 q 75 675 71 664 q 88 694 80 686 q 130 713 105 713 l 285 713 l 285 854 q 298 891 285 878 q 340 913 321 913 q 370 909 359 913 q 389 896 381 904 q 408 854 408 879 l 408 713 l 563 713 q 600 700 587 713 q 623 658 623 677 q 618 628 623 639 q 605 608 613 616 q 563 590 588 590 l 408 590 l 408 443 q 394 406 408 419 m 600 215 q 606 208 600 215 q 618 190 613 201 q 623 166 623 179 q 618 143 623 154 q 605 123 613 132 q 563 105 588 105 l 130 105 q 94 118 106 105 q 71 160 71 141 q 75 190 71 179 q 88 210 80 201 q 130 228 105 228 l 563 228 q 600 215 587 228 z "},"":{"ha":573,"x_min":96,"x_max":476,"o":"m 320 922 q 438 880 395 922 q 476 791 476 844 q 447 703 476 739 q 370 642 418 668 l 277 591 q 235 547 243 573 l 431 547 q 463 533 449 547 q 476 499 476 519 q 463 466 476 479 q 430 452 449 452 l 159 452 q 101 490 117 452 q 96 522 96 501 q 100 564 96 542 q 117 605 104 585 q 216 684 142 642 l 319 745 q 349 788 349 762 q 339 814 349 802 q 309 826 328 826 l 161 826 q 128 840 142 826 q 115 873 115 854 q 128 907 115 893 q 161 922 142 922 l 320 922 z "},"":{"ha":573,"x_min":96,"x_max":476,"o":"m 118 499 q 132 533 118 519 q 165 547 146 547 l 286 547 q 331 563 313 547 q 349 606 349 578 l 349 648 q 336 680 349 671 q 297 696 315 696 q 270 693 279 696 q 254 686 262 690 q 219 677 235 677 q 193 688 203 677 q 182 711 182 699 q 197 745 182 733 l 292 826 l 144 826 q 110 840 123 826 q 96 873 96 854 q 110 907 96 893 q 144 922 123 922 l 437 922 q 465 910 454 922 q 476 886 476 899 q 461 853 476 864 l 333 747 q 369 752 347 752 q 411 745 391 752 q 445 724 431 737 q 476 650 476 695 l 476 608 q 427 494 476 536 q 286 452 378 452 l 165 452 q 132 466 146 452 q 118 499 118 479 z "},"":{"ha":903,"x_min":393,"x_max":661,"o":"m 511 1022 q 587 1067 544 1067 q 632 1050 615 1067 q 661 996 661 1021 q 618 915 661 944 l 469 810 q 439 800 452 800 q 405 812 416 800 q 393 841 393 824 q 405 874 393 859 l 511 1022 z "},"":{"ha":694,"x_min":106,"x_max":760,"o":"m 288 50 q 267 30 267 50 l 267 -218 q 250 -269 267 -251 q 195 -298 220 -298 q 155 -291 170 -298 q 130 -274 140 -285 q 106 -218 106 -252 l 106 657 q 123 707 106 690 q 178 736 153 736 q 218 730 203 736 q 243 713 233 724 q 267 657 267 690 l 267 181 q 317 114 267 132 q 347 109 331 109 q 397 126 380 109 q 427 189 427 156 l 427 657 q 445 707 427 690 q 499 736 474 736 q 539 730 525 736 q 565 713 554 724 q 588 657 588 691 l 588 188 q 606 139 588 157 q 668 109 636 109 l 701 109 q 755 71 739 109 q 760 41 760 60 q 743 4 760 22 q 690 -14 726 -14 q 573 52 618 -14 q 552 66 564 66 q 534 56 541 66 q 411 -14 479 -14 q 312 33 356 -14 l 301 43 q 288 50 295 50 z "},"":{"ha":865,"x_min":119,"x_max":857,"o":"m 119 721 q 174 863 119 805 q 311 922 229 922 l 795 921 q 852 883 836 921 q 857 860 857 872 q 852 836 857 847 q 838 817 847 825 q 795 799 820 799 l 786 799 l 786 -119 q 773 -156 786 -142 q 731 -178 750 -178 q 701 -174 712 -178 q 681 -161 690 -169 q 663 -119 663 -144 l 663 799 l 508 799 l 508 -119 q 495 -156 508 -142 q 453 -178 472 -178 q 423 -174 434 -178 q 403 -161 412 -169 q 385 -119 385 -144 l 385 127 q 378 145 385 140 q 364 149 371 149 q 351 144 357 149 q 326 118 337 129 q 305 100 315 106 q 251 86 283 86 q 194 102 218 86 q 153 145 170 118 q 119 287 119 201 l 119 721 z "},"":{"ha":348,"x_min":83,"x_max":266,"o":"m 174 510 q 239 483 212 510 q 266 428 266 456 q 258 384 266 400 q 239 355 251 368 q 174 328 212 328 q 110 355 137 328 q 83 410 83 382 q 110 483 83 456 q 174 510 137 510 z "},"":{"ha":832,"x_min":222,"x_max":519,"o":"m 328 -138 q 298 -127 310 -138 q 287 -100 287 -117 q 296 -62 287 -84 l 330 16 l 421 16 l 387 -62 q 486 -98 450 -62 q 519 -180 519 -129 q 435 -288 519 -260 q 369 -297 407 -297 l 260 -297 q 233 -286 244 -297 q 222 -259 222 -275 q 233 -232 222 -243 q 260 -220 244 -220 l 342 -220 q 377 -208 363 -220 q 391 -179 391 -195 q 378 -150 391 -162 q 346 -138 365 -138 l 328 -138 z "},"":{"ha":573,"x_min":144,"x_max":347,"o":"m 144 873 q 157 907 144 893 q 191 922 171 922 l 300 922 q 334 908 320 922 q 347 874 347 894 l 347 500 q 309 443 347 458 q 278 438 298 438 q 239 456 258 438 q 221 500 221 475 l 221 826 l 191 826 q 157 840 171 826 q 144 873 144 854 z "},"":{"ha":573,"x_min":128,"x_max":433,"o":"m 189 285 q 158 296 170 285 q 147 323 146 307 q 158 350 147 339 q 186 361 170 361 l 385 361 q 412 350 401 361 q 423 322 423 338 q 412 295 423 306 q 385 285 401 285 l 189 285 m 128 806 q 216 922 128 895 q 280 931 244 931 q 345 922 317 931 q 393 897 373 913 q 433 805 433 863 l 433 583 q 346 467 433 494 q 281 458 317 458 q 217 467 245 458 q 169 492 189 475 q 128 585 128 526 l 128 806 m 332 804 q 301 850 332 837 q 281 854 292 854 q 249 844 260 854 q 230 804 230 826 l 230 581 q 244 547 230 559 q 281 536 259 536 q 317 547 302 536 q 332 581 332 559 l 332 804 z "},"":{"ha":1040,"x_min":197,"x_max":831,"o":"m 473 295 q 511 357 511 329 q 499 401 511 386 q 473 429 488 416 l 273 631 q 240 645 258 645 q 211 635 223 645 q 197 603 197 621 q 206 572 197 585 l 345 362 l 206 153 q 197 127 197 140 q 210 92 197 104 q 240 79 223 79 q 273 93 258 79 l 473 295 m 793 295 q 831 357 831 329 q 820 401 831 386 q 793 429 808 416 l 593 631 q 561 645 578 645 q 531 635 543 645 q 517 603 517 621 q 526 572 517 585 l 665 362 l 526 153 q 517 127 517 140 q 530 92 517 104 q 561 79 543 79 q 593 93 578 79 l 793 295 z "},"":{"ha":1144,"x_min":127,"x_max":1086,"o":"m 669 923 q 726 961 686 961 q 779 933 761 961 q 789 903 789 918 q 783 875 789 888 l 406 -13 q 351 -50 391 -50 q 298 -22 316 -50 q 288 10 288 -5 q 292 35 288 25 l 669 923 m 1086 124 q 1072 91 1086 104 q 1039 77 1059 77 l 1008 77 l 1008 36 q 990 -8 1008 10 q 952 -26 972 -26 q 920 -22 932 -26 q 901 -8 909 -17 q 882 36 882 9 l 882 77 l 685 77 q 646 99 659 77 q 642 142 632 121 l 768 448 q 790 473 774 463 q 820 484 805 484 q 852 477 836 484 q 879 454 869 471 q 888 422 888 437 q 883 397 888 408 l 772 172 l 882 172 l 882 258 q 920 315 882 298 q 944 320 931 320 q 969 315 958 320 q 989 302 981 311 q 1008 258 1008 285 l 1008 172 l 1039 172 q 1072 158 1058 172 q 1086 124 1086 144 m 127 873 q 141 907 127 893 q 174 922 155 922 l 283 922 q 317 908 304 922 q 331 874 331 894 l 331 500 q 293 443 331 458 q 261 438 281 438 q 223 456 241 438 q 205 500 205 475 l 205 826 l 174 826 q 141 840 155 826 q 127 873 127 854 z "},"":{"ha":1144,"x_min":127,"x_max":1072,"o":"m 127 873 q 141 907 127 893 q 174 922 155 922 l 283 922 q 317 908 304 922 q 331 874 331 894 l 331 500 q 293 443 331 458 q 261 438 281 438 q 223 456 241 438 q 205 500 205 475 l 205 826 l 174 826 q 141 840 155 826 q 127 873 127 854 m 916 470 q 1034 429 991 470 q 1072 339 1072 392 q 1043 252 1072 287 q 965 190 1014 216 l 873 140 q 831 96 839 121 l 1026 96 q 1058 81 1044 96 q 1072 47 1072 67 q 1058 14 1072 28 q 1025 0 1044 0 l 754 0 q 696 38 712 0 q 692 70 692 50 q 696 112 692 90 q 713 153 700 134 q 811 233 737 190 l 914 293 q 945 336 945 310 q 934 362 945 350 q 904 374 924 374 l 757 374 q 724 388 737 374 q 710 422 710 402 q 724 456 710 441 q 757 470 737 470 l 916 470 m 669 923 q 726 961 686 961 q 779 933 761 961 q 789 903 789 918 q 783 875 789 888 l 406 -13 q 351 -50 391 -50 q 298 -22 316 -50 q 288 10 288 -5 q 292 35 288 25 l 669 923 z "},"":{"ha":1144,"x_min":50,"x_max":1086,"o":"m 71 499 q 85 533 71 519 q 119 547 99 547 l 239 547 q 284 563 266 547 q 302 606 302 578 l 302 648 q 289 680 302 671 q 250 696 268 696 q 223 693 232 696 q 208 686 215 690 q 172 677 188 677 q 146 688 157 677 q 135 711 135 699 q 150 745 135 733 l 245 826 l 97 826 q 63 840 77 826 q 50 873 50 854 q 63 907 50 893 q 97 922 77 922 l 391 922 q 418 910 407 922 q 429 886 429 899 q 414 853 429 864 l 286 747 q 322 752 300 752 q 364 745 345 752 q 399 724 384 737 q 429 650 429 695 l 429 608 q 380 494 429 536 q 239 452 331 452 l 119 452 q 85 466 99 452 q 71 499 71 479 m 669 923 q 726 961 686 961 q 779 933 761 961 q 789 903 789 918 q 783 875 789 888 l 406 -13 q 351 -50 391 -50 q 298 -22 316 -50 q 288 10 288 -5 q 292 35 288 25 l 669 923 m 1086 124 q 1072 91 1086 104 q 1039 77 1059 77 l 1008 77 l 1008 36 q 990 -8 1008 10 q 952 -26 972 -26 q 920 -22 932 -26 q 901 -8 909 -17 q 882 36 882 9 l 882 77 l 685 77 q 646 99 659 77 q 642 142 632 121 l 768 448 q 790 473 774 463 q 820 484 805 484 q 852 477 836 484 q 879 454 869 471 q 888 422 888 437 q 883 397 888 408 l 772 172 l 882 172 l 882 258 q 920 315 882 298 q 944 320 931 320 q 969 315 958 320 q 989 302 981 311 q 1008 258 1008 285 l 1008 172 l 1039 172 q 1072 158 1058 172 q 1086 124 1086 144 z "},"":{"ha":696,"x_min":87,"x_max":562,"o":"m 477 515 q 331 305 477 385 l 289 283 q 247 218 247 261 l 247 203 q 264 152 247 170 q 328 122 294 122 l 501 122 q 539 109 525 122 q 562 61 562 87 q 544 18 562 36 q 501 0 526 0 l 326 0 q 149 54 214 0 q 87 201 87 108 l 87 224 q 227 412 87 336 l 258 430 q 317 495 300 454 q 323 524 323 509 l 323 542 q 340 589 323 573 q 392 617 368 617 q 430 611 416 617 q 454 595 444 605 q 477 542 477 572 l 477 515 m 401 752 q 336 779 363 752 q 309 834 309 806 q 317 878 309 862 q 336 907 324 895 q 401 934 363 934 q 465 907 438 934 q 492 852 492 880 q 465 779 492 806 q 401 752 438 752 z "},"":{"ha":809,"x_min":-43,"x_max":708,"o":"m 290 779 q 270 799 290 799 l 191 799 q 145 781 161 799 q 118 719 118 751 l 118 680 q 68 607 118 627 q 37 601 54 601 q 6 607 20 601 q -19 624 -9 613 q -43 680 -43 647 l -43 721 q 16 863 -43 804 q 158 922 75 922 l 467 922 q 644 867 580 922 q 708 721 708 813 l 708 66 q 659 -7 708 15 q 628 -13 645 -13 q 597 -6 612 -13 q 571 11 582 0 q 547 66 547 33 l 547 294 l 387 294 l 387 66 q 369 16 387 34 q 315 -13 340 -13 q 275 -6 290 -13 q 249 11 260 0 q 226 66 226 33 l 226 294 l 177 294 q 140 307 153 294 q 117 355 117 330 q 135 398 117 380 q 177 416 152 416 l 226 416 l 226 648 q 283 766 226 712 q 290 779 290 772 m 387 416 l 547 416 l 547 718 q 530 769 547 752 q 475 799 500 799 q 435 792 450 799 q 410 775 420 786 q 387 719 387 752 l 387 416 m 549 1086 q 561 1054 561 1071 q 552 1027 561 1036 q 519 1012 537 1012 q 486 1023 502 1012 l 336 1127 q 294 1204 294 1156 q 311 1251 294 1234 q 364 1279 339 1279 q 443 1234 410 1279 l 549 1086 z "},"":{"ha":809,"x_min":-43,"x_max":708,"o":"m 290 779 q 270 799 290 799 l 191 799 q 145 781 161 799 q 118 719 118 751 l 118 680 q 68 607 118 627 q 37 601 54 601 q 6 607 20 601 q -19 624 -9 613 q -43 680 -43 647 l -43 721 q 16 863 -43 804 q 158 922 75 922 l 467 922 q 644 867 580 922 q 708 721 708 813 l 708 66 q 659 -7 708 15 q 628 -13 645 -13 q 597 -6 612 -13 q 571 11 582 0 q 547 66 547 33 l 547 294 l 387 294 l 387 66 q 369 16 387 34 q 315 -13 340 -13 q 275 -6 290 -13 q 249 11 260 0 q 226 66 226 33 l 226 294 l 177 294 q 140 307 153 294 q 117 355 117 330 q 135 398 117 380 q 177 416 152 416 l 226 416 l 226 648 q 283 766 226 712 q 290 779 290 772 m 387 416 l 547 416 l 547 718 q 530 769 547 752 q 475 799 500 799 q 435 792 450 799 q 410 775 420 786 q 387 719 387 752 l 387 416 m 492 1234 q 568 1279 525 1279 q 613 1261 596 1279 q 642 1208 642 1234 q 599 1127 642 1156 l 450 1023 q 420 1012 433 1012 q 386 1024 397 1012 q 374 1054 374 1036 q 386 1086 374 1071 l 492 1234 z "},"":{"ha":809,"x_min":-43,"x_max":708,"o":"m 290 779 q 270 799 290 799 l 191 799 q 145 781 161 799 q 118 719 118 751 l 118 680 q 68 607 118 627 q 37 601 54 601 q 6 607 20 601 q -19 624 -9 613 q -43 680 -43 647 l -43 721 q 16 863 -43 804 q 158 922 75 922 l 467 922 q 644 867 580 922 q 708 721 708 813 l 708 66 q 659 -7 708 15 q 628 -13 645 -13 q 597 -6 612 -13 q 571 11 582 0 q 547 66 547 33 l 547 294 l 387 294 l 387 66 q 369 16 387 34 q 315 -13 340 -13 q 275 -6 290 -13 q 249 11 260 0 q 226 66 226 33 l 226 294 l 177 294 q 140 307 153 294 q 117 355 117 330 q 135 398 117 380 q 177 416 152 416 l 226 416 l 226 648 q 283 766 226 712 q 290 779 290 772 m 387 416 l 547 416 l 547 718 q 530 769 547 752 q 475 799 500 799 q 435 792 450 799 q 410 775 420 786 q 387 719 387 752 l 387 416 m 625 1084 q 633 1053 633 1068 q 622 1025 633 1038 q 597 1013 610 1013 q 556 1026 570 1013 l 467 1117 l 378 1026 q 345 1013 365 1013 q 313 1025 324 1013 q 301 1053 301 1038 q 310 1084 301 1068 l 391 1229 q 468 1280 420 1280 q 543 1229 512 1280 l 625 1084 z "},"":{"ha":809,"x_min":-43,"x_max":708,"o":"m 290 779 q 270 799 290 799 l 191 799 q 145 781 161 799 q 118 719 118 751 l 118 680 q 68 607 118 627 q 37 601 54 601 q 6 607 20 601 q -19 624 -9 613 q -43 680 -43 647 l -43 721 q 16 863 -43 804 q 158 922 75 922 l 467 922 q 644 867 580 922 q 708 721 708 813 l 708 66 q 659 -7 708 15 q 628 -13 645 -13 q 597 -6 612 -13 q 571 11 582 0 q 547 66 547 33 l 547 294 l 387 294 l 387 66 q 369 16 387 34 q 315 -13 340 -13 q 275 -6 290 -13 q 249 11 260 0 q 226 66 226 33 l 226 294 l 177 294 q 140 307 153 294 q 117 355 117 330 q 135 398 117 380 q 177 416 152 416 l 226 416 l 226 648 q 283 766 226 712 q 290 779 290 772 m 387 416 l 547 416 l 547 718 q 530 769 547 752 q 475 799 500 799 q 435 792 450 799 q 410 775 420 786 q 387 719 387 752 l 387 416 m 626 1198 q 657 1210 640 1210 q 685 1198 674 1210 q 696 1168 696 1185 q 683 1130 696 1150 q 652 1090 669 1109 q 616 1055 635 1070 q 530 1025 575 1025 q 458 1044 486 1025 q 416 1080 430 1064 l 399 1101 q 388 1106 394 1106 q 362 1090 380 1106 l 320 1055 q 289 1044 307 1044 q 261 1056 272 1044 q 250 1086 250 1068 q 263 1124 250 1103 q 293 1164 277 1144 q 330 1198 310 1184 q 421 1229 371 1229 q 514 1188 475 1229 l 538 1163 q 548 1153 543 1158 q 558 1147 552 1147 q 584 1163 566 1147 l 626 1198 z "},"":{"ha":809,"x_min":-43,"x_max":708,"o":"m 290 779 q 270 799 290 799 l 191 799 q 145 781 161 799 q 118 719 118 751 l 118 680 q 68 607 118 627 q 37 601 54 601 q 6 607 20 601 q -19 624 -9 613 q -43 680 -43 647 l -43 721 q 16 863 -43 804 q 158 922 75 922 l 467 922 q 644 867 580 922 q 708 721 708 813 l 708 66 q 659 -7 708 15 q 628 -13 645 -13 q 597 -6 612 -13 q 571 11 582 0 q 547 66 547 33 l 547 294 l 387 294 l 387 66 q 369 16 387 34 q 315 -13 340 -13 q 275 -6 290 -13 q 249 11 260 0 q 226 66 226 33 l 226 294 l 177 294 q 140 307 153 294 q 117 355 117 330 q 135 398 117 380 q 177 416 152 416 l 226 416 l 226 648 q 283 766 226 712 q 290 779 290 772 m 387 416 l 547 416 l 547 718 q 530 769 547 752 q 475 799 500 799 q 435 792 450 799 q 410 775 420 786 q 387 719 387 752 l 387 416 m 323 1206 q 387 1179 361 1206 q 415 1124 415 1152 q 408 1080 415 1096 q 387 1051 400 1063 q 323 1024 361 1024 q 260 1051 286 1024 q 232 1105 232 1078 q 259 1179 232 1152 q 323 1206 286 1206 m 541 1051 q 535 1057 541 1051 q 521 1080 528 1063 q 514 1115 514 1096 q 521 1150 514 1133 q 541 1179 528 1166 q 596 1206 568 1206 q 641 1199 624 1206 q 669 1179 657 1192 q 696 1124 696 1152 q 689 1080 696 1096 q 669 1051 682 1063 q 615 1024 643 1024 q 570 1031 587 1024 q 541 1051 553 1038 z "},"":{"ha":809,"x_min":-43,"x_max":708,"o":"m 290 779 q 270 799 290 799 l 191 799 q 145 781 161 799 q 118 719 118 751 l 118 680 q 68 607 118 627 q 37 601 54 601 q 6 607 20 601 q -19 624 -9 613 q -43 680 -43 647 l -43 721 q 16 863 -43 804 q 158 922 75 922 l 467 922 q 644 867 580 922 q 708 721 708 813 l 708 66 q 659 -7 708 15 q 628 -13 645 -13 q 597 -6 612 -13 q 571 11 582 0 q 547 66 547 33 l 547 294 l 387 294 l 387 66 q 369 16 387 34 q 315 -13 340 -13 q 275 -6 290 -13 q 249 11 260 0 q 226 66 226 33 l 226 294 l 177 294 q 140 307 153 294 q 117 355 117 330 q 135 398 117 380 q 177 416 152 416 l 226 416 l 226 648 q 283 766 226 712 q 290 779 290 772 m 387 416 l 547 416 l 547 718 q 530 769 547 752 q 475 799 500 799 q 435 792 450 799 q 410 775 420 786 q 387 719 387 752 l 387 416 m 467 1007 q 410 1019 437 1007 q 361 1050 382 1031 q 317 1156 317 1094 q 361 1261 317 1217 q 467 1305 408 1305 q 573 1261 529 1305 q 616 1156 616 1217 q 573 1050 616 1093 q 467 1007 530 1007 m 513 1201 q 508 1205 513 1201 q 492 1215 504 1210 q 459 1221 480 1221 q 420 1202 439 1221 q 401 1163 401 1183 q 407 1131 401 1143 q 421 1110 412 1119 q 460 1091 441 1091 q 491 1097 479 1091 q 512 1111 503 1102 q 532 1149 532 1130 q 527 1180 532 1168 q 513 1201 522 1192 z "},"":{"ha":1122,"x_min":71,"x_max":1121,"o":"m 403 779 q 383 799 403 799 l 304 799 q 258 781 274 799 q 231 719 231 751 l 231 680 q 182 607 231 627 q 150 601 167 601 q 119 607 134 601 q 94 624 104 613 q 71 680 71 647 l 71 721 q 130 863 71 804 q 271 922 189 922 l 560 922 q 725 854 668 922 q 741 846 732 846 q 756 854 749 846 q 922 922 812 922 l 1060 922 q 1116 884 1101 922 q 1121 861 1121 873 q 1116 837 1121 848 q 1103 818 1112 826 q 1060 799 1086 799 l 901 799 q 845 781 869 799 q 821 727 821 763 l 821 452 l 1000 452 q 1043 435 1025 452 q 1060 392 1060 417 q 1043 348 1060 366 q 1000 330 1025 330 l 821 330 l 821 202 q 838 151 821 168 q 901 123 868 123 l 1060 123 q 1116 84 1100 123 q 1121 61 1121 73 q 1116 37 1121 48 q 1103 18 1112 26 q 1060 0 1086 0 l 861 0 q 720 59 779 0 q 661 201 661 118 l 661 330 l 500 330 l 500 66 q 483 16 500 34 q 428 -13 453 -13 q 388 -6 403 -13 q 362 11 373 0 q 339 66 339 33 l 339 330 l 290 330 q 254 343 267 330 q 231 391 231 366 q 248 434 231 416 q 290 452 265 452 l 339 452 l 339 648 q 397 766 339 712 q 403 779 403 772 m 500 452 l 661 452 l 661 718 q 644 769 661 752 q 588 799 614 799 q 548 792 563 799 q 523 775 534 786 q 500 719 500 752 l 500 452 z "},"":{"ha":696,"x_min":106,"x_max":594,"o":"m 282 -138 q 252 -127 264 -138 q 241 -100 241 -117 q 250 -62 241 -84 l 275 -6 q 150 60 193 9 q 106 188 106 110 l 106 736 q 168 880 106 827 q 347 935 233 935 q 529 880 463 935 q 594 735 594 827 q 521 542 594 592 q 476 526 498 526 q 438 532 453 526 q 413 549 424 538 q 390 599 390 571 q 399 641 390 627 q 418 669 408 656 q 447 727 447 704 q 440 764 447 749 q 421 789 433 779 q 354 813 395 813 q 290 790 313 813 q 267 732 267 766 l 267 182 q 289 129 267 147 q 346 110 312 110 q 404 129 380 110 q 427 182 427 147 l 427 226 q 444 277 427 260 q 498 306 473 306 q 538 300 523 306 q 564 283 553 294 q 587 226 587 259 l 587 186 q 458 4 587 49 q 363 -12 416 -10 l 341 -62 q 439 -98 404 -62 q 473 -180 473 -129 q 389 -288 473 -260 q 323 -297 361 -297 l 214 -297 q 187 -286 198 -297 q 176 -259 176 -275 q 187 -232 176 -243 q 214 -220 198 -220 l 296 -220 q 331 -208 317 -220 q 345 -179 345 -195 q 332 -150 345 -162 q 300 -138 319 -138 l 282 -138 z "},"":{"ha":694,"x_min":103,"x_max":600,"o":"m 353 935 q 457 922 411 935 q 534 882 503 908 q 600 735 600 828 q 526 542 600 592 q 481 526 504 526 q 444 532 458 526 q 418 549 429 538 q 395 599 395 571 q 404 641 395 627 q 424 669 413 656 q 452 737 452 704 q 427 791 452 770 q 359 812 401 812 q 290 794 316 812 q 263 741 263 775 l 263 532 q 280 481 263 499 q 342 452 309 452 l 355 452 q 398 434 380 452 q 415 390 415 416 q 398 347 415 365 q 359 330 380 330 q 323 323 338 330 q 298 307 309 317 q 275 250 275 283 l 275 202 q 292 151 275 168 q 355 122 321 122 q 401 138 385 122 q 429 193 429 168 q 435 232 429 217 q 452 257 441 246 q 509 281 476 281 q 559 263 542 281 q 589 194 589 234 q 573 118 589 155 q 527 54 557 81 q 355 0 465 0 q 176 54 241 0 q 114 199 114 108 l 114 220 q 171 361 114 312 q 210 388 188 376 q 127 449 151 411 q 103 540 103 486 l 103 734 q 169 881 103 827 q 353 935 235 935 m 437 1086 q 448 1054 448 1071 q 439 1027 448 1036 q 407 1012 425 1012 q 373 1023 389 1012 l 224 1127 q 181 1204 181 1156 q 198 1251 181 1234 q 252 1279 227 1279 q 330 1234 298 1279 l 437 1086 z "},"":{"ha":694,"x_min":103,"x_max":600,"o":"m 353 935 q 457 922 411 935 q 534 882 503 908 q 600 735 600 828 q 526 542 600 592 q 481 526 504 526 q 444 532 458 526 q 418 549 429 538 q 395 599 395 571 q 404 641 395 627 q 424 669 413 656 q 452 737 452 704 q 427 791 452 770 q 359 812 401 812 q 290 794 316 812 q 263 741 263 775 l 263 532 q 280 481 263 499 q 342 452 309 452 l 355 452 q 398 434 380 452 q 415 390 415 416 q 398 347 415 365 q 359 330 380 330 q 323 323 338 330 q 298 307 309 317 q 275 250 275 283 l 275 202 q 292 151 275 168 q 355 122 321 122 q 401 138 385 122 q 429 193 429 168 q 435 232 429 217 q 452 257 441 246 q 509 281 476 281 q 559 263 542 281 q 589 194 589 234 q 573 118 589 155 q 527 54 557 81 q 355 0 465 0 q 176 54 241 0 q 114 199 114 108 l 114 220 q 171 361 114 312 q 210 388 188 376 q 127 449 151 411 q 103 540 103 486 l 103 734 q 169 881 103 827 q 353 935 235 935 m 380 1234 q 455 1279 412 1279 q 500 1261 484 1279 q 529 1208 529 1234 q 486 1127 529 1156 l 337 1023 q 308 1012 321 1012 q 273 1024 285 1012 q 262 1054 262 1036 q 273 1086 262 1071 l 380 1234 z "},"":{"ha":694,"x_min":103,"x_max":600,"o":"m 353 935 q 457 922 411 935 q 534 882 503 908 q 600 735 600 828 q 526 542 600 592 q 481 526 504 526 q 444 532 458 526 q 418 549 429 538 q 395 599 395 571 q 404 641 395 627 q 424 669 413 656 q 452 737 452 704 q 427 791 452 770 q 359 812 401 812 q 290 794 316 812 q 263 741 263 775 l 263 532 q 280 481 263 499 q 342 452 309 452 l 355 452 q 398 434 380 452 q 415 390 415 416 q 398 347 415 365 q 359 330 380 330 q 323 323 338 330 q 298 307 309 317 q 275 250 275 283 l 275 202 q 292 151 275 168 q 355 122 321 122 q 401 138 385 122 q 429 193 429 168 q 435 232 429 217 q 452 257 441 246 q 509 281 476 281 q 559 263 542 281 q 589 194 589 234 q 573 118 589 155 q 527 54 557 81 q 355 0 465 0 q 176 54 241 0 q 114 199 114 108 l 114 220 q 171 361 114 312 q 210 388 188 376 q 127 449 151 411 q 103 540 103 486 l 103 734 q 169 881 103 827 q 353 935 235 935 m 512 1084 q 521 1053 521 1068 q 509 1025 521 1038 q 484 1013 498 1013 q 444 1026 457 1013 l 355 1117 l 266 1026 q 232 1013 252 1013 q 200 1025 212 1013 q 189 1053 189 1038 q 197 1084 189 1068 l 279 1229 q 355 1280 307 1280 q 431 1229 399 1280 l 512 1084 z "},"":{"ha":694,"x_min":103,"x_max":600,"o":"m 353 935 q 457 922 411 935 q 534 882 503 908 q 600 735 600 828 q 526 542 600 592 q 481 526 504 526 q 444 532 458 526 q 418 549 429 538 q 395 599 395 571 q 404 641 395 627 q 424 669 413 656 q 452 737 452 704 q 427 791 452 770 q 359 812 401 812 q 290 794 316 812 q 263 741 263 775 l 263 532 q 280 481 263 499 q 342 452 309 452 l 355 452 q 398 434 380 452 q 415 390 415 416 q 398 347 415 365 q 359 330 380 330 q 323 323 338 330 q 298 307 309 317 q 275 250 275 283 l 275 202 q 292 151 275 168 q 355 122 321 122 q 401 138 385 122 q 429 193 429 168 q 435 232 429 217 q 452 257 441 246 q 509 281 476 281 q 559 263 542 281 q 589 194 589 234 q 573 118 589 155 q 527 54 557 81 q 355 0 465 0 q 176 54 241 0 q 114 199 114 108 l 114 220 q 171 361 114 312 q 210 388 188 376 q 127 449 151 411 q 103 540 103 486 l 103 734 q 169 881 103 827 q 353 935 235 935 m 211 1206 q 275 1179 248 1206 q 302 1124 302 1152 q 295 1080 302 1096 q 275 1051 288 1063 q 211 1024 248 1024 q 147 1051 174 1024 q 119 1105 119 1078 q 146 1179 119 1152 q 211 1206 174 1206 m 428 1051 q 422 1057 428 1051 q 409 1080 416 1063 q 401 1115 401 1096 q 409 1150 401 1133 q 428 1179 416 1166 q 483 1206 455 1206 q 528 1199 511 1206 q 557 1179 545 1192 q 584 1124 584 1152 q 577 1080 584 1096 q 557 1051 570 1063 q 502 1024 530 1024 q 457 1031 474 1024 q 428 1051 441 1038 z "},"":{"ha":580,"x_min":20,"x_max":449,"o":"m 181 680 q 132 607 181 627 q 100 601 117 601 q 69 607 83 601 q 43 624 54 613 q 20 680 20 647 l 20 721 q 80 863 20 804 q 221 922 140 922 l 369 922 q 419 905 402 922 q 449 840 449 875 l 449 201 q 391 59 449 117 q 249 0 332 0 l 170 0 q 127 18 144 0 q 109 61 109 35 q 127 104 109 86 q 170 123 144 123 l 209 123 q 260 140 242 123 q 289 202 289 168 l 289 800 l 258 800 q 209 782 226 800 q 181 719 181 752 l 181 680 m 428 1086 q 439 1054 439 1071 q 431 1027 439 1036 q 398 1012 416 1012 q 364 1023 380 1012 l 215 1127 q 172 1204 172 1156 q 189 1251 172 1234 q 243 1279 218 1279 q 321 1234 289 1279 l 428 1086 z "},"":{"ha":580,"x_min":20,"x_max":520,"o":"m 181 680 q 132 607 181 627 q 100 601 117 601 q 69 607 83 601 q 43 624 54 613 q 20 680 20 647 l 20 721 q 80 863 20 804 q 221 922 140 922 l 369 922 q 419 905 402 922 q 449 840 449 875 l 449 201 q 391 59 449 117 q 249 0 332 0 l 170 0 q 127 18 144 0 q 109 61 109 35 q 127 104 109 86 q 170 123 144 123 l 209 123 q 260 140 242 123 q 289 202 289 168 l 289 800 l 258 800 q 209 782 226 800 q 181 719 181 752 l 181 680 m 371 1234 q 446 1279 404 1279 q 492 1261 475 1279 q 520 1208 520 1234 q 477 1127 520 1156 l 328 1023 q 299 1012 312 1012 q 264 1024 276 1012 q 253 1054 253 1036 q 264 1086 253 1071 l 371 1234 z "},"":{"ha":580,"x_min":20,"x_max":512,"o":"m 181 680 q 132 607 181 627 q 100 601 117 601 q 69 607 83 601 q 43 624 54 613 q 20 680 20 647 l 20 721 q 80 863 20 804 q 221 922 140 922 l 369 922 q 419 905 402 922 q 449 840 449 875 l 449 201 q 391 59 449 117 q 249 0 332 0 l 170 0 q 127 18 144 0 q 109 61 109 35 q 127 104 109 86 q 170 123 144 123 l 209 123 q 260 140 242 123 q 289 202 289 168 l 289 800 l 258 800 q 209 782 226 800 q 181 719 181 752 l 181 680 m 503 1084 q 512 1053 512 1068 q 500 1025 512 1038 q 475 1013 489 1013 q 435 1026 448 1013 l 346 1117 l 257 1026 q 223 1013 243 1013 q 191 1025 203 1013 q 180 1053 180 1038 q 189 1084 180 1068 l 270 1229 q 347 1280 298 1280 q 422 1229 391 1280 l 503 1084 z "},"":{"ha":580,"x_min":20,"x_max":575,"o":"m 181 680 q 132 607 181 627 q 100 601 117 601 q 69 607 83 601 q 43 624 54 613 q 20 680 20 647 l 20 721 q 80 863 20 804 q 221 922 140 922 l 369 922 q 419 905 402 922 q 449 840 449 875 l 449 201 q 391 59 449 117 q 249 0 332 0 l 170 0 q 127 18 144 0 q 109 61 109 35 q 127 104 109 86 q 170 123 144 123 l 209 123 q 260 140 242 123 q 289 202 289 168 l 289 800 l 258 800 q 209 782 226 800 q 181 719 181 752 l 181 680 m 202 1206 q 266 1179 239 1206 q 294 1124 294 1152 q 286 1080 294 1096 q 266 1051 279 1063 q 202 1024 239 1024 q 138 1051 165 1024 q 111 1105 111 1078 q 138 1179 111 1152 q 202 1206 165 1206 m 419 1051 q 413 1057 419 1051 q 400 1080 407 1063 q 393 1115 393 1096 q 400 1150 393 1133 q 419 1179 407 1166 q 474 1206 446 1206 q 519 1199 503 1206 q 548 1179 536 1192 q 575 1124 575 1152 q 568 1080 575 1096 q 548 1051 561 1063 q 493 1024 522 1024 q 449 1031 465 1024 q 419 1051 432 1038 z "},"":{"ha":896,"x_min":41,"x_max":790,"o":"m 201 680 q 152 607 201 627 q 120 601 137 601 q 89 607 104 601 q 64 624 75 613 q 41 680 41 646 l 41 721 q 100 863 41 804 q 241 922 159 922 l 590 922 q 732 863 673 922 q 790 721 790 804 l 790 201 q 732 59 790 117 q 590 0 673 0 l 220 0 q 181 13 195 0 q 158 54 158 35 q 163 84 158 73 q 176 104 168 96 q 220 123 195 123 l 309 123 l 309 379 l 223 379 q 193 390 205 379 q 181 417 181 401 q 193 444 182 433 q 221 455 204 455 l 309 455 l 309 648 q 368 767 309 713 q 373 779 373 772 q 369 792 373 785 q 351 800 364 800 l 275 800 q 229 781 245 800 q 201 719 201 751 l 201 680 m 470 379 l 470 123 l 551 123 q 624 171 602 123 q 630 202 630 185 l 630 719 q 613 769 630 751 q 551 800 584 800 l 544 800 q 491 775 512 798 q 470 720 470 753 l 470 455 l 511 455 q 538 444 527 455 q 549 416 549 433 q 538 390 549 400 q 511 379 527 379 l 470 379 z "},"":{"ha":809,"x_min":-31,"x_max":709,"o":"m 130 680 q 81 607 130 627 q 49 601 66 601 q 18 607 33 601 q -7 624 3 613 q -31 680 -31 647 l -31 721 q 28 863 -31 804 q 170 922 89 922 l 306 922 q 370 888 346 922 q 390 872 380 872 q 404 878 399 872 l 416 889 q 530 935 466 935 q 656 876 604 935 q 708 734 708 818 l 709 66 q 661 -7 709 15 q 629 -13 646 -13 q 597 -6 612 -13 q 572 11 583 0 q 548 66 548 33 l 547 732 q 530 783 547 766 q 468 813 500 813 q 418 798 435 813 q 386 737 386 769 l 386 201 q 328 59 386 117 q 186 0 269 0 l 127 0 q 84 18 102 0 q 66 61 66 35 q 84 104 66 86 q 127 123 102 123 l 146 123 q 197 140 179 123 q 226 202 226 168 l 226 800 l 208 800 q 159 781 175 798 q 130 719 130 751 l 130 680 m 627 1198 q 658 1210 641 1210 q 687 1198 675 1210 q 698 1168 698 1185 q 684 1130 698 1150 q 653 1090 670 1109 q 617 1055 637 1070 q 532 1025 576 1025 q 459 1044 487 1025 q 418 1080 431 1064 l 400 1101 q 389 1106 395 1106 q 363 1090 382 1106 l 321 1055 q 291 1044 308 1044 q 262 1056 273 1044 q 251 1086 251 1068 q 264 1124 251 1103 q 295 1164 278 1144 q 331 1198 311 1184 q 422 1229 372 1229 q 515 1188 476 1229 l 539 1163 q 549 1153 545 1158 q 559 1147 553 1147 q 585 1163 567 1147 l 627 1198 z "},"":{"ha":693,"x_min":99,"x_max":587,"o":"m 272 789 q 266 784 272 789 q 253 764 260 779 q 246 730 246 749 q 255 697 246 711 q 275 669 264 682 q 303 611 303 634 q 297 574 303 589 q 280 549 291 559 q 225 526 256 526 q 172 542 195 526 q 133 585 149 557 q 99 735 99 642 q 164 880 99 827 q 347 935 230 935 q 525 880 460 935 q 587 736 587 827 l 587 188 q 524 41 587 95 q 347 -13 460 -13 q 168 41 233 -13 q 106 186 106 93 l 106 407 q 123 457 106 440 q 178 487 153 487 q 218 481 203 487 q 243 464 233 475 q 267 407 267 441 l 267 182 q 290 129 267 147 q 347 110 313 110 q 404 129 381 110 q 427 182 427 147 l 427 732 q 403 790 427 766 q 350 813 380 813 q 302 807 319 813 q 272 789 284 800 m 462 1086 q 473 1054 473 1071 q 465 1027 473 1036 q 432 1012 450 1012 q 398 1023 414 1012 l 249 1127 q 206 1204 206 1156 q 223 1251 206 1234 q 277 1279 252 1279 q 355 1234 323 1279 l 462 1086 z "},"":{"ha":693,"x_min":99,"x_max":587,"o":"m 272 789 q 266 784 272 789 q 253 764 260 779 q 246 730 246 749 q 255 697 246 711 q 275 669 264 682 q 303 611 303 634 q 297 574 303 589 q 280 549 291 559 q 225 526 256 526 q 172 542 195 526 q 133 585 149 557 q 99 735 99 642 q 164 880 99 827 q 347 935 230 935 q 525 880 460 935 q 587 736 587 827 l 587 188 q 524 41 587 95 q 347 -13 460 -13 q 168 41 233 -13 q 106 186 106 93 l 106 407 q 123 457 106 440 q 178 487 153 487 q 218 481 203 487 q 243 464 233 475 q 267 407 267 441 l 267 182 q 290 129 267 147 q 347 110 313 110 q 404 129 381 110 q 427 182 427 147 l 427 732 q 403 790 427 766 q 350 813 380 813 q 302 807 319 813 q 272 789 284 800 m 405 1234 q 480 1279 437 1279 q 526 1261 509 1279 q 554 1208 554 1234 q 511 1127 554 1156 l 362 1023 q 333 1012 346 1012 q 298 1024 310 1012 q 287 1054 287 1036 q 298 1086 287 1071 l 405 1234 z "},"":{"ha":693,"x_min":99,"x_max":587,"o":"m 272 789 q 266 784 272 789 q 253 764 260 779 q 246 730 246 749 q 255 697 246 711 q 275 669 264 682 q 303 611 303 634 q 297 574 303 589 q 280 549 291 559 q 225 526 256 526 q 172 542 195 526 q 133 585 149 557 q 99 735 99 642 q 164 880 99 827 q 347 935 230 935 q 525 880 460 935 q 587 736 587 827 l 587 188 q 524 41 587 95 q 347 -13 460 -13 q 168 41 233 -13 q 106 186 106 93 l 106 407 q 123 457 106 440 q 178 487 153 487 q 218 481 203 487 q 243 464 233 475 q 267 407 267 441 l 267 182 q 290 129 267 147 q 347 110 313 110 q 404 129 381 110 q 427 182 427 147 l 427 732 q 403 790 427 766 q 350 813 380 813 q 302 807 319 813 q 272 789 284 800 m 537 1084 q 546 1053 546 1068 q 534 1025 546 1038 q 509 1013 523 1013 q 469 1026 482 1013 l 380 1117 l 291 1026 q 257 1013 277 1013 q 225 1025 237 1013 q 214 1053 214 1038 q 222 1084 214 1068 l 304 1229 q 380 1280 332 1280 q 456 1229 425 1280 l 537 1084 z "},"":{"ha":693,"x_min":99,"x_max":609,"o":"m 272 789 q 266 784 272 789 q 253 764 260 779 q 246 730 246 749 q 255 697 246 711 q 275 669 264 682 q 303 611 303 634 q 297 574 303 589 q 280 549 291 559 q 225 526 256 526 q 172 542 195 526 q 133 585 149 557 q 99 735 99 642 q 164 880 99 827 q 347 935 230 935 q 525 880 460 935 q 587 736 587 827 l 587 188 q 524 41 587 95 q 347 -13 460 -13 q 168 41 233 -13 q 106 186 106 93 l 106 407 q 123 457 106 440 q 178 487 153 487 q 218 481 203 487 q 243 464 233 475 q 267 407 267 441 l 267 182 q 290 129 267 147 q 347 110 313 110 q 404 129 381 110 q 427 182 427 147 l 427 732 q 403 790 427 766 q 350 813 380 813 q 302 807 319 813 q 272 789 284 800 m 538 1198 q 569 1210 552 1210 q 598 1198 587 1210 q 609 1168 609 1185 q 595 1130 609 1150 q 565 1090 581 1109 q 528 1055 548 1070 q 443 1025 488 1025 q 370 1044 398 1025 q 329 1080 342 1064 l 311 1101 q 300 1106 307 1106 q 275 1090 293 1106 l 233 1055 q 202 1044 219 1044 q 173 1056 184 1044 q 162 1086 162 1068 q 176 1124 162 1103 q 206 1164 189 1144 q 242 1198 222 1184 q 334 1229 283 1229 q 427 1188 387 1229 l 450 1163 q 460 1153 456 1158 q 471 1147 465 1147 q 496 1163 478 1147 l 538 1198 z "},"":{"ha":693,"x_min":99,"x_max":609,"o":"m 272 789 q 266 784 272 789 q 253 764 260 779 q 246 730 246 749 q 255 697 246 711 q 275 669 264 682 q 303 611 303 634 q 297 574 303 589 q 280 549 291 559 q 225 526 256 526 q 172 542 195 526 q 133 585 149 557 q 99 735 99 642 q 164 880 99 827 q 347 935 230 935 q 525 880 460 935 q 587 736 587 827 l 587 188 q 524 41 587 95 q 347 -13 460 -13 q 168 41 233 -13 q 106 186 106 93 l 106 407 q 123 457 106 440 q 178 487 153 487 q 218 481 203 487 q 243 464 233 475 q 267 407 267 441 l 267 182 q 290 129 267 147 q 347 110 313 110 q 404 129 381 110 q 427 182 427 147 l 427 732 q 403 790 427 766 q 350 813 380 813 q 302 807 319 813 q 272 789 284 800 m 236 1206 q 300 1179 273 1206 q 328 1124 328 1152 q 320 1080 328 1096 q 300 1051 313 1063 q 236 1024 273 1024 q 172 1051 199 1024 q 144 1105 144 1078 q 172 1179 144 1152 q 236 1206 199 1206 m 453 1051 q 447 1057 453 1051 q 434 1080 441 1063 q 427 1115 427 1096 q 434 1150 427 1133 q 453 1179 441 1166 q 508 1206 480 1206 q 553 1199 536 1206 q 582 1179 570 1192 q 609 1124 609 1152 q 602 1080 609 1096 q 582 1051 595 1063 q 527 1024 555 1024 q 483 1031 499 1024 q 453 1051 466 1038 z "},"":{"ha":694,"x_min":105,"x_max":589,"o":"m 105 655 q 119 694 105 680 q 168 717 142 717 q 209 700 192 717 l 347 562 l 485 700 q 526 717 502 717 q 566 703 552 717 q 589 655 589 680 q 572 613 589 630 l 433 475 l 572 338 q 589 296 589 321 q 575 256 589 271 q 526 234 552 234 q 485 251 502 234 l 347 389 l 209 251 q 168 234 192 234 q 128 248 142 234 q 105 296 105 271 q 122 338 105 321 l 260 475 l 122 613 q 105 655 105 630 z "},"":{"ha":743,"x_min":136,"x_max":728,"o":"m 396 935 q 608 841 550 935 l 656 926 q 683 946 667 946 q 713 938 698 946 q 728 915 728 930 q 722 890 728 899 l 637 735 l 637 188 q 574 41 637 95 q 401 -13 510 -13 q 231 31 292 -13 l 208 -12 q 180 -35 197 -35 q 136 2 136 -35 q 141 23 136 12 l 178 90 q 155 186 155 130 l 155 407 q 172 457 155 440 q 228 487 202 487 q 268 481 253 487 q 293 464 282 475 q 316 407 316 441 l 316 312 l 476 617 l 476 732 q 453 790 476 766 q 399 813 429 813 q 351 807 369 813 q 321 789 334 800 q 296 739 296 766 q 304 697 296 711 q 324 669 313 682 q 353 611 353 634 q 347 574 353 589 q 330 549 340 559 q 275 526 306 526 q 221 542 244 526 q 182 585 199 557 q 149 735 149 642 q 213 880 149 827 q 396 935 279 935 m 316 182 q 339 129 316 147 q 396 110 362 110 q 453 129 431 110 q 476 182 476 147 l 476 488 l 316 182 l 316 182 z "},"":{"ha":924,"x_min":43,"x_max":795,"o":"m 651 906 q 660 914 651 906 q 683 929 669 922 q 714 935 698 935 q 746 929 731 935 q 771 911 760 922 q 795 856 795 889 l 795 68 q 777 17 795 35 q 684 -7 733 -28 q 642 33 656 4 q 624 50 633 50 q 609 45 614 50 l 597 33 q 553 1 578 16 q 491 -13 529 -13 q 421 3 454 -13 q 365 46 389 19 q 313 188 313 104 l 313 800 l 281 800 q 232 782 249 800 q 204 719 204 752 l 204 680 q 155 607 204 627 q 123 601 140 601 q 92 607 106 601 q 66 624 77 613 q 43 680 43 646 l 43 721 q 102 863 43 804 q 244 922 161 922 l 392 922 q 443 905 425 922 q 473 842 473 876 l 473 190 q 490 139 473 156 q 553 109 520 109 q 627 151 606 109 q 634 182 634 165 l 634 856 q 651 906 634 889 m 661 1086 q 673 1054 673 1071 q 664 1027 673 1036 q 631 1012 649 1012 q 597 1023 614 1012 l 448 1127 q 406 1204 406 1156 q 422 1251 406 1234 q 476 1279 451 1279 q 555 1234 522 1279 l 661 1086 z "},"":{"ha":924,"x_min":43,"x_max":795,"o":"m 651 906 q 660 914 651 906 q 683 929 669 922 q 714 935 698 935 q 746 929 731 935 q 771 911 760 922 q 795 856 795 889 l 795 68 q 777 17 795 35 q 684 -7 733 -28 q 642 33 656 4 q 624 50 633 50 q 609 45 614 50 l 597 33 q 553 1 578 16 q 491 -13 529 -13 q 421 3 454 -13 q 365 46 389 19 q 313 188 313 104 l 313 800 l 281 800 q 232 782 249 800 q 204 719 204 752 l 204 680 q 155 607 204 627 q 123 601 140 601 q 92 607 106 601 q 66 624 77 613 q 43 680 43 646 l 43 721 q 102 863 43 804 q 244 922 161 922 l 392 922 q 443 905 425 922 q 473 842 473 876 l 473 190 q 490 139 473 156 q 553 109 520 109 q 627 151 606 109 q 634 182 634 165 l 634 856 q 651 906 634 889 m 604 1234 q 680 1279 637 1279 q 725 1261 708 1279 q 753 1208 753 1234 q 711 1127 753 1156 l 562 1023 q 532 1012 545 1012 q 498 1024 509 1012 q 486 1054 486 1036 q 498 1086 486 1071 l 604 1234 z "},"":{"ha":924,"x_min":43,"x_max":795,"o":"m 651 906 q 660 914 651 906 q 683 929 669 922 q 714 935 698 935 q 746 929 731 935 q 771 911 760 922 q 795 856 795 889 l 795 68 q 777 17 795 35 q 684 -7 733 -28 q 642 33 656 4 q 624 50 633 50 q 609 45 614 50 l 597 33 q 553 1 578 16 q 491 -13 529 -13 q 421 3 454 -13 q 365 46 389 19 q 313 188 313 104 l 313 800 l 281 800 q 232 782 249 800 q 204 719 204 752 l 204 680 q 155 607 204 627 q 123 601 140 601 q 92 607 106 601 q 66 624 77 613 q 43 680 43 646 l 43 721 q 102 863 43 804 q 244 922 161 922 l 392 922 q 443 905 425 922 q 473 842 473 876 l 473 190 q 490 139 473 156 q 553 109 520 109 q 627 151 606 109 q 634 182 634 165 l 634 856 q 651 906 634 889 m 736 1084 q 745 1053 745 1068 q 734 1025 745 1038 q 709 1013 722 1013 q 668 1026 682 1013 l 579 1117 l 490 1026 q 456 1013 477 1013 q 425 1025 436 1013 q 413 1053 413 1038 q 422 1084 413 1068 l 503 1229 q 580 1280 532 1280 q 655 1229 624 1280 l 736 1084 z "},"":{"ha":924,"x_min":43,"x_max":808,"o":"m 651 906 q 660 914 651 906 q 683 929 669 922 q 714 935 698 935 q 746 929 731 935 q 771 911 760 922 q 795 856 795 889 l 795 68 q 777 17 795 35 q 684 -7 733 -28 q 642 33 656 4 q 624 50 633 50 q 609 45 614 50 l 597 33 q 553 1 578 16 q 491 -13 529 -13 q 421 3 454 -13 q 365 46 389 19 q 313 188 313 104 l 313 800 l 281 800 q 232 782 249 800 q 204 719 204 752 l 204 680 q 155 607 204 627 q 123 601 140 601 q 92 607 106 601 q 66 624 77 613 q 43 680 43 646 l 43 721 q 102 863 43 804 q 244 922 161 922 l 392 922 q 443 905 425 922 q 473 842 473 876 l 473 190 q 490 139 473 156 q 553 109 520 109 q 627 151 606 109 q 634 182 634 165 l 634 856 q 651 906 634 889 m 435 1206 q 499 1179 473 1206 q 527 1124 527 1152 q 519 1080 527 1096 q 499 1051 512 1063 q 435 1024 473 1024 q 372 1051 398 1024 q 344 1105 344 1078 q 371 1179 344 1152 q 435 1206 398 1206 m 653 1051 q 646 1057 653 1051 q 633 1080 640 1063 q 626 1115 626 1096 q 633 1150 626 1133 q 652 1179 640 1166 q 708 1206 680 1206 q 752 1199 736 1206 q 781 1179 769 1192 q 808 1124 808 1152 q 801 1080 808 1096 q 781 1051 794 1063 q 727 1024 755 1024 q 682 1031 699 1024 q 653 1051 665 1038 z "},"":{"ha":923,"x_min":43,"x_max":794,"o":"m 650 906 q 659 914 650 906 q 682 929 667 922 q 713 935 696 935 q 745 929 730 935 q 770 911 760 922 q 794 856 794 889 l 794 201 q 734 59 794 118 q 591 0 674 0 l 471 0 q 428 18 446 0 q 410 61 410 35 q 428 105 410 87 q 471 123 446 123 l 551 123 q 627 171 605 123 q 633 202 633 186 l 633 295 q 626 312 633 308 q 612 317 618 317 q 600 311 605 317 l 588 300 q 481 254 542 254 q 359 313 408 254 q 311 454 311 371 l 311 800 l 281 800 q 232 782 249 800 q 204 719 204 752 l 204 680 q 155 607 204 627 q 123 601 140 601 q 92 607 106 601 q 66 624 77 613 q 43 680 43 647 l 43 721 q 103 863 43 804 q 244 922 163 922 l 391 922 q 441 905 424 922 q 472 842 472 876 l 472 456 q 490 406 472 423 q 544 376 519 376 q 583 381 569 376 q 609 395 597 386 q 633 448 633 416 l 633 856 q 650 906 633 889 m 604 1234 q 680 1279 637 1279 q 725 1261 708 1279 q 753 1208 753 1234 q 711 1127 753 1156 l 562 1023 q 532 1012 545 1012 q 498 1024 509 1012 q 486 1054 486 1036 q 498 1086 486 1071 l 604 1234 z "},"":{"ha":757,"x_min":-43,"x_max":706,"o":"m -43 542 q 16 684 -43 623 q 158 743 75 743 l 226 743 l 226 856 q 274 929 226 907 q 306 935 289 935 q 337 929 322 935 q 363 912 352 923 q 387 856 387 888 l 387 743 l 510 743 q 650 684 593 743 q 706 542 706 625 l 706 427 q 648 285 706 343 q 506 227 589 227 l 387 227 l 387 66 q 338 -7 387 15 q 307 -13 323 -13 q 275 -6 290 -13 q 250 11 260 0 q 226 66 226 33 l 226 621 l 191 621 q 145 602 161 621 q 118 540 118 572 l 118 501 q 68 428 118 448 q 37 422 54 422 q 6 428 20 422 q -19 445 -9 434 q -43 501 -43 468 l -43 542 m 546 540 q 529 590 546 572 q 467 621 500 621 l 387 621 l 387 347 l 467 347 q 516 365 500 347 q 546 429 546 395 l 546 540 z "},"":{"ha":694,"x_min":106,"x_max":600,"o":"m 500 625 q 600 472 600 581 l 600 201 q 543 56 600 111 q 387 0 484 0 q 350 14 363 0 q 327 61 327 36 q 344 105 327 87 q 385 123 361 123 q 424 143 408 123 q 439 194 439 163 l 439 479 q 421 535 439 514 q 379 560 402 556 q 341 581 355 564 q 326 621 326 598 q 340 660 326 644 q 375 682 354 677 q 414 760 414 692 l 414 840 q 394 898 414 874 q 350 921 375 921 q 312 915 325 921 q 289 897 298 908 q 267 840 267 873 l 267 79 q 250 30 267 47 q 195 0 220 0 q 155 6 170 0 q 130 23 140 13 q 106 79 106 46 l 106 842 q 168 989 106 935 q 340 1043 231 1043 q 515 989 454 1043 q 574 844 574 936 l 574 781 q 500 625 574 675 z "},"":{"ha":694,"x_min":106,"x_max":588,"o":"m 165 661 q 203 718 165 702 q 227 723 214 723 l 387 723 q 529 664 470 723 q 588 522 588 605 l 588 66 q 539 -7 588 14 q 507 -14 524 -14 q 476 -8 489 -14 q 455 5 464 -2 q 440 25 448 12 q 429 43 433 37 q 416 50 425 50 q 401 43 407 50 l 391 32 q 284 -14 345 -14 q 159 46 212 -14 q 106 187 106 105 l 106 281 q 165 422 106 363 q 307 481 223 481 l 427 481 l 427 520 q 410 571 427 554 q 347 601 380 601 l 227 601 q 189 614 202 601 q 165 661 165 635 m 267 189 q 283 138 267 154 q 338 109 313 109 q 378 114 363 109 q 404 127 393 119 q 427 178 427 146 l 427 359 l 347 359 q 296 342 313 359 q 267 279 267 313 l 267 189 m 429 901 q 440 868 440 886 q 431 842 440 851 q 399 827 416 827 q 365 838 381 827 l 216 942 q 173 1019 173 971 q 190 1066 173 1048 q 243 1094 218 1094 q 322 1049 290 1094 l 429 901 z "},"":{"ha":694,"x_min":106,"x_max":588,"o":"m 165 661 q 203 718 165 702 q 227 723 214 723 l 387 723 q 529 664 470 723 q 588 522 588 605 l 588 66 q 539 -7 588 14 q 507 -14 524 -14 q 476 -8 489 -14 q 455 5 464 -2 q 440 25 448 12 q 429 43 433 37 q 416 50 425 50 q 401 43 407 50 l 391 32 q 284 -14 345 -14 q 159 46 212 -14 q 106 187 106 105 l 106 281 q 165 422 106 363 q 307 481 223 481 l 427 481 l 427 520 q 410 571 427 554 q 347 601 380 601 l 227 601 q 189 614 202 601 q 165 661 165 635 m 267 189 q 283 138 267 154 q 338 109 313 109 q 378 114 363 109 q 404 127 393 119 q 427 178 427 146 l 427 359 l 347 359 q 296 342 313 359 q 267 279 267 313 l 267 189 m 372 1049 q 447 1094 404 1094 q 492 1077 475 1094 q 521 1023 521 1048 q 478 942 521 971 l 329 838 q 300 827 313 827 q 265 839 277 827 q 254 868 254 851 q 265 901 254 886 l 372 1049 z "},"":{"ha":694,"x_min":106,"x_max":588,"o":"m 165 661 q 203 718 165 702 q 227 723 214 723 l 387 723 q 529 664 470 723 q 588 522 588 605 l 588 66 q 539 -7 588 14 q 507 -14 524 -14 q 476 -8 489 -14 q 455 5 464 -2 q 440 25 448 12 q 429 43 433 37 q 416 50 425 50 q 401 43 407 50 l 391 32 q 284 -14 345 -14 q 159 46 212 -14 q 106 187 106 105 l 106 281 q 165 422 106 363 q 307 481 223 481 l 427 481 l 427 520 q 410 571 427 554 q 347 601 380 601 l 227 601 q 189 614 202 601 q 165 661 165 635 m 267 189 q 283 138 267 154 q 338 109 313 109 q 378 114 363 109 q 404 127 393 119 q 427 178 427 146 l 427 359 l 347 359 q 296 342 313 359 q 267 279 267 313 l 267 189 m 505 899 q 513 868 513 883 q 502 840 513 853 q 477 827 490 827 q 436 841 450 827 l 347 932 l 258 841 q 224 827 245 827 q 193 840 204 827 q 181 868 181 853 q 190 899 181 883 l 271 1044 q 348 1095 300 1095 q 423 1044 392 1095 l 505 899 z "},"":{"ha":694,"x_min":106,"x_max":588,"o":"m 165 661 q 203 718 165 702 q 227 723 214 723 l 387 723 q 529 664 470 723 q 588 522 588 605 l 588 66 q 539 -7 588 14 q 507 -14 524 -14 q 476 -8 489 -14 q 455 5 464 -2 q 440 25 448 12 q 429 43 433 37 q 416 50 425 50 q 401 43 407 50 l 391 32 q 284 -14 345 -14 q 159 46 212 -14 q 106 187 106 105 l 106 281 q 165 422 106 363 q 307 481 223 481 l 427 481 l 427 520 q 410 571 427 554 q 347 601 380 601 l 227 601 q 189 614 202 601 q 165 661 165 635 m 267 189 q 283 138 267 154 q 338 109 313 109 q 378 114 363 109 q 404 127 393 119 q 427 178 427 146 l 427 359 l 347 359 q 296 342 313 359 q 267 279 267 313 l 267 189 m 515 1000 q 546 1011 529 1011 q 575 999 564 1011 q 586 969 586 987 q 572 931 586 951 q 542 891 558 911 q 506 857 525 871 q 420 826 465 826 q 347 846 375 826 q 306 882 319 865 l 288 902 q 277 907 283 907 q 252 892 270 907 l 210 857 q 179 845 196 845 q 150 857 161 845 q 139 887 139 869 q 153 925 139 905 q 183 965 166 945 q 218 1000 199 985 q 311 1030 260 1030 q 404 989 364 1030 l 427 964 q 437 954 433 959 q 448 949 441 949 q 473 964 455 949 l 515 1000 z "},"":{"ha":694,"x_min":106,"x_max":588,"o":"m 165 661 q 203 718 165 702 q 227 723 214 723 l 387 723 q 529 664 470 723 q 588 522 588 605 l 588 66 q 539 -7 588 14 q 507 -14 524 -14 q 476 -8 489 -14 q 455 5 464 -2 q 440 25 448 12 q 429 43 433 37 q 416 50 425 50 q 401 43 407 50 l 391 32 q 284 -14 345 -14 q 159 46 212 -14 q 106 187 106 105 l 106 281 q 165 422 106 363 q 307 481 223 481 l 427 481 l 427 520 q 410 571 427 554 q 347 601 380 601 l 227 601 q 189 614 202 601 q 165 661 165 635 m 267 189 q 283 138 267 154 q 338 109 313 109 q 378 114 363 109 q 404 127 393 119 q 427 178 427 146 l 427 359 l 347 359 q 296 342 313 359 q 267 279 267 313 l 267 189 m 211 1007 q 275 981 248 1007 q 302 925 302 953 q 295 881 302 897 q 275 852 288 865 q 211 825 248 825 q 146 852 174 825 q 119 907 119 880 q 146 980 119 953 q 211 1007 174 1007 m 415 852 q 408 858 415 852 q 395 881 402 865 q 388 916 388 897 q 395 951 388 935 q 415 981 402 968 q 470 1007 441 1007 q 514 1000 498 1007 q 544 981 531 993 q 570 925 570 954 q 563 881 570 897 q 544 852 556 865 q 489 825 517 825 q 444 832 460 825 q 415 852 427 840 z "},"":{"ha":694,"x_min":106,"x_max":588,"o":"m 165 661 q 203 718 165 702 q 227 723 214 723 l 387 723 q 529 664 470 723 q 588 522 588 605 l 588 66 q 539 -7 588 14 q 507 -14 524 -14 q 476 -8 489 -14 q 455 5 464 -2 q 440 25 448 12 q 429 43 433 37 q 416 50 425 50 q 401 43 407 50 l 391 32 q 284 -14 345 -14 q 159 46 212 -14 q 106 187 106 105 l 106 281 q 165 422 106 363 q 307 481 223 481 l 427 481 l 427 520 q 410 571 427 554 q 347 601 380 601 l 227 601 q 189 614 202 601 q 165 661 165 635 m 267 189 q 283 138 267 154 q 338 109 313 109 q 378 114 363 109 q 404 127 393 119 q 427 178 427 146 l 427 359 l 347 359 q 296 342 313 359 q 267 279 267 313 l 267 189 m 351 826 q 294 838 321 826 q 245 869 267 850 q 201 975 201 913 q 245 1080 201 1036 q 351 1124 292 1124 q 457 1080 413 1124 q 500 975 500 1036 q 457 869 500 912 q 351 826 414 826 m 397 1020 q 392 1024 397 1020 q 376 1034 388 1029 q 343 1040 364 1040 q 304 1021 323 1040 q 286 982 286 1002 q 291 950 286 962 q 305 929 296 938 q 345 910 326 910 q 375 916 363 910 q 396 930 387 921 q 416 968 416 949 q 411 999 416 987 q 397 1020 406 1011 z "},"":{"ha":1015,"x_min":106,"x_max":909,"o":"m 165 661 q 203 718 165 702 q 227 723 214 723 l 326 723 q 491 668 437 723 q 507 660 498 660 q 522 668 515 660 q 688 736 579 736 q 845 682 783 736 q 909 535 909 626 l 909 342 q 892 292 909 309 q 828 262 863 262 l 588 262 l 588 195 q 636 129 588 148 q 668 123 651 123 l 788 123 q 831 104 814 123 q 849 61 849 86 q 831 18 849 35 q 788 0 814 0 l 688 0 q 524 55 577 0 q 508 63 516 63 q 492 55 500 63 q 327 -13 435 -13 q 170 41 231 -13 q 106 188 106 97 l 106 281 q 165 422 106 363 q 307 481 223 481 l 427 481 l 427 520 q 410 571 427 554 q 347 601 380 601 l 227 601 q 189 614 202 601 q 165 661 165 635 m 267 189 q 283 138 267 154 q 338 109 313 109 q 378 114 363 109 q 404 127 393 119 q 427 178 427 146 l 427 359 l 347 359 q 296 342 313 359 q 267 279 267 313 l 267 189 m 748 534 q 731 585 748 568 q 668 614 701 614 q 617 597 635 614 q 588 534 588 568 l 588 381 l 748 381 l 748 534 z "},"":{"ha":694,"x_min":106,"x_max":574,"o":"m 317 -138 q 287 -127 298 -138 q 275 -100 275 -117 q 285 -62 275 -84 l 312 0 l 307 0 q 165 59 224 0 q 106 201 106 118 l 106 537 q 165 678 106 625 q 347 736 229 736 q 557 663 505 736 q 574 618 574 641 q 568 581 574 595 q 551 555 562 566 q 499 532 528 532 q 421 578 452 532 q 347 614 392 614 q 296 597 313 614 q 267 534 267 568 l 267 202 q 283 151 267 168 q 347 123 313 123 l 513 123 q 570 84 553 123 q 574 61 574 73 q 570 37 574 48 q 557 18 565 26 q 513 0 539 0 l 403 0 l 376 -62 q 475 -98 438 -62 q 507 -180 507 -129 q 423 -288 507 -260 q 357 -297 395 -297 l 248 -297 q 222 -286 233 -297 q 211 -259 211 -275 q 222 -232 211 -243 q 248 -220 233 -220 l 330 -220 q 366 -208 352 -220 q 380 -179 380 -195 q 367 -150 380 -162 q 334 -138 353 -138 l 317 -138 z "},"":{"ha":694,"x_min":106,"x_max":588,"o":"m 467 123 q 510 104 492 123 q 528 61 528 86 q 510 18 528 35 q 467 0 492 0 l 307 0 q 165 59 224 0 q 106 201 106 118 l 106 534 q 168 681 106 626 q 347 736 233 736 q 525 681 460 736 q 588 532 588 625 l 588 342 q 571 292 588 309 q 507 262 542 262 l 267 262 l 267 202 q 283 151 267 168 q 347 123 313 123 l 467 123 m 427 534 q 410 585 427 568 q 347 614 380 614 q 296 597 313 614 q 267 534 267 568 l 267 381 l 427 381 l 427 534 m 422 915 q 433 882 433 899 q 425 855 433 865 q 392 840 410 840 q 358 851 374 840 l 209 956 q 166 1032 166 985 q 183 1080 166 1062 q 237 1107 212 1107 q 315 1063 283 1107 l 422 915 z "},"":{"ha":694,"x_min":106,"x_max":588,"o":"m 467 123 q 510 104 492 123 q 528 61 528 86 q 510 18 528 35 q 467 0 492 0 l 307 0 q 165 59 224 0 q 106 201 106 118 l 106 534 q 168 681 106 626 q 347 736 233 736 q 525 681 460 736 q 588 532 588 625 l 588 342 q 571 292 588 309 q 507 262 542 262 l 267 262 l 267 202 q 283 151 267 168 q 347 123 313 123 l 467 123 m 427 534 q 410 585 427 568 q 347 614 380 614 q 296 597 313 614 q 267 534 267 568 l 267 381 l 427 381 l 427 534 m 365 1063 q 440 1107 397 1107 q 486 1090 469 1107 q 514 1036 514 1062 q 471 956 514 985 l 322 851 q 293 840 306 840 q 258 852 270 840 q 247 882 247 865 q 258 915 247 899 l 365 1063 z "},"":{"ha":694,"x_min":106,"x_max":588,"o":"m 467 123 q 510 104 492 123 q 528 61 528 86 q 510 18 528 35 q 467 0 492 0 l 307 0 q 165 59 224 0 q 106 201 106 118 l 106 534 q 168 681 106 626 q 347 736 233 736 q 525 681 460 736 q 588 532 588 625 l 588 342 q 571 292 588 309 q 507 262 542 262 l 267 262 l 267 202 q 283 151 267 168 q 347 123 313 123 l 467 123 m 427 534 q 410 585 427 568 q 347 614 380 614 q 296 597 313 614 q 267 534 267 568 l 267 381 l 427 381 l 427 534 m 498 913 q 507 882 507 897 q 495 854 507 867 q 470 841 484 841 q 429 854 443 841 l 340 945 l 252 854 q 218 841 238 841 q 186 854 197 841 q 174 882 174 867 q 183 913 174 897 l 264 1057 q 341 1109 293 1109 q 416 1057 385 1109 l 498 913 z "},"":{"ha":694,"x_min":106,"x_max":588,"o":"m 467 123 q 510 104 492 123 q 528 61 528 86 q 510 18 528 35 q 467 0 492 0 l 307 0 q 165 59 224 0 q 106 201 106 118 l 106 534 q 168 681 106 626 q 347 736 233 736 q 525 681 460 736 q 588 532 588 625 l 588 342 q 571 292 588 309 q 507 262 542 262 l 267 262 l 267 202 q 283 151 267 168 q 347 123 313 123 l 467 123 m 427 534 q 410 585 427 568 q 347 614 380 614 q 296 597 313 614 q 267 534 267 568 l 267 381 l 427 381 l 427 534 m 204 1021 q 269 994 241 1021 q 296 939 296 966 q 288 895 296 911 q 269 865 281 878 q 204 839 241 839 q 140 865 167 839 q 113 921 113 893 q 140 994 113 966 q 204 1021 167 1021 m 408 866 q 402 872 408 866 q 388 895 395 878 q 381 929 381 911 q 388 965 381 948 q 408 994 395 981 q 463 1021 435 1021 q 508 1014 491 1021 q 537 994 524 1006 q 564 939 564 967 q 556 895 564 911 q 537 865 549 878 q 482 839 510 839 q 437 846 454 839 q 408 866 420 853 z "},"":{"ha":460,"x_min":56,"x_max":323,"o":"m 149 655 q 165 707 149 688 q 230 736 195 736 q 280 719 264 736 q 310 655 310 688 l 310 66 q 293 16 310 33 q 238 -14 263 -14 q 198 -7 213 -14 q 172 9 183 -1 q 149 66 149 33 l 149 655 m 311 915 q 323 882 323 899 q 314 855 323 865 q 281 840 299 840 q 248 851 264 840 l 98 956 q 56 1032 56 985 q 73 1080 56 1062 q 126 1107 101 1107 q 205 1063 172 1107 l 311 915 z "},"":{"ha":460,"x_min":136,"x_max":404,"o":"m 149 655 q 165 707 149 688 q 230 736 195 736 q 280 719 264 736 q 310 655 310 688 l 310 66 q 293 16 310 33 q 238 -14 263 -14 q 198 -7 213 -14 q 172 9 183 -1 q 149 66 149 33 l 149 655 m 254 1063 q 330 1107 287 1107 q 375 1090 358 1107 q 404 1036 404 1062 q 361 956 404 985 l 212 851 q 182 840 195 840 q 148 852 159 840 q 136 882 136 865 q 148 915 136 899 l 254 1063 z "},"":{"ha":460,"x_min":64,"x_max":396,"o":"m 149 655 q 165 707 149 688 q 230 736 195 736 q 280 719 264 736 q 310 655 310 688 l 310 66 q 293 16 310 33 q 238 -14 263 -14 q 198 -7 213 -14 q 172 9 183 -1 q 149 66 149 33 l 149 655 m 387 913 q 396 882 396 897 q 385 854 396 867 q 359 841 373 841 q 319 854 332 841 l 230 945 l 141 854 q 107 841 127 841 q 75 854 87 841 q 64 882 64 867 q 73 913 64 897 l 154 1057 q 231 1109 182 1109 q 306 1057 275 1109 l 387 913 z "},"":{"ha":460,"x_min":2,"x_max":453,"o":"m 149 655 q 165 707 149 688 q 230 736 195 736 q 280 719 264 736 q 310 655 310 688 l 310 66 q 293 16 310 33 q 238 -14 263 -14 q 198 -7 213 -14 q 172 9 183 -1 q 149 66 149 33 l 149 655 m 94 1021 q 158 994 131 1021 q 185 939 185 966 q 178 895 185 911 q 158 865 170 878 q 94 839 131 839 q 29 865 56 839 q 2 921 2 893 q 29 994 2 966 q 94 1021 56 1021 m 297 866 q 291 872 297 866 q 278 895 285 878 q 271 929 271 911 q 278 965 271 948 q 298 994 285 981 q 352 1021 324 1021 q 397 1014 380 1021 q 427 994 414 1006 q 453 939 453 967 q 446 895 453 911 q 427 865 439 878 q 371 839 399 839 q 327 846 343 839 q 297 866 310 853 z "},"":{"ha":694,"x_min":106,"x_max":587,"o":"m 455 893 q 587 588 587 762 l 587 188 q 524 42 587 96 q 347 -13 460 -13 q 168 42 233 -13 q 106 186 106 95 l 106 484 q 155 625 106 566 q 276 684 203 684 q 381 638 337 684 l 393 627 q 404 621 398 621 q 426 642 425 621 q 338 821 412 745 l 193 731 q 166 724 182 724 q 141 738 150 724 q 132 763 132 753 q 151 797 132 786 l 275 873 q 199 916 232 902 q 155 944 167 929 q 143 982 143 959 q 160 1024 143 1006 q 198 1042 177 1042 q 332 989 241 1042 q 394 947 362 972 l 522 1027 q 543 1034 532 1034 q 574 1019 565 1034 q 583 989 583 1005 q 564 961 583 972 l 455 893 m 267 190 q 283 139 267 156 q 347 109 313 109 q 396 126 379 109 q 426 190 426 156 l 426 490 q 376 557 426 539 q 346 562 362 562 q 314 556 329 562 q 289 538 300 549 q 267 481 267 515 l 267 190 z "},"":{"ha":694,"x_min":106,"x_max":588,"o":"m 249 16 q 241 8 249 16 q 217 -7 232 -1 q 186 -14 203 -14 q 155 -7 170 -14 q 130 9 140 -1 q 106 66 106 33 l 106 655 q 123 707 106 688 q 178 736 152 736 q 217 731 204 736 q 238 718 229 725 q 256 695 251 707 q 265 679 261 684 q 278 673 269 673 q 292 679 286 673 q 309 697 297 685 q 398 736 350 736 q 479 721 447 736 q 536 677 512 705 q 588 536 588 618 l 588 66 q 540 -7 588 14 q 508 -14 525 -14 q 477 -7 492 -14 q 451 9 462 -1 q 427 66 427 33 l 427 534 q 411 585 427 567 q 349 614 382 614 q 273 572 294 614 q 267 542 267 559 l 267 66 q 249 16 267 33 m 515 1013 q 546 1025 528 1025 q 574 1013 563 1025 q 585 983 585 1000 q 571 945 585 965 q 541 905 557 924 q 505 871 524 885 q 419 840 464 840 q 347 859 374 840 q 305 895 319 879 l 287 916 q 276 921 283 921 q 251 905 269 921 l 209 870 q 178 859 195 859 q 150 871 161 859 q 138 901 138 883 q 152 939 138 918 q 182 979 165 959 q 218 1013 199 999 q 310 1044 260 1044 q 404 1003 363 1044 l 427 978 q 436 967 432 972 q 447 962 441 962 q 473 978 454 962 l 515 1013 z "},"":{"ha":694,"x_min":106,"x_max":588,"o":"m 106 537 q 168 682 106 629 q 347 736 233 736 q 525 682 460 736 q 588 536 588 628 l 588 185 q 450 0 588 43 q 348 -14 405 -14 q 245 0 290 -14 q 170 41 201 14 q 106 187 106 94 l 106 537 m 427 534 q 410 585 427 568 q 347 614 380 614 q 296 597 313 614 q 267 534 267 568 l 267 181 q 290 128 267 146 q 347 109 313 109 q 404 128 381 109 q 427 181 427 146 l 427 534 m 429 915 q 440 882 440 899 q 431 855 440 865 q 399 840 416 840 q 365 851 381 840 l 216 956 q 173 1032 173 985 q 190 1080 173 1062 q 243 1107 218 1107 q 322 1063 290 1107 l 429 915 z "},"":{"ha":694,"x_min":106,"x_max":588,"o":"m 106 537 q 168 682 106 629 q 347 736 233 736 q 525 682 460 736 q 588 536 588 628 l 588 185 q 450 0 588 43 q 348 -14 405 -14 q 245 0 290 -14 q 170 41 201 14 q 106 187 106 94 l 106 537 m 427 534 q 410 585 427 568 q 347 614 380 614 q 296 597 313 614 q 267 534 267 568 l 267 181 q 290 128 267 146 q 347 109 313 109 q 404 128 381 109 q 427 181 427 146 l 427 534 m 372 1063 q 447 1107 404 1107 q 492 1090 475 1107 q 521 1036 521 1062 q 478 956 521 985 l 329 851 q 300 840 313 840 q 265 852 277 840 q 254 882 254 865 q 265 915 254 899 l 372 1063 z "},"":{"ha":694,"x_min":106,"x_max":588,"o":"m 106 537 q 168 682 106 629 q 347 736 233 736 q 525 682 460 736 q 588 536 588 628 l 588 185 q 450 0 588 43 q 348 -14 405 -14 q 245 0 290 -14 q 170 41 201 14 q 106 187 106 94 l 106 537 m 427 534 q 410 585 427 568 q 347 614 380 614 q 296 597 313 614 q 267 534 267 568 l 267 181 q 290 128 267 146 q 347 109 313 109 q 404 128 381 109 q 427 181 427 146 l 427 534 m 505 913 q 513 882 513 897 q 502 854 513 867 q 477 841 490 841 q 436 854 450 841 l 347 945 l 258 854 q 224 841 245 841 q 193 854 204 841 q 181 882 181 867 q 190 913 181 897 l 271 1057 q 348 1109 300 1109 q 423 1057 392 1109 l 505 913 z "},"":{"ha":694,"x_min":106,"x_max":588,"o":"m 106 537 q 168 682 106 629 q 347 736 233 736 q 525 682 460 736 q 588 536 588 628 l 588 185 q 450 0 588 43 q 348 -14 405 -14 q 245 0 290 -14 q 170 41 201 14 q 106 187 106 94 l 106 537 m 427 534 q 410 585 427 568 q 347 614 380 614 q 296 597 313 614 q 267 534 267 568 l 267 181 q 290 128 267 146 q 347 109 313 109 q 404 128 381 109 q 427 181 427 146 l 427 534 m 515 1013 q 546 1025 529 1025 q 575 1013 564 1025 q 586 983 586 1000 q 572 945 586 965 q 542 905 558 924 q 506 871 525 885 q 420 840 465 840 q 347 859 375 840 q 306 895 319 879 l 288 916 q 277 921 283 921 q 252 905 270 921 l 210 870 q 179 859 196 859 q 150 871 161 859 q 139 901 139 883 q 153 939 139 918 q 183 979 166 959 q 218 1013 199 999 q 311 1044 260 1044 q 404 1003 364 1044 l 427 978 q 437 967 433 972 q 448 962 441 962 q 473 978 455 962 l 515 1013 z "},"":{"ha":694,"x_min":106,"x_max":588,"o":"m 106 537 q 168 682 106 629 q 347 736 233 736 q 525 682 460 736 q 588 536 588 628 l 588 185 q 450 0 588 43 q 348 -14 405 -14 q 245 0 290 -14 q 170 41 201 14 q 106 187 106 94 l 106 537 m 427 534 q 410 585 427 568 q 347 614 380 614 q 296 597 313 614 q 267 534 267 568 l 267 181 q 290 128 267 146 q 347 109 313 109 q 404 128 381 109 q 427 181 427 146 l 427 534 m 211 1021 q 275 994 248 1021 q 302 939 302 966 q 295 895 302 911 q 275 865 288 878 q 211 839 248 839 q 146 865 174 839 q 119 921 119 893 q 146 994 119 966 q 211 1021 174 1021 m 415 866 q 408 872 415 866 q 395 895 402 878 q 388 929 388 911 q 395 965 388 948 q 415 994 402 981 q 470 1021 441 1021 q 514 1014 498 1021 q 544 994 531 1006 q 570 939 570 967 q 563 895 570 911 q 544 865 556 878 q 489 839 517 839 q 444 846 460 839 q 415 866 427 853 z "},"":{"ha":694,"x_min":71,"x_max":623,"o":"m 343 234 q 407 208 380 234 q 435 152 435 180 q 427 108 435 124 q 407 79 420 92 q 343 52 380 52 q 279 79 306 52 q 252 134 252 106 q 279 207 252 180 q 343 234 306 234 m 343 789 q 407 762 380 789 q 435 707 435 735 q 427 663 435 680 q 407 635 420 647 q 343 608 380 608 q 279 635 306 608 q 252 689 252 662 q 279 762 252 735 q 343 789 306 789 m 600 466 q 606 459 600 466 q 618 441 613 452 q 623 417 623 430 q 618 394 623 405 q 605 374 613 382 q 563 356 588 356 l 130 356 q 94 369 106 356 q 71 411 71 392 q 75 441 71 430 q 88 461 80 452 q 130 479 105 479 l 563 479 q 600 466 587 479 z "},"":{"ha":694,"x_min":59,"x_max":635,"o":"m 347 -14 q 174 37 239 -14 l 130 -27 q 102 -47 118 -47 q 72 -39 85 -47 q 59 -14 59 -31 q 66 13 59 3 l 124 98 q 106 187 106 137 l 106 537 q 168 682 106 629 q 346 736 233 736 q 522 684 458 736 l 566 748 q 592 766 576 766 q 617 760 608 766 q 635 732 635 749 q 629 707 635 716 l 570 621 q 588 536 588 582 l 588 185 q 450 0 588 43 q 347 -14 405 -14 m 267 288 l 427 537 q 409 586 426 570 q 355 614 379 614 q 315 608 330 614 q 290 591 300 602 q 267 534 267 568 l 267 288 m 427 425 l 267 177 q 291 127 268 144 q 348 109 314 109 q 404 128 381 109 q 427 181 427 146 l 427 425 z "},"":{"ha":694,"x_min":106,"x_max":588,"o":"m 445 707 q 453 715 445 707 q 476 730 462 724 q 508 736 491 736 q 539 730 524 736 q 564 713 553 724 q 588 657 588 690 l 588 68 q 571 16 588 35 q 516 -14 542 -14 q 477 -8 490 -14 q 456 5 464 -2 q 438 27 443 16 q 429 44 433 39 q 416 50 425 50 q 402 44 408 50 q 385 26 397 38 q 295 -14 344 -14 q 214 2 247 -14 q 157 46 182 18 q 106 187 106 105 l 106 657 q 155 730 106 709 q 185 736 169 736 q 217 730 202 736 q 243 713 232 724 q 267 657 267 690 l 267 189 q 283 138 267 155 q 346 109 313 109 q 420 151 399 109 q 427 181 427 164 l 427 657 q 445 707 427 690 m 435 915 q 446 882 446 899 q 437 855 446 865 q 405 840 422 840 q 371 851 387 840 l 222 956 q 179 1032 179 985 q 196 1080 179 1062 q 250 1107 224 1107 q 328 1063 296 1107 l 435 915 z "},"":{"ha":694,"x_min":106,"x_max":588,"o":"m 445 707 q 453 715 445 707 q 476 730 462 724 q 508 736 491 736 q 539 730 524 736 q 564 713 553 724 q 588 657 588 690 l 588 68 q 571 16 588 35 q 516 -14 542 -14 q 477 -8 490 -14 q 456 5 464 -2 q 438 27 443 16 q 429 44 433 39 q 416 50 425 50 q 402 44 408 50 q 385 26 397 38 q 295 -14 344 -14 q 214 2 247 -14 q 157 46 182 18 q 106 187 106 105 l 106 657 q 155 730 106 709 q 185 736 169 736 q 217 730 202 736 q 243 713 232 724 q 267 657 267 690 l 267 189 q 283 138 267 155 q 346 109 313 109 q 420 151 399 109 q 427 181 427 164 l 427 657 q 445 707 427 690 m 378 1063 q 453 1107 410 1107 q 498 1090 481 1107 q 527 1036 527 1062 q 484 956 527 985 l 335 851 q 306 840 319 840 q 271 852 283 840 q 260 882 260 865 q 271 915 260 899 l 378 1063 z "},"":{"ha":694,"x_min":106,"x_max":588,"o":"m 445 707 q 453 715 445 707 q 476 730 462 724 q 508 736 491 736 q 539 730 524 736 q 564 713 553 724 q 588 657 588 690 l 588 68 q 571 16 588 35 q 516 -14 542 -14 q 477 -8 490 -14 q 456 5 464 -2 q 438 27 443 16 q 429 44 433 39 q 416 50 425 50 q 402 44 408 50 q 385 26 397 38 q 295 -14 344 -14 q 214 2 247 -14 q 157 46 182 18 q 106 187 106 105 l 106 657 q 155 730 106 709 q 185 736 169 736 q 217 730 202 736 q 243 713 232 724 q 267 657 267 690 l 267 189 q 283 138 267 155 q 346 109 313 109 q 420 151 399 109 q 427 181 427 164 l 427 657 q 445 707 427 690 m 510 913 q 519 882 519 897 q 507 854 519 867 q 482 841 496 841 q 441 854 455 841 l 353 945 l 264 854 q 230 841 250 841 q 198 854 210 841 q 186 882 186 867 q 195 913 186 897 l 277 1057 q 353 1109 305 1109 q 429 1057 397 1109 l 510 913 z "},"":{"ha":694,"x_min":106,"x_max":588,"o":"m 445 707 q 453 715 445 707 q 476 730 462 724 q 508 736 491 736 q 539 730 524 736 q 564 713 553 724 q 588 657 588 690 l 588 68 q 571 16 588 35 q 516 -14 542 -14 q 477 -8 490 -14 q 456 5 464 -2 q 438 27 443 16 q 429 44 433 39 q 416 50 425 50 q 402 44 408 50 q 385 26 397 38 q 295 -14 344 -14 q 214 2 247 -14 q 157 46 182 18 q 106 187 106 105 l 106 657 q 155 730 106 709 q 185 736 169 736 q 217 730 202 736 q 243 713 232 724 q 267 657 267 690 l 267 189 q 283 138 267 155 q 346 109 313 109 q 420 151 399 109 q 427 181 427 164 l 427 657 q 445 707 427 690 m 217 1021 q 281 994 254 1021 q 309 939 309 966 q 301 895 309 911 q 281 865 294 878 q 217 839 254 839 q 153 865 180 839 q 125 921 125 893 q 153 994 125 966 q 217 1021 180 1021 m 421 866 q 415 872 421 866 q 401 895 408 878 q 394 929 394 911 q 401 965 394 948 q 421 994 408 981 q 476 1021 448 1021 q 520 1014 504 1021 q 550 994 537 1006 q 576 939 576 967 q 569 895 576 911 q 550 865 562 878 q 495 839 523 839 q 450 846 467 839 q 421 866 433 853 z "},"":{"ha":694,"x_min":106,"x_max":588,"o":"m 444 707 q 453 715 444 707 q 476 730 461 724 q 507 736 490 736 q 538 730 524 736 q 564 713 553 724 q 588 657 588 690 l 588 -121 q 529 -262 588 -204 q 386 -321 469 -321 l 266 -321 q 222 -304 240 -321 q 204 -260 204 -286 q 222 -217 204 -235 q 266 -199 240 -199 l 346 -199 q 397 -182 380 -199 q 427 -119 427 -153 l 427 28 q 419 45 427 41 q 406 50 412 50 q 393 43 399 50 l 382 33 q 275 -14 336 -14 q 154 46 202 -14 q 106 187 106 105 l 106 657 q 155 730 106 709 q 185 736 169 736 q 217 730 202 736 q 243 713 232 724 q 267 657 267 690 l 267 189 q 283 138 267 156 q 337 109 312 109 q 377 114 362 109 q 403 128 391 119 q 427 181 427 149 l 427 657 q 444 707 427 690 m 377 1063 q 452 1107 410 1107 q 498 1090 481 1107 q 526 1036 526 1062 q 484 956 526 985 l 334 851 q 305 840 318 840 q 271 852 282 840 q 259 882 259 865 q 271 915 259 899 l 377 1063 z "},"":{"ha":694,"x_min":106,"x_max":588,"o":"m 106 962 q 155 1036 106 1015 q 186 1043 170 1043 q 218 1037 203 1043 q 243 1019 233 1030 q 267 962 267 996 l 267 695 q 274 678 267 682 q 288 673 281 673 q 309 687 296 673 q 331 708 321 700 q 354 723 342 717 q 418 737 381 737 q 486 721 454 737 q 540 678 517 705 q 588 535 588 619 l 588 200 q 529 59 588 118 q 388 0 470 0 l 267 0 l 267 -218 q 250 -267 267 -250 q 195 -297 220 -297 q 155 -291 170 -297 q 130 -274 140 -284 q 106 -218 106 -251 l 106 962 m 427 534 q 378 608 427 586 q 348 614 364 614 q 316 608 331 614 q 291 593 302 602 q 267 540 267 571 l 267 122 l 347 122 q 398 139 381 122 q 427 203 427 168 l 427 534 z "},"":{"ha":694,"x_min":106,"x_max":588,"o":"m 444 707 q 453 715 444 707 q 476 730 461 724 q 507 736 490 736 q 538 730 524 736 q 564 713 553 724 q 588 657 588 690 l 588 -121 q 529 -262 588 -204 q 386 -321 469 -321 l 266 -321 q 222 -304 240 -321 q 204 -260 204 -286 q 222 -217 204 -235 q 266 -199 240 -199 l 346 -199 q 397 -182 380 -199 q 427 -119 427 -153 l 427 28 q 419 45 427 41 q 406 50 412 50 q 393 43 399 50 l 382 33 q 275 -14 336 -14 q 154 46 202 -14 q 106 187 106 105 l 106 657 q 155 730 106 709 q 185 736 169 736 q 217 730 202 736 q 243 713 232 724 q 267 657 267 690 l 267 189 q 283 138 267 156 q 337 109 312 109 q 377 114 362 109 q 403 128 391 119 q 427 181 427 149 l 427 657 q 444 707 427 690 m 216 1021 q 281 994 254 1021 q 308 939 308 966 q 300 895 308 911 q 281 865 293 878 q 216 839 254 839 q 152 865 179 839 q 125 921 125 893 q 152 994 125 966 q 216 1021 179 1021 m 420 866 q 414 872 420 866 q 400 895 408 878 q 393 929 393 911 q 400 965 393 948 q 420 994 408 981 q 475 1021 447 1021 q 520 1014 503 1021 q 549 994 536 1006 q 576 939 576 967 q 569 895 576 911 q 549 865 562 878 q 494 839 522 839 q 449 846 466 839 q 420 866 433 853 z "},"":{"ha":809,"x_min":-43,"x_max":708,"o":"m 290 779 q 270 799 290 799 l 191 799 q 145 781 161 799 q 118 719 118 751 l 118 680 q 68 607 118 627 q 37 601 54 601 q 6 607 20 601 q -19 624 -9 613 q -43 680 -43 647 l -43 721 q 16 863 -43 804 q 158 922 75 922 l 467 922 q 644 867 580 922 q 708 721 708 813 l 708 66 q 659 -7 708 15 q 628 -13 645 -13 q 597 -6 612 -13 q 571 11 582 0 q 547 66 547 33 l 547 294 l 387 294 l 387 66 q 369 16 387 34 q 315 -13 340 -13 q 275 -6 290 -13 q 249 11 260 0 q 226 66 226 33 l 226 294 l 177 294 q 140 307 153 294 q 117 355 117 330 q 135 398 117 380 q 177 416 152 416 l 226 416 l 226 648 q 283 766 226 712 q 290 779 290 772 m 387 416 l 547 416 l 547 718 q 530 769 547 752 q 475 799 500 799 q 435 792 450 799 q 410 775 420 786 q 387 719 387 752 l 387 416 m 641 1164 q 647 1157 641 1164 q 659 1140 654 1151 q 663 1116 663 1128 q 659 1092 663 1103 q 646 1073 654 1081 q 604 1055 629 1055 l 330 1055 q 294 1067 307 1055 q 271 1109 271 1090 q 275 1140 271 1128 q 288 1160 280 1151 q 330 1177 305 1177 l 604 1177 q 641 1164 627 1177 z "},"":{"ha":694,"x_min":106,"x_max":588,"o":"m 165 661 q 203 718 165 702 q 227 723 214 723 l 387 723 q 529 664 470 723 q 588 522 588 605 l 588 66 q 539 -7 588 14 q 507 -14 524 -14 q 476 -8 489 -14 q 455 5 464 -2 q 440 25 448 12 q 429 43 433 37 q 416 50 425 50 q 401 43 407 50 l 391 32 q 284 -14 345 -14 q 159 46 212 -14 q 106 187 106 105 l 106 281 q 165 422 106 363 q 307 481 223 481 l 427 481 l 427 520 q 410 571 427 554 q 347 601 380 601 l 227 601 q 189 614 202 601 q 165 661 165 635 m 267 189 q 283 138 267 154 q 338 109 313 109 q 378 114 363 109 q 404 127 393 119 q 427 178 427 146 l 427 359 l 347 359 q 296 342 313 359 q 267 279 267 313 l 267 189 m 513 972 q 520 966 513 972 q 531 948 526 959 q 536 924 536 937 q 531 900 536 911 q 518 880 526 889 q 476 863 501 863 l 203 863 q 165 876 179 863 q 143 918 143 899 q 148 948 143 937 q 161 967 153 959 q 203 985 178 985 l 476 985 q 513 972 500 985 z "},"":{"ha":809,"x_min":-43,"x_max":708,"o":"m 290 779 q 270 799 290 799 l 191 799 q 145 781 161 799 q 118 719 118 751 l 118 680 q 68 607 118 627 q 37 601 54 601 q 6 607 20 601 q -19 624 -9 613 q -43 680 -43 647 l -43 721 q 16 863 -43 804 q 158 922 75 922 l 467 922 q 644 867 580 922 q 708 721 708 813 l 708 66 q 659 -7 708 15 q 628 -13 645 -13 q 597 -6 612 -13 q 571 11 582 0 q 547 66 547 33 l 547 294 l 387 294 l 387 66 q 369 16 387 34 q 315 -13 340 -13 q 275 -6 290 -13 q 249 11 260 0 q 226 66 226 33 l 226 294 l 177 294 q 140 307 153 294 q 117 355 117 330 q 135 398 117 380 q 177 416 152 416 l 226 416 l 226 648 q 283 766 226 712 q 290 779 290 772 m 387 416 l 547 416 l 547 718 q 530 769 547 752 q 475 799 500 799 q 435 792 450 799 q 410 775 420 786 q 387 719 387 752 l 387 416 m 468 1143 q 562 1199 537 1143 q 568 1232 568 1214 q 582 1262 568 1250 q 612 1274 595 1274 q 644 1263 629 1274 q 659 1217 659 1252 q 647 1148 659 1181 q 616 1091 635 1114 q 575 1055 598 1068 q 532 1034 553 1041 q 468 1021 497 1021 q 360 1055 416 1021 q 290 1147 312 1084 q 277 1217 277 1181 q 292 1263 277 1252 q 323 1274 307 1274 q 354 1262 340 1274 q 368 1232 368 1250 q 374 1199 368 1214 q 394 1171 381 1183 q 468 1143 422 1143 z "},"":{"ha":694,"x_min":106,"x_max":588,"o":"m 165 661 q 203 718 165 702 q 227 723 214 723 l 387 723 q 529 664 470 723 q 588 522 588 605 l 588 66 q 539 -7 588 14 q 507 -14 524 -14 q 476 -8 489 -14 q 455 5 464 -2 q 440 25 448 12 q 429 43 433 37 q 416 50 425 50 q 401 43 407 50 l 391 32 q 284 -14 345 -14 q 159 46 212 -14 q 106 187 106 105 l 106 281 q 165 422 106 363 q 307 481 223 481 l 427 481 l 427 520 q 410 571 427 554 q 347 601 380 601 l 227 601 q 189 614 202 601 q 165 661 165 635 m 267 189 q 283 138 267 154 q 338 109 313 109 q 378 114 363 109 q 404 127 393 119 q 427 178 427 146 l 427 359 l 347 359 q 296 342 313 359 q 267 279 267 313 l 267 189 m 347 949 q 441 1005 416 949 q 448 1038 448 1020 q 461 1068 448 1056 q 492 1080 475 1080 q 523 1069 509 1080 q 538 1023 538 1058 q 526 954 538 987 q 496 897 514 920 q 455 861 477 874 q 411 840 432 847 q 347 827 376 827 q 240 861 296 827 q 168 954 191 890 q 157 1023 157 987 q 171 1069 157 1058 q 203 1080 186 1080 q 233 1068 220 1080 q 247 1038 247 1056 q 254 1005 247 1020 q 273 977 260 989 q 347 949 302 949 z "},"":{"ha":809,"x_min":-43,"x_max":708,"o":"m 290 779 q 270 799 290 799 l 191 799 q 145 781 161 799 q 118 719 118 751 l 118 680 q 68 607 118 627 q 37 601 54 601 q 6 607 20 601 q -19 624 -9 613 q -43 680 -43 647 l -43 721 q 16 863 -43 804 q 158 922 75 922 l 467 922 q 644 867 580 922 q 708 721 708 813 l 708 66 q 694 22 708 41 q 658 -7 680 2 l 591 -86 q 559 -148 559 -123 q 609 -197 559 -197 l 659 -197 q 693 -211 678 -197 q 707 -247 707 -226 q 693 -282 707 -267 q 659 -297 679 -297 l 562 -297 q 449 -267 486 -297 q 413 -186 413 -237 q 506 -35 413 -130 l 562 20 q 547 66 547 41 l 547 294 l 387 294 l 387 66 q 369 16 387 34 q 315 -13 340 -13 q 275 -6 290 -13 q 249 11 260 0 q 226 66 226 33 l 226 294 l 177 294 q 140 307 153 294 q 117 355 117 330 q 135 398 117 380 q 177 416 152 416 l 226 416 l 226 648 q 283 766 226 712 q 290 779 290 772 m 387 416 l 547 416 l 547 718 q 530 769 547 752 q 475 799 500 799 q 435 792 450 799 q 410 775 420 786 q 387 719 387 752 l 387 416 z "},"":{"ha":694,"x_min":106,"x_max":588,"o":"m 534 -9 l 469 -85 q 437 -148 437 -124 q 487 -197 437 -197 l 536 -197 q 571 -211 556 -197 q 585 -247 585 -226 q 571 -282 585 -267 q 536 -297 557 -297 l 440 -297 q 327 -267 363 -297 q 291 -186 291 -237 q 385 -35 291 -128 l 441 21 q 434 33 436 29 q 416 50 427 50 q 401 43 407 50 l 391 32 q 284 -14 345 -14 q 159 46 212 -14 q 106 187 106 105 l 106 281 q 165 422 106 363 q 307 481 223 481 l 427 481 l 427 520 q 410 571 427 554 q 347 601 380 601 l 227 601 q 189 614 202 601 q 165 661 165 635 q 203 718 165 702 q 227 723 214 723 l 387 723 q 529 664 470 723 q 588 522 588 605 l 588 66 q 573 20 588 40 q 534 -9 558 -1 m 267 189 q 283 138 267 154 q 338 109 313 109 q 378 114 363 109 q 404 127 393 119 q 427 178 427 146 l 427 359 l 347 359 q 296 342 313 359 q 267 279 267 313 l 267 189 z "},"":{"ha":696,"x_min":106,"x_max":594,"o":"m 418 669 q 424 676 418 669 q 438 697 429 682 q 447 730 447 711 q 440 764 447 749 q 421 789 433 779 q 354 813 395 813 q 290 790 313 813 q 267 732 267 766 l 267 182 q 289 129 267 147 q 346 110 312 110 q 404 129 380 110 q 427 182 427 147 l 427 226 q 444 277 427 260 q 498 306 473 306 q 538 300 523 306 q 564 283 553 294 q 587 226 587 259 l 587 186 q 449 1 587 44 q 347 -13 404 -13 q 245 1 290 -13 q 170 41 200 15 q 106 188 106 95 l 106 736 q 168 880 106 827 q 347 935 233 935 q 529 880 463 935 q 594 735 594 827 q 521 542 594 592 q 476 526 498 526 q 438 532 453 526 q 413 549 424 538 q 390 599 390 571 q 399 641 390 627 q 418 669 408 656 m 371 1234 q 446 1279 404 1279 q 492 1261 475 1279 q 520 1208 520 1234 q 477 1127 520 1156 l 328 1023 q 299 1012 312 1012 q 264 1024 276 1012 q 253 1054 253 1036 q 264 1086 253 1071 l 371 1234 z "},"":{"ha":694,"x_min":106,"x_max":574,"o":"m 421 578 q 350 614 392 614 q 296 597 313 614 q 267 534 267 568 l 267 202 q 283 151 267 168 q 347 123 313 123 l 513 123 q 570 84 553 123 q 574 61 574 73 q 570 37 574 48 q 557 18 565 26 q 513 0 539 0 l 307 0 q 165 59 224 0 q 106 201 106 118 l 106 537 q 165 678 106 625 q 347 736 229 736 q 557 663 505 736 q 574 618 574 641 q 568 581 574 595 q 551 555 562 566 q 499 532 528 532 q 421 578 452 532 m 371 1063 q 446 1107 404 1107 q 492 1090 475 1107 q 520 1036 520 1062 q 477 956 520 985 l 328 851 q 299 840 312 840 q 264 852 276 840 q 253 882 253 865 q 264 915 253 899 l 371 1063 z "},"":{"ha":696,"x_min":106,"x_max":594,"o":"m 418 669 q 424 676 418 669 q 438 697 429 682 q 447 730 447 711 q 440 764 447 749 q 421 789 433 779 q 354 813 395 813 q 290 790 313 813 q 267 732 267 766 l 267 182 q 289 129 267 147 q 346 110 312 110 q 404 129 380 110 q 427 182 427 147 l 427 226 q 444 277 427 260 q 498 306 473 306 q 538 300 523 306 q 564 283 553 294 q 587 226 587 259 l 587 186 q 449 1 587 44 q 347 -13 404 -13 q 245 1 290 -13 q 170 41 200 15 q 106 188 106 95 l 106 736 q 168 880 106 827 q 347 935 233 935 q 529 880 463 935 q 594 735 594 827 q 521 542 594 592 q 476 526 498 526 q 438 532 453 526 q 413 549 424 538 q 390 599 390 571 q 399 641 390 627 q 418 669 408 656 m 503 1084 q 512 1053 512 1068 q 500 1025 512 1038 q 475 1013 489 1013 q 435 1026 448 1013 l 346 1117 l 257 1026 q 223 1013 243 1013 q 191 1025 203 1013 q 180 1053 180 1038 q 189 1084 180 1068 l 270 1229 q 347 1280 298 1280 q 422 1229 391 1280 l 503 1084 z "},"":{"ha":694,"x_min":106,"x_max":574,"o":"m 421 578 q 350 614 392 614 q 296 597 313 614 q 267 534 267 568 l 267 202 q 283 151 267 168 q 347 123 313 123 l 513 123 q 570 84 553 123 q 574 61 574 73 q 570 37 574 48 q 557 18 565 26 q 513 0 539 0 l 307 0 q 165 59 224 0 q 106 201 106 118 l 106 537 q 165 678 106 625 q 347 736 229 736 q 557 663 505 736 q 574 618 574 641 q 568 581 574 595 q 551 555 562 566 q 499 532 528 532 q 421 578 452 532 m 504 913 q 513 882 513 897 q 501 854 513 867 q 476 841 490 841 q 435 854 449 841 l 347 945 l 258 854 q 224 841 244 841 q 192 854 203 841 q 180 882 180 867 q 189 913 180 897 l 271 1057 q 347 1109 299 1109 q 422 1057 391 1109 l 504 913 z "},"":{"ha":696,"x_min":106,"x_max":594,"o":"m 418 669 q 424 676 418 669 q 438 697 429 682 q 447 730 447 711 q 440 764 447 749 q 421 789 433 779 q 354 813 395 813 q 290 790 313 813 q 267 732 267 766 l 267 182 q 289 129 267 147 q 346 110 312 110 q 404 129 380 110 q 427 182 427 147 l 427 226 q 444 277 427 260 q 498 306 473 306 q 538 300 523 306 q 564 283 553 294 q 587 226 587 259 l 587 186 q 449 1 587 44 q 347 -13 404 -13 q 245 1 290 -13 q 170 41 200 15 q 106 188 106 95 l 106 736 q 168 880 106 827 q 347 935 233 935 q 529 880 463 935 q 594 735 594 827 q 521 542 594 592 q 476 526 498 526 q 438 532 453 526 q 413 549 424 538 q 390 599 390 571 q 399 641 390 627 q 418 669 408 656 m 347 1206 q 411 1179 384 1206 q 438 1124 438 1152 q 431 1080 438 1096 q 411 1051 423 1063 q 347 1024 384 1024 q 282 1051 309 1024 q 255 1105 255 1078 q 282 1179 255 1152 q 347 1206 309 1206 z "},"":{"ha":694,"x_min":106,"x_max":574,"o":"m 421 578 q 350 614 392 614 q 296 597 313 614 q 267 534 267 568 l 267 202 q 283 151 267 168 q 347 123 313 123 l 513 123 q 570 84 553 123 q 574 61 574 73 q 570 37 574 48 q 557 18 565 26 q 513 0 539 0 l 307 0 q 165 59 224 0 q 106 201 106 118 l 106 537 q 165 678 106 625 q 347 736 229 736 q 557 663 505 736 q 574 618 574 641 q 568 581 574 595 q 551 555 562 566 q 499 532 528 532 q 421 578 452 532 m 349 1023 q 414 996 387 1023 q 441 941 441 969 q 433 897 441 913 q 414 869 426 881 q 349 842 387 842 q 285 869 312 842 q 258 923 258 896 q 285 996 258 969 q 349 1023 312 1023 z "},"":{"ha":696,"x_min":106,"x_max":594,"o":"m 418 669 q 424 676 418 669 q 438 697 429 682 q 447 730 447 711 q 440 764 447 749 q 421 789 433 779 q 354 813 395 813 q 290 790 313 813 q 267 732 267 766 l 267 182 q 289 129 267 147 q 346 110 312 110 q 404 129 380 110 q 427 182 427 147 l 427 226 q 444 277 427 260 q 498 306 473 306 q 538 300 523 306 q 564 283 553 294 q 587 226 587 259 l 587 186 q 449 1 587 44 q 347 -13 404 -13 q 245 1 290 -13 q 170 41 200 15 q 106 188 106 95 l 106 736 q 168 880 106 827 q 347 935 233 935 q 529 880 463 935 q 594 735 594 827 q 521 542 594 592 q 476 526 498 526 q 438 532 453 526 q 413 549 424 538 q 390 599 390 571 q 399 641 390 627 q 418 669 408 656 m 189 1208 q 180 1240 180 1225 q 192 1267 180 1255 q 217 1280 203 1280 q 258 1267 244 1280 l 347 1176 l 435 1267 q 469 1280 449 1280 q 501 1267 490 1280 q 513 1240 513 1255 q 504 1208 513 1225 l 422 1064 q 346 1013 394 1013 q 271 1064 302 1013 l 189 1208 z "},"":{"ha":694,"x_min":106,"x_max":574,"o":"m 421 578 q 350 614 392 614 q 296 597 313 614 q 267 534 267 568 l 267 202 q 283 151 267 168 q 347 123 313 123 l 513 123 q 570 84 553 123 q 574 61 574 73 q 570 37 574 48 q 557 18 565 26 q 513 0 539 0 l 307 0 q 165 59 224 0 q 106 201 106 118 l 106 537 q 165 678 106 625 q 347 736 229 736 q 557 663 505 736 q 574 618 574 641 q 568 581 574 595 q 551 555 562 566 q 499 532 528 532 q 421 578 452 532 m 190 1037 q 181 1068 181 1053 q 193 1096 181 1083 q 218 1109 204 1109 q 258 1095 245 1109 l 347 1004 l 436 1095 q 470 1109 450 1109 q 502 1096 490 1109 q 513 1068 513 1083 q 505 1037 513 1053 l 423 892 q 347 841 395 841 q 271 892 302 841 l 190 1037 z "},"":{"ha":809,"x_min":-43,"x_max":706,"o":"m 118 680 q 68 607 118 627 q 37 601 54 601 q 6 607 20 601 q -20 624 -9 613 q -43 680 -43 646 l -43 721 q 16 863 -43 804 q 158 922 75 922 l 506 922 q 648 863 589 922 q 706 721 706 804 l 706 201 q 648 59 706 117 q 506 0 589 0 l 150 0 q 111 13 125 0 q 88 54 88 35 q 93 84 88 73 q 106 104 98 96 q 150 123 125 123 l 226 123 l 226 648 q 283 767 226 713 q 290 779 290 772 q 285 792 290 785 q 268 800 281 800 l 191 800 q 145 781 161 800 q 118 719 118 751 l 118 680 m 387 123 l 467 123 q 517 140 499 123 q 546 202 546 168 l 546 719 q 529 770 546 753 q 474 800 499 800 q 434 793 449 800 q 408 776 419 787 q 387 720 387 753 l 387 123 m 289 1208 q 280 1240 280 1225 q 292 1267 280 1255 q 317 1280 303 1280 q 357 1267 344 1280 l 446 1176 l 535 1267 q 569 1280 549 1280 q 601 1267 589 1280 q 612 1240 612 1255 q 604 1208 612 1225 l 522 1064 q 446 1013 494 1013 q 370 1064 401 1013 l 289 1208 z "},"":{"ha":806,"x_min":106,"x_max":845,"o":"m 588 66 q 539 -7 588 14 q 507 -14 524 -14 q 476 -8 489 -14 q 454 4 463 -3 q 437 25 442 15 q 428 42 432 35 q 416 50 424 50 q 401 43 408 50 l 389 32 q 284 -14 345 -14 q 158 46 211 -14 q 106 187 106 104 l 106 522 q 165 664 106 605 q 307 723 224 723 l 427 723 l 427 963 q 444 1014 427 997 q 507 1043 473 1043 q 559 1026 542 1043 q 588 963 588 997 l 588 66 m 267 181 q 289 128 267 146 q 337 109 312 109 q 377 114 363 109 q 403 127 392 119 q 427 178 427 146 l 427 601 l 347 601 q 296 583 313 601 q 267 520 267 554 l 267 181 m 753 935 q 845 806 845 935 q 825 688 845 736 q 785 619 805 640 q 741 598 764 598 q 705 612 718 598 q 692 641 692 625 q 696 666 692 656 q 705 684 700 675 q 718 726 718 707 q 710 759 718 745 q 692 785 703 772 q 667 841 667 817 q 673 881 667 865 q 690 909 679 897 q 753 935 713 935 z "},"":{"ha":896,"x_min":41,"x_max":790,"o":"m 201 680 q 152 607 201 627 q 120 601 137 601 q 89 607 104 601 q 64 624 75 613 q 41 680 41 646 l 41 721 q 100 863 41 804 q 241 922 159 922 l 590 922 q 732 863 673 922 q 790 721 790 804 l 790 201 q 732 59 790 117 q 590 0 673 0 l 220 0 q 181 13 195 0 q 158 54 158 35 q 163 84 158 73 q 176 104 168 96 q 220 123 195 123 l 309 123 l 309 379 l 223 379 q 193 390 205 379 q 181 417 181 401 q 193 444 182 433 q 221 455 204 455 l 309 455 l 309 648 q 368 767 309 713 q 373 779 373 772 q 369 792 373 785 q 351 800 364 800 l 275 800 q 229 781 245 800 q 201 719 201 751 l 201 680 m 470 379 l 470 123 l 551 123 q 624 171 602 123 q 630 202 630 185 l 630 719 q 613 769 630 751 q 551 800 584 800 l 544 800 q 491 775 512 798 q 470 720 470 753 l 470 455 l 511 455 q 538 444 527 455 q 549 416 549 433 q 538 390 549 400 q 511 379 527 379 l 470 379 z "},"":{"ha":694,"x_min":106,"x_max":694,"o":"m 588 907 l 656 907 q 683 896 672 907 q 694 868 694 884 q 683 841 694 852 q 656 831 672 831 l 588 831 l 588 66 q 539 -7 588 14 q 507 -14 524 -14 q 476 -8 489 -14 q 454 4 463 -3 q 437 25 442 15 q 428 42 432 35 q 416 50 424 50 q 401 43 408 50 l 389 32 q 284 -14 345 -14 q 158 46 211 -14 q 106 187 106 104 l 106 522 q 165 664 106 605 q 307 723 224 723 l 427 723 l 427 831 l 233 831 q 202 842 214 831 q 191 869 191 852 q 202 896 191 885 q 231 907 214 907 l 427 907 l 427 963 q 444 1014 427 997 q 507 1043 473 1043 q 559 1026 542 1043 q 588 963 588 997 l 588 907 m 267 181 q 289 128 267 146 q 337 109 312 109 q 377 114 363 109 q 403 127 392 119 q 427 178 427 146 l 427 601 l 347 601 q 296 583 313 601 q 267 520 267 554 l 267 181 z "},"":{"ha":694,"x_min":103,"x_max":600,"o":"m 353 935 q 457 922 411 935 q 534 882 503 908 q 600 735 600 828 q 526 542 600 592 q 481 526 504 526 q 444 532 458 526 q 418 549 429 538 q 395 599 395 571 q 404 641 395 627 q 424 669 413 656 q 452 737 452 704 q 427 791 452 770 q 359 812 401 812 q 290 794 316 812 q 263 741 263 775 l 263 532 q 280 481 263 499 q 342 452 309 452 l 355 452 q 398 434 380 452 q 415 390 415 416 q 398 347 415 365 q 359 330 380 330 q 323 323 338 330 q 298 307 309 317 q 275 250 275 283 l 275 202 q 292 151 275 168 q 355 122 321 122 q 401 138 385 122 q 429 193 429 168 q 435 232 429 217 q 452 257 441 246 q 509 281 476 281 q 559 263 542 281 q 589 194 589 234 q 573 118 589 155 q 527 54 557 81 q 355 0 465 0 q 176 54 241 0 q 114 199 114 108 l 114 220 q 171 361 114 312 q 210 388 188 376 q 127 449 151 411 q 103 540 103 486 l 103 734 q 169 881 103 827 q 353 935 235 935 m 528 1164 q 535 1157 528 1164 q 546 1140 541 1151 q 551 1116 551 1128 q 546 1092 551 1103 q 533 1073 541 1081 q 491 1055 516 1055 l 218 1055 q 181 1067 194 1055 q 158 1109 158 1090 q 163 1140 158 1128 q 176 1160 168 1151 q 218 1177 193 1177 l 491 1177 q 528 1164 515 1177 z "},"":{"ha":694,"x_min":106,"x_max":588,"o":"m 467 123 q 510 104 492 123 q 528 61 528 86 q 510 18 528 35 q 467 0 492 0 l 307 0 q 165 59 224 0 q 106 201 106 118 l 106 534 q 168 681 106 626 q 347 736 233 736 q 525 681 460 736 q 588 532 588 625 l 588 342 q 571 292 588 309 q 507 262 542 262 l 267 262 l 267 202 q 283 151 267 168 q 347 123 313 123 l 467 123 m 427 534 q 410 585 427 568 q 347 614 380 614 q 296 597 313 614 q 267 534 267 568 l 267 381 l 427 381 l 427 534 m 513 986 q 520 979 513 986 q 531 961 526 972 q 536 938 536 950 q 531 914 536 925 q 518 894 526 903 q 476 876 501 876 l 203 876 q 165 890 179 876 q 143 931 143 912 q 148 961 143 950 q 161 981 153 972 q 203 999 178 999 l 476 999 q 513 986 500 999 z "},"":{"ha":694,"x_min":103,"x_max":600,"o":"m 353 935 q 457 922 411 935 q 534 882 503 908 q 600 735 600 828 q 526 542 600 592 q 481 526 504 526 q 444 532 458 526 q 418 549 429 538 q 395 599 395 571 q 404 641 395 627 q 424 669 413 656 q 452 737 452 704 q 427 791 452 770 q 359 812 401 812 q 290 794 316 812 q 263 741 263 775 l 263 532 q 280 481 263 499 q 342 452 309 452 l 355 452 q 398 434 380 452 q 415 390 415 416 q 398 347 415 365 q 359 330 380 330 q 323 323 338 330 q 298 307 309 317 q 275 250 275 283 l 275 202 q 292 151 275 168 q 355 122 321 122 q 401 138 385 122 q 429 193 429 168 q 435 232 429 217 q 452 257 441 246 q 509 281 476 281 q 559 263 542 281 q 589 194 589 234 q 573 118 589 155 q 527 54 557 81 q 355 0 465 0 q 176 54 241 0 q 114 199 114 108 l 114 220 q 171 361 114 312 q 210 388 188 376 q 127 449 151 411 q 103 540 103 486 l 103 734 q 169 881 103 827 q 353 935 235 935 m 355 1143 q 449 1199 425 1143 q 456 1232 456 1214 q 469 1262 456 1250 q 500 1274 483 1274 q 531 1263 517 1274 q 546 1217 546 1252 q 534 1148 546 1181 q 504 1091 522 1114 q 463 1055 486 1068 q 419 1034 440 1041 q 355 1021 385 1021 q 248 1055 304 1021 q 177 1147 199 1084 q 165 1217 165 1181 q 179 1263 165 1252 q 211 1274 194 1274 q 241 1262 228 1274 q 255 1232 255 1250 q 262 1199 255 1214 q 281 1171 269 1183 q 355 1143 310 1143 z "},"":{"ha":694,"x_min":106,"x_max":588,"o":"m 467 123 q 510 104 492 123 q 528 61 528 86 q 510 18 528 35 q 467 0 492 0 l 307 0 q 165 59 224 0 q 106 201 106 118 l 106 534 q 168 681 106 626 q 347 736 233 736 q 525 681 460 736 q 588 532 588 625 l 588 342 q 571 292 588 309 q 507 262 542 262 l 267 262 l 267 202 q 283 151 267 168 q 347 123 313 123 l 467 123 m 427 534 q 410 585 427 568 q 347 614 380 614 q 296 597 313 614 q 267 534 267 568 l 267 381 l 427 381 l 427 534 m 347 963 q 441 1019 416 963 q 448 1052 448 1034 q 461 1082 448 1069 q 492 1094 475 1094 q 523 1083 509 1094 q 538 1036 538 1072 q 526 967 538 1001 q 496 911 514 934 q 455 874 477 888 q 411 853 432 861 q 347 841 376 841 q 240 874 296 841 q 168 967 191 903 q 157 1036 157 1001 q 171 1083 157 1072 q 203 1094 186 1094 q 233 1082 220 1094 q 247 1052 247 1069 q 254 1018 247 1034 q 273 991 260 1003 q 347 963 302 963 z "},"":{"ha":694,"x_min":103,"x_max":600,"o":"m 353 935 q 457 922 411 935 q 534 882 503 908 q 600 735 600 828 q 526 542 600 592 q 481 526 504 526 q 444 532 458 526 q 418 549 429 538 q 395 599 395 571 q 404 641 395 627 q 424 669 413 656 q 452 737 452 704 q 427 791 452 770 q 359 812 401 812 q 290 794 316 812 q 263 741 263 775 l 263 532 q 280 481 263 499 q 342 452 309 452 l 355 452 q 398 434 380 452 q 415 390 415 416 q 398 347 415 365 q 359 330 380 330 q 323 323 338 330 q 298 307 309 317 q 275 250 275 283 l 275 202 q 292 151 275 168 q 355 122 321 122 q 401 138 385 122 q 429 193 429 168 q 435 232 429 217 q 452 257 441 246 q 509 281 476 281 q 559 263 542 281 q 589 194 589 234 q 573 118 589 155 q 527 54 557 81 q 355 0 465 0 q 176 54 241 0 q 114 199 114 108 l 114 220 q 171 361 114 312 q 210 388 188 376 q 127 449 151 411 q 103 540 103 486 l 103 734 q 169 881 103 827 q 353 935 235 935 m 355 1206 q 420 1179 393 1206 q 447 1124 447 1152 q 439 1080 447 1096 q 420 1051 432 1063 q 355 1024 393 1024 q 291 1051 318 1024 q 264 1105 264 1078 q 291 1179 264 1152 q 355 1206 318 1206 z "},"":{"ha":694,"x_min":106,"x_max":588,"o":"m 467 123 q 510 104 492 123 q 528 61 528 86 q 510 18 528 35 q 467 0 492 0 l 307 0 q 165 59 224 0 q 106 201 106 118 l 106 534 q 168 681 106 626 q 347 736 233 736 q 525 681 460 736 q 588 532 588 625 l 588 342 q 571 292 588 309 q 507 262 542 262 l 267 262 l 267 202 q 283 151 267 168 q 347 123 313 123 l 467 123 m 427 534 q 410 585 427 568 q 347 614 380 614 q 296 597 313 614 q 267 534 267 568 l 267 381 l 427 381 l 427 534 m 350 1023 q 414 996 387 1023 q 441 941 441 969 q 434 897 441 913 q 414 869 427 881 q 350 842 387 842 q 286 869 313 842 q 258 923 258 896 q 286 996 258 969 q 350 1023 313 1023 z "},"":{"ha":694,"x_min":103,"x_max":600,"o":"m 422 6 l 347 -84 q 313 -149 313 -124 q 363 -197 313 -197 l 412 -197 q 447 -211 432 -197 q 461 -247 461 -226 q 447 -282 461 -267 q 412 -297 433 -297 l 316 -297 q 203 -267 239 -297 q 167 -186 167 -237 q 248 -47 167 -131 l 299 3 q 161 68 209 16 q 114 199 114 119 l 114 220 q 171 361 114 312 q 210 388 188 376 q 127 449 151 411 q 103 540 103 486 l 103 734 q 169 881 103 827 q 352 935 235 935 q 583 819 530 935 q 600 735 600 782 q 591 651 600 689 q 566 585 582 612 q 475 526 531 526 q 425 543 442 526 q 395 599 395 571 q 404 641 395 627 q 424 669 413 656 q 452 737 452 704 q 427 791 452 770 q 359 812 401 812 q 290 794 316 812 q 263 741 263 775 l 263 532 q 280 481 263 499 q 342 452 309 452 l 355 452 q 398 434 380 452 q 415 390 415 416 q 398 347 415 365 q 359 330 380 330 q 323 323 338 330 q 298 307 309 317 q 275 250 275 283 l 275 202 q 292 151 275 168 q 355 122 321 122 q 401 138 385 122 q 429 193 429 168 q 435 232 429 217 q 452 257 441 246 q 509 281 476 281 q 559 263 542 281 q 589 201 589 234 q 546 73 589 123 q 422 6 503 22 z "},"":{"ha":694,"x_min":106,"x_max":588,"o":"m 486 3 q 444 -47 464 -25 q 412 -84 425 -69 q 379 -149 379 -124 q 429 -197 379 -197 l 478 -197 q 512 -211 498 -197 q 527 -247 527 -226 q 513 -282 527 -267 q 478 -297 498 -297 l 382 -297 q 269 -267 305 -297 q 233 -186 233 -237 q 260 -111 233 -148 q 312 -50 288 -74 l 361 0 l 307 0 q 165 59 224 0 q 106 201 106 118 l 106 534 q 168 681 106 626 q 347 736 233 736 q 525 681 460 736 q 588 532 588 625 l 588 342 q 571 292 588 309 q 507 262 542 262 l 267 262 l 267 202 q 283 151 267 168 q 347 123 313 123 l 467 123 q 510 104 492 123 q 528 63 528 86 q 516 25 528 41 q 486 3 504 9 m 427 534 q 410 585 427 568 q 347 614 380 614 q 296 597 313 614 q 267 534 267 568 l 267 381 l 427 381 l 427 534 z "},"":{"ha":694,"x_min":103,"x_max":600,"o":"m 353 935 q 457 922 411 935 q 534 882 503 908 q 600 735 600 828 q 526 542 600 592 q 481 526 504 526 q 444 532 458 526 q 418 549 429 538 q 395 599 395 571 q 404 641 395 627 q 424 669 413 656 q 452 737 452 704 q 427 791 452 770 q 359 812 401 812 q 290 794 316 812 q 263 741 263 775 l 263 532 q 280 481 263 499 q 342 452 309 452 l 355 452 q 398 434 380 452 q 415 390 415 416 q 398 347 415 365 q 359 330 380 330 q 323 323 338 330 q 298 307 309 317 q 275 250 275 283 l 275 202 q 292 151 275 168 q 355 122 321 122 q 401 138 385 122 q 429 193 429 168 q 435 232 429 217 q 452 257 441 246 q 509 281 476 281 q 559 263 542 281 q 589 194 589 234 q 573 118 589 155 q 527 54 557 81 q 355 0 465 0 q 176 54 241 0 q 114 199 114 108 l 114 220 q 171 361 114 312 q 210 388 188 376 q 127 449 151 411 q 103 540 103 486 l 103 734 q 169 881 103 827 q 353 935 235 935 m 198 1208 q 189 1240 189 1225 q 201 1267 189 1255 q 226 1280 212 1280 q 267 1267 253 1280 l 355 1176 l 444 1267 q 478 1280 458 1280 q 510 1267 498 1280 q 522 1240 522 1255 q 513 1208 522 1225 l 431 1064 q 355 1013 403 1013 q 279 1064 311 1013 l 198 1208 z "},"":{"ha":694,"x_min":106,"x_max":588,"o":"m 467 123 q 510 104 492 123 q 528 61 528 86 q 510 18 528 35 q 467 0 492 0 l 307 0 q 165 59 224 0 q 106 201 106 118 l 106 534 q 168 681 106 626 q 347 736 233 736 q 525 681 460 736 q 588 532 588 625 l 588 342 q 571 292 588 309 q 507 262 542 262 l 267 262 l 267 202 q 283 151 267 168 q 347 123 313 123 l 467 123 m 427 534 q 410 585 427 568 q 347 614 380 614 q 296 597 313 614 q 267 534 267 568 l 267 381 l 427 381 l 427 534 m 191 1037 q 182 1068 182 1053 q 193 1096 182 1083 q 218 1109 205 1109 q 259 1095 245 1109 l 348 1004 l 437 1095 q 471 1109 450 1109 q 503 1096 491 1109 q 514 1068 514 1083 q 505 1037 514 1053 l 424 892 q 347 841 395 841 q 272 892 303 841 l 191 1037 z "},"":{"ha":693,"x_min":106,"x_max":594,"o":"m 418 669 q 424 676 418 669 q 438 697 429 682 q 447 730 447 711 q 440 764 447 749 q 421 789 433 779 q 354 813 395 813 q 290 790 313 813 q 267 732 267 766 l 267 182 q 290 129 267 147 q 347 110 313 110 q 404 129 380 110 q 427 182 427 147 l 427 298 q 444 349 427 332 q 498 378 473 378 q 538 372 523 378 q 564 355 553 366 q 587 298 587 332 l 587 -97 q 529 -239 587 -180 q 388 -298 470 -298 l 308 -298 q 264 -280 282 -298 q 247 -237 247 -262 q 264 -193 247 -212 q 308 -175 282 -175 l 347 -175 q 397 -159 380 -175 q 427 -96 427 -130 l 427 28 q 419 45 427 41 q 406 50 412 50 q 393 43 399 50 l 382 33 q 276 -14 336 -14 q 155 46 203 -14 q 106 187 106 104 l 106 736 q 168 880 106 827 q 347 935 233 935 q 529 880 463 935 q 594 735 594 827 q 521 542 594 592 q 476 526 498 526 q 438 532 453 526 q 413 549 424 538 q 390 599 390 571 q 399 641 390 627 q 418 669 408 656 m 504 1084 q 513 1053 513 1068 q 501 1025 513 1038 q 476 1013 490 1013 q 435 1026 449 1013 l 347 1117 l 258 1026 q 224 1013 244 1013 q 192 1025 203 1013 q 180 1053 180 1038 q 189 1084 180 1068 l 271 1229 q 347 1280 299 1280 q 422 1229 391 1280 l 504 1084 z "},"":{"ha":694,"x_min":106,"x_max":588,"o":"m 588 -121 q 529 -262 588 -204 q 387 -321 469 -321 l 267 -321 q 223 -304 241 -321 q 205 -260 205 -286 q 223 -217 205 -235 q 267 -199 241 -199 l 347 -199 q 397 -182 380 -199 q 427 -119 427 -153 l 427 28 q 419 45 427 41 q 406 50 412 50 q 393 43 399 50 l 382 33 q 276 -14 336 -14 q 155 46 203 -14 q 106 187 106 104 l 106 522 q 165 664 106 605 q 307 723 224 723 l 507 723 q 582 673 560 723 q 588 642 588 659 l 588 -121 m 267 189 q 283 138 267 155 q 338 109 313 109 q 377 114 363 109 q 403 128 391 119 q 427 181 427 149 l 427 601 l 347 601 q 296 583 313 601 q 267 520 267 554 l 267 189 m 505 899 q 513 868 513 883 q 502 840 513 853 q 477 827 490 827 q 436 841 450 827 l 347 932 l 258 841 q 224 827 245 827 q 193 840 204 827 q 181 868 181 853 q 190 899 181 883 l 271 1044 q 348 1095 300 1095 q 423 1044 392 1095 l 505 899 z "},"":{"ha":693,"x_min":106,"x_max":594,"o":"m 418 669 q 424 676 418 669 q 438 697 429 682 q 447 730 447 711 q 440 764 447 749 q 421 789 433 779 q 354 813 395 813 q 290 790 313 813 q 267 732 267 766 l 267 182 q 290 129 267 147 q 347 110 313 110 q 404 129 380 110 q 427 182 427 147 l 427 298 q 444 349 427 332 q 498 378 473 378 q 538 372 523 378 q 564 355 553 366 q 587 298 587 332 l 587 -97 q 529 -239 587 -180 q 388 -298 470 -298 l 308 -298 q 264 -280 282 -298 q 247 -237 247 -262 q 264 -193 247 -212 q 308 -175 282 -175 l 347 -175 q 397 -159 380 -175 q 427 -96 427 -130 l 427 28 q 419 45 427 41 q 406 50 412 50 q 393 43 399 50 l 382 33 q 276 -14 336 -14 q 155 46 203 -14 q 106 187 106 104 l 106 736 q 168 880 106 827 q 347 935 233 935 q 529 880 463 935 q 594 735 594 827 q 521 542 594 592 q 476 526 498 526 q 438 532 453 526 q 413 549 424 538 q 390 599 390 571 q 399 641 390 627 q 418 669 408 656 m 347 1143 q 441 1199 416 1143 q 448 1232 448 1214 q 461 1262 448 1250 q 492 1274 475 1274 q 523 1263 509 1274 q 538 1217 538 1252 q 526 1148 538 1181 q 496 1091 514 1114 q 455 1055 477 1068 q 411 1034 432 1041 q 347 1021 376 1021 q 239 1055 296 1021 q 169 1147 191 1084 q 157 1217 157 1181 q 171 1263 157 1252 q 203 1274 186 1274 q 233 1262 220 1274 q 247 1232 247 1250 q 254 1199 247 1214 q 273 1171 260 1183 q 347 1143 302 1143 z "},"":{"ha":694,"x_min":106,"x_max":588,"o":"m 588 -121 q 529 -262 588 -204 q 387 -321 469 -321 l 267 -321 q 223 -304 241 -321 q 205 -260 205 -286 q 223 -217 205 -235 q 267 -199 241 -199 l 347 -199 q 397 -182 380 -199 q 427 -119 427 -153 l 427 28 q 419 45 427 41 q 406 50 412 50 q 393 43 399 50 l 382 33 q 276 -14 336 -14 q 155 46 203 -14 q 106 187 106 104 l 106 522 q 165 664 106 605 q 307 723 224 723 l 507 723 q 582 673 560 723 q 588 642 588 659 l 588 -121 m 267 189 q 283 138 267 155 q 338 109 313 109 q 377 114 363 109 q 403 128 391 119 q 427 181 427 149 l 427 601 l 347 601 q 296 583 313 601 q 267 520 267 554 l 267 189 m 347 949 q 441 1005 416 949 q 448 1038 448 1020 q 461 1068 448 1056 q 492 1080 475 1080 q 523 1069 509 1080 q 538 1023 538 1058 q 526 954 538 987 q 496 897 514 920 q 455 861 477 874 q 411 840 432 847 q 347 827 376 827 q 240 861 296 827 q 168 954 191 890 q 157 1023 157 987 q 171 1069 157 1058 q 203 1080 186 1080 q 233 1068 220 1080 q 247 1038 247 1056 q 254 1005 247 1020 q 273 977 260 989 q 347 949 302 949 z "},"":{"ha":693,"x_min":106,"x_max":594,"o":"m 418 669 q 424 676 418 669 q 438 697 429 682 q 447 730 447 711 q 440 764 447 749 q 421 789 433 779 q 354 813 395 813 q 290 790 313 813 q 267 732 267 766 l 267 182 q 290 129 267 147 q 347 110 313 110 q 404 129 380 110 q 427 182 427 147 l 427 298 q 444 349 427 332 q 498 378 473 378 q 538 372 523 378 q 564 355 553 366 q 587 298 587 332 l 587 -97 q 529 -239 587 -180 q 388 -298 470 -298 l 308 -298 q 264 -280 282 -298 q 247 -237 247 -262 q 264 -193 247 -212 q 308 -175 282 -175 l 347 -175 q 397 -159 380 -175 q 427 -96 427 -130 l 427 28 q 419 45 427 41 q 406 50 412 50 q 393 43 399 50 l 382 33 q 276 -14 336 -14 q 155 46 203 -14 q 106 187 106 104 l 106 736 q 168 880 106 827 q 347 935 233 935 q 529 880 463 935 q 594 735 594 827 q 521 542 594 592 q 476 526 498 526 q 438 532 453 526 q 413 549 424 538 q 390 599 390 571 q 399 641 390 627 q 418 669 408 656 m 347 1206 q 412 1179 385 1206 q 439 1124 439 1152 q 431 1080 439 1096 q 412 1051 424 1063 q 347 1024 385 1024 q 283 1051 310 1024 q 256 1105 256 1078 q 283 1179 256 1152 q 347 1206 310 1206 z "},"":{"ha":694,"x_min":106,"x_max":588,"o":"m 588 -121 q 529 -262 588 -204 q 387 -321 469 -321 l 267 -321 q 223 -304 241 -321 q 205 -260 205 -286 q 223 -217 205 -235 q 267 -199 241 -199 l 347 -199 q 397 -182 380 -199 q 427 -119 427 -153 l 427 28 q 419 45 427 41 q 406 50 412 50 q 393 43 399 50 l 382 33 q 276 -14 336 -14 q 155 46 203 -14 q 106 187 106 104 l 106 522 q 165 664 106 605 q 307 723 224 723 l 507 723 q 582 673 560 723 q 588 642 588 659 l 588 -121 m 267 189 q 283 138 267 155 q 338 109 313 109 q 377 114 363 109 q 403 128 391 119 q 427 181 427 149 l 427 601 l 347 601 q 296 583 313 601 q 267 520 267 554 l 267 189 m 350 1010 q 414 983 387 1010 q 441 928 441 956 q 434 884 441 900 q 414 855 427 867 q 350 828 387 828 q 286 855 313 828 q 258 909 258 882 q 286 983 258 956 q 350 1010 313 1010 z "},"":{"ha":693,"x_min":106,"x_max":594,"o":"m 418 669 q 424 676 418 669 q 438 697 429 682 q 447 730 447 711 q 440 764 447 749 q 421 789 433 779 q 354 813 395 813 q 290 790 313 813 q 267 732 267 766 l 267 182 q 290 129 267 147 q 347 110 313 110 q 404 129 380 110 q 427 182 427 147 l 427 298 q 444 349 427 332 q 498 378 473 378 q 538 372 523 378 q 564 355 553 366 q 587 298 587 332 l 587 3 q 565 -62 587 -39 q 502 -85 543 -85 q 455 -68 471 -85 q 427 3 427 -37 l 427 28 q 419 45 427 41 q 406 50 412 50 q 393 43 399 50 l 382 33 q 276 -14 336 -14 q 155 46 203 -14 q 106 187 106 104 l 106 736 q 168 880 106 827 q 347 935 233 935 q 529 880 463 935 q 594 735 594 827 q 521 542 594 592 q 476 526 498 526 q 438 532 453 526 q 413 549 424 538 q 390 599 390 571 q 399 641 390 627 q 418 669 408 656 m 305 -269 q 308 -264 305 -269 q 314 -252 310 -260 q 318 -227 318 -244 q 302 -197 318 -210 q 275 -146 275 -172 q 281 -108 275 -121 q 298 -84 287 -94 q 348 -63 321 -63 q 391 -71 375 -63 q 417 -92 407 -79 q 437 -164 437 -119 q 388 -313 437 -256 q 338 -345 361 -345 q 304 -332 315 -345 q 292 -307 292 -320 q 296 -285 292 -293 q 305 -269 300 -277 z "},"":{"ha":694,"x_min":106,"x_max":588,"o":"m 588 -121 q 529 -262 588 -204 q 387 -321 469 -321 l 267 -321 q 223 -304 241 -321 q 205 -260 205 -286 q 223 -217 205 -235 q 267 -199 241 -199 l 347 -199 q 397 -182 380 -199 q 427 -119 427 -153 l 427 28 q 419 45 427 41 q 406 50 412 50 q 393 43 399 50 l 382 33 q 276 -14 336 -14 q 155 46 203 -14 q 106 187 106 104 l 106 522 q 165 664 106 605 q 307 723 224 723 l 507 723 q 582 673 560 723 q 588 642 588 659 l 588 -121 m 267 189 q 283 138 267 155 q 338 109 313 109 q 377 114 363 109 q 403 128 391 119 q 427 181 427 149 l 427 601 l 347 601 q 296 583 313 601 q 267 520 267 554 l 267 189 m 401 1093 q 399 1088 401 1093 q 393 1076 397 1084 q 389 1051 389 1068 q 404 1021 389 1034 q 432 970 432 996 q 426 932 432 945 q 409 908 420 918 q 358 887 385 887 q 316 895 332 887 q 290 916 300 903 q 270 988 270 943 q 319 1137 270 1080 q 368 1168 345 1168 q 403 1156 391 1168 q 414 1131 414 1144 q 410 1109 414 1117 q 401 1093 406 1101 z "},"":{"ha":925,"x_min":43,"x_max":794,"o":"m 228 307 q 221 313 228 307 q 210 331 214 320 q 205 361 205 342 q 222 398 205 380 q 264 416 239 416 l 312 416 l 312 800 l 281 800 q 225 777 247 800 q 204 719 204 755 l 204 680 q 155 607 204 627 q 123 601 140 601 q 92 607 106 601 q 66 624 77 613 q 43 680 43 647 l 43 721 q 103 863 43 804 q 244 922 163 922 l 392 922 q 442 905 425 922 q 472 840 472 875 l 472 416 l 634 416 l 634 840 q 682 916 634 894 q 714 922 697 922 q 746 915 732 922 q 771 898 760 909 q 794 840 794 875 l 794 79 q 746 7 794 28 q 714 0 732 0 q 683 6 697 0 q 657 23 668 13 q 634 79 634 45 l 634 294 l 472 294 l 472 201 q 414 59 472 117 q 272 0 355 0 l 193 0 q 150 18 168 0 q 132 61 132 35 q 150 104 132 86 q 193 123 168 123 l 232 123 q 283 140 265 123 q 312 202 312 168 l 312 294 l 264 294 q 228 307 241 294 m 701 1084 q 709 1053 709 1068 q 698 1025 709 1038 q 673 1013 686 1013 q 632 1026 646 1013 l 543 1117 l 454 1026 q 420 1013 441 1013 q 389 1025 400 1013 q 377 1053 377 1038 q 386 1084 377 1068 l 467 1229 q 544 1280 496 1280 q 619 1229 588 1280 l 701 1084 z "},"":{"ha":694,"x_min":106,"x_max":588,"o":"m 250 16 q 241 8 250 16 q 218 -7 233 -1 q 187 -14 203 -14 q 155 -7 170 -14 q 130 9 140 -1 q 106 66 106 33 l 106 963 q 123 1013 106 996 q 178 1043 153 1043 q 218 1037 203 1043 q 243 1020 233 1031 q 267 963 267 996 l 267 695 q 274 678 267 682 q 288 673 281 673 q 301 680 295 673 l 312 690 q 418 736 358 736 q 540 677 492 736 q 588 536 588 618 l 588 66 q 540 -7 588 14 q 508 -14 525 -14 q 477 -7 492 -14 q 451 9 462 -1 q 427 66 427 33 l 427 534 q 410 585 427 568 q 356 614 380 614 q 317 609 331 614 q 292 595 302 604 q 267 542 267 574 l 267 66 q 250 16 267 33 m 504 1084 q 513 1053 513 1068 q 501 1025 513 1038 q 476 1013 490 1013 q 435 1026 449 1013 l 347 1117 l 258 1026 q 224 1013 244 1013 q 192 1025 203 1013 q 180 1053 180 1038 q 189 1084 180 1068 l 271 1229 q 347 1280 299 1280 q 422 1229 391 1280 l 504 1084 z "},"":{"ha":900,"x_min":132,"x_max":894,"o":"m 795 563 l 794 66 q 746 -7 794 16 q 714 -13 732 -13 q 683 -6 697 -13 q 657 11 668 0 q 634 66 634 33 l 634 294 l 472 294 l 472 201 q 414 59 472 117 q 272 0 355 0 l 193 0 q 150 18 168 0 q 132 61 132 35 q 150 104 132 86 q 193 123 168 123 l 232 123 q 283 140 265 123 q 312 202 312 168 l 312 294 l 264 294 q 228 307 241 294 q 205 355 205 330 q 222 398 205 380 q 264 416 239 416 l 312 416 l 312 563 l 248 563 q 217 574 229 563 q 206 601 205 585 q 217 628 206 617 q 245 639 229 639 l 312 639 l 312 796 l 194 796 q 137 834 153 796 q 132 858 132 845 q 170 917 132 899 q 194 922 181 922 l 392 922 q 442 905 425 922 q 472 840 472 875 l 472 639 l 635 639 l 636 854 q 685 929 636 907 q 716 935 699 935 q 748 929 734 935 q 773 911 762 922 q 796 854 796 888 l 795 639 l 855 639 q 883 628 871 639 q 894 600 894 616 q 883 573 894 584 q 856 563 871 563 l 795 563 m 634 416 l 635 563 l 472 563 l 472 416 l 634 416 z "},"":{"ha":693,"x_min":-9,"x_max":588,"o":"m 268 831 l 268 695 q 275 678 268 682 q 289 673 282 673 q 302 680 296 673 q 313 690 302 680 q 418 736 359 736 q 540 677 492 736 q 588 536 588 618 l 588 66 q 539 -7 588 14 q 508 -14 525 -14 q 477 -7 492 -14 q 451 9 462 -1 q 427 66 427 33 l 427 534 q 410 585 427 568 q 356 614 380 614 q 317 609 332 614 q 292 595 303 604 q 268 542 268 574 l 268 66 q 250 16 268 33 q 156 -7 205 -28 q 113 35 126 5 q 106 66 106 50 l 106 831 l 33 831 q 2 842 14 831 q -9 869 -9 852 q 2 896 -9 885 q 31 907 14 907 l 106 907 l 106 963 q 124 1013 106 996 q 179 1043 153 1043 q 219 1037 204 1043 q 244 1020 233 1031 q 268 963 268 996 l 268 907 l 469 907 q 497 896 486 907 q 508 868 508 884 q 497 841 508 852 q 470 831 486 831 l 268 831 z "},"":{"ha":580,"x_min":20,"x_max":575,"o":"m 181 680 q 132 607 181 627 q 100 601 117 601 q 69 607 83 601 q 43 624 54 613 q 20 680 20 647 l 20 721 q 80 863 20 804 q 221 922 140 922 l 369 922 q 419 905 402 922 q 449 840 449 875 l 449 201 q 391 59 449 117 q 249 0 332 0 l 170 0 q 127 18 144 0 q 109 61 109 35 q 127 104 109 86 q 170 123 144 123 l 209 123 q 260 140 242 123 q 289 202 289 168 l 289 800 l 258 800 q 209 782 226 800 q 181 719 181 752 l 181 680 m 505 1198 q 535 1210 518 1210 q 564 1198 553 1210 q 575 1168 575 1185 q 561 1130 575 1150 q 531 1090 547 1109 q 494 1055 514 1070 q 409 1025 454 1025 q 336 1044 364 1025 q 295 1080 309 1064 l 277 1101 q 267 1106 273 1106 q 241 1090 259 1106 l 199 1055 q 168 1044 185 1044 q 139 1056 151 1044 q 128 1086 128 1068 q 142 1124 128 1103 q 172 1164 155 1144 q 208 1198 189 1184 q 300 1229 250 1229 q 393 1188 353 1229 l 416 1163 q 426 1153 422 1158 q 437 1147 431 1147 q 463 1163 444 1147 l 505 1198 z "},"":{"ha":460,"x_min":22,"x_max":469,"o":"m 149 655 q 165 707 149 688 q 230 736 195 736 q 280 719 264 736 q 310 655 310 688 l 310 66 q 293 16 310 33 q 238 -14 263 -14 q 198 -7 213 -14 q 172 9 183 -1 q 149 66 149 33 l 149 655 m 398 1013 q 429 1025 412 1025 q 457 1013 446 1025 q 469 983 469 1000 q 455 945 469 965 q 424 905 441 924 q 389 871 408 885 q 302 840 347 840 q 230 859 258 840 q 189 895 202 879 l 170 916 q 159 921 166 921 q 134 905 153 921 l 92 870 q 61 859 79 859 q 33 871 44 859 q 22 901 22 883 q 35 939 22 918 q 65 979 49 959 q 101 1013 82 999 q 193 1044 143 1044 q 287 1003 247 1044 l 310 978 q 320 967 315 972 q 330 962 324 962 q 356 978 338 962 l 398 1013 z "},"":{"ha":580,"x_min":20,"x_max":542,"o":"m 181 680 q 132 607 181 627 q 100 601 117 601 q 69 607 83 601 q 43 624 54 613 q 20 680 20 647 l 20 721 q 80 863 20 804 q 221 922 140 922 l 369 922 q 419 905 402 922 q 449 840 449 875 l 449 201 q 391 59 449 117 q 249 0 332 0 l 170 0 q 127 18 144 0 q 109 61 109 35 q 127 104 109 86 q 170 123 144 123 l 209 123 q 260 140 242 123 q 289 202 289 168 l 289 800 l 258 800 q 209 782 226 800 q 181 719 181 752 l 181 680 m 519 1164 q 526 1157 519 1164 q 537 1140 532 1151 q 542 1116 542 1128 q 537 1092 542 1103 q 524 1073 532 1081 q 482 1055 507 1055 l 209 1055 q 172 1067 185 1055 q 149 1109 149 1090 q 154 1140 149 1128 q 167 1160 159 1151 q 209 1177 184 1177 l 482 1177 q 519 1164 506 1177 z "},"":{"ha":460,"x_min":26,"x_max":418,"o":"m 149 655 q 165 707 149 688 q 230 736 195 736 q 280 719 264 736 q 310 655 310 688 l 310 66 q 293 16 310 33 q 238 -14 263 -14 q 198 -7 213 -14 q 172 9 183 -1 q 149 66 149 33 l 149 655 m 396 986 q 402 979 396 986 q 414 961 409 972 q 418 938 418 950 q 414 914 418 925 q 401 894 409 903 q 359 876 384 876 l 85 876 q 48 890 62 876 q 26 931 26 912 q 31 961 26 950 q 43 981 35 972 q 85 999 60 999 l 359 999 q 396 986 382 999 z "},"":{"ha":580,"x_min":20,"x_max":537,"o":"m 181 680 q 132 607 181 627 q 100 601 117 601 q 69 607 83 601 q 43 624 54 613 q 20 680 20 647 l 20 721 q 80 863 20 804 q 221 922 140 922 l 369 922 q 419 905 402 922 q 449 840 449 875 l 449 201 q 391 59 449 117 q 249 0 332 0 l 170 0 q 127 18 144 0 q 109 61 109 35 q 127 104 109 86 q 170 123 144 123 l 209 123 q 260 140 242 123 q 289 202 289 168 l 289 800 l 258 800 q 209 782 226 800 q 181 719 181 752 l 181 680 m 347 1143 q 440 1199 416 1143 q 447 1232 447 1214 q 460 1262 447 1250 q 491 1274 474 1274 q 523 1263 508 1274 q 537 1217 537 1252 q 525 1148 537 1181 q 495 1091 513 1114 q 454 1055 477 1068 q 410 1034 431 1041 q 347 1021 376 1021 q 239 1055 295 1021 q 168 1147 191 1084 q 156 1217 156 1181 q 171 1263 156 1252 q 202 1274 185 1274 q 233 1262 219 1274 q 246 1232 246 1250 q 253 1199 246 1214 q 273 1171 260 1183 q 347 1143 301 1143 z "},"":{"ha":460,"x_min":39,"x_max":420,"o":"m 149 655 q 165 707 149 688 q 230 736 195 736 q 280 719 264 736 q 310 655 310 688 l 310 66 q 293 16 310 33 q 238 -14 263 -14 q 198 -7 213 -14 q 172 9 183 -1 q 149 66 149 33 l 149 655 m 230 963 q 323 1019 299 963 q 330 1052 330 1034 q 344 1082 330 1069 q 374 1094 357 1094 q 406 1083 391 1094 q 420 1036 420 1072 q 409 967 420 1001 q 378 911 397 934 q 337 874 360 888 q 294 853 315 861 q 230 841 259 841 q 123 874 178 841 q 51 967 74 903 q 39 1036 39 1001 q 54 1083 39 1072 q 85 1094 68 1094 q 116 1082 102 1094 q 130 1052 130 1069 q 136 1018 130 1034 q 155 991 143 1003 q 230 963 184 963 z "},"":{"ha":548,"x_min":20,"x_max":449,"o":"m 290 -39 l 252 -83 q 218 -148 218 -124 q 268 -197 218 -197 l 317 -197 q 352 -211 337 -197 q 366 -247 366 -226 q 352 -282 366 -267 q 317 -297 338 -297 l 221 -297 q 108 -267 144 -297 q 72 -186 72 -237 q 100 -111 72 -148 q 151 -50 127 -74 l 200 0 l 170 0 q 127 18 144 0 q 109 61 109 35 q 127 104 109 86 q 170 123 144 123 l 209 123 q 260 140 242 123 q 289 202 289 168 l 289 800 l 258 800 q 209 782 226 800 q 181 719 181 752 l 181 680 q 132 607 181 627 q 100 601 117 601 q 69 607 83 601 q 43 624 54 613 q 20 680 20 647 l 20 721 q 80 863 20 804 q 221 922 140 922 l 369 922 q 419 905 402 922 q 449 840 449 875 l 449 201 q 385 53 449 113 q 340 22 365 35 q 290 -39 313 -12 z "},"":{"ha":460,"x_min":26,"x_max":321,"o":"m 168 13 q 149 66 149 35 l 149 655 q 165 707 149 688 q 230 736 195 736 q 280 719 264 736 q 310 655 310 688 l 310 66 q 282 5 310 31 l 239 -46 q 206 -84 219 -68 q 173 -149 173 -124 q 222 -197 173 -197 l 272 -197 q 306 -211 292 -197 q 321 -247 321 -226 q 307 -282 321 -267 q 272 -297 292 -297 l 176 -297 q 63 -267 99 -297 q 26 -186 26 -237 q 115 -41 26 -129 l 168 13 m 230 1043 q 294 1016 267 1043 q 321 961 321 989 q 314 917 321 933 q 294 888 307 901 q 230 861 267 861 q 165 888 193 861 q 138 943 138 916 q 165 1016 138 989 q 230 1043 193 1043 z "},"":{"ha":580,"x_min":20,"x_max":449,"o":"m 181 680 q 132 607 181 627 q 100 601 117 601 q 69 607 83 601 q 43 624 54 613 q 20 680 20 647 l 20 721 q 80 863 20 804 q 221 922 140 922 l 369 922 q 419 905 402 922 q 449 840 449 875 l 449 201 q 391 59 449 117 q 249 0 332 0 l 170 0 q 127 18 144 0 q 109 61 109 35 q 127 104 109 86 q 170 123 144 123 l 209 123 q 260 140 242 123 q 289 202 289 168 l 289 800 l 258 800 q 209 782 226 800 q 181 719 181 752 l 181 680 m 347 1206 q 411 1179 384 1206 q 438 1124 438 1152 q 431 1080 438 1096 q 411 1051 423 1063 q 347 1024 384 1024 q 282 1051 309 1024 q 255 1105 255 1078 q 282 1179 255 1152 q 347 1206 309 1206 z "},"":{"ha":460,"x_min":149,"x_max":310,"o":"m 149 655 q 165 707 149 688 q 230 736 195 736 q 280 719 264 736 q 310 655 310 688 l 310 66 q 293 16 310 33 q 238 -14 263 -14 q 198 -7 213 -14 q 172 9 183 -1 q 149 66 149 33 l 149 655 z "},"":{"ha":694,"x_min":106,"x_max":587,"o":"m 443 893 q 451 901 443 893 q 474 916 460 909 q 506 922 489 922 q 537 916 522 922 q 563 899 552 909 q 587 843 587 876 l 587 201 q 528 59 587 117 q 385 0 467 0 l 187 0 q 143 18 161 0 q 125 61 125 35 q 143 105 125 87 q 187 123 161 123 l 345 123 q 396 140 379 123 q 425 202 425 169 l 425 295 q 418 312 425 308 q 404 317 411 317 q 392 311 397 317 l 380 300 q 275 254 334 254 q 154 313 203 254 q 106 454 106 371 l 106 843 q 155 916 106 895 q 185 922 169 922 q 217 916 202 922 q 243 899 232 909 q 267 843 267 876 l 267 456 q 283 406 267 423 q 337 376 312 376 q 376 381 361 376 q 401 395 390 386 q 425 448 425 416 l 425 843 q 443 893 425 876 z "},"":{"ha":783,"x_min":139,"x_max":641,"o":"m 486 707 q 495 715 486 707 q 518 730 503 724 q 549 736 532 736 q 581 730 566 736 q 606 713 595 724 q 630 657 630 690 l 630 -121 q 571 -262 630 -204 q 429 -321 511 -321 l 309 -321 q 265 -304 283 -321 q 247 -260 247 -286 q 265 -217 247 -235 q 309 -199 283 -199 l 389 -199 q 439 -182 422 -199 q 469 -119 469 -153 l 469 28 q 461 45 469 41 q 448 50 454 50 q 435 43 441 50 l 424 33 q 318 -14 378 -14 q 197 46 245 -14 q 149 187 149 105 l 149 657 q 197 730 149 709 q 228 736 212 736 q 260 730 245 736 q 286 713 275 724 q 309 657 309 690 l 309 189 q 326 138 309 156 q 380 109 355 109 q 419 114 405 109 q 445 128 433 119 q 469 181 469 149 l 469 657 q 486 707 469 690 m 231 1043 q 294 1016 268 1043 q 322 961 322 989 q 315 917 322 933 q 294 888 307 901 q 231 861 268 861 q 167 888 193 861 q 139 943 139 916 q 166 1016 139 989 q 231 1043 193 1043 m 485 888 q 479 894 485 888 q 466 917 473 901 q 458 952 458 933 q 466 987 458 970 q 486 1016 473 1004 q 540 1043 512 1043 q 585 1036 568 1043 q 614 1016 602 1029 q 641 961 641 989 q 634 917 641 933 q 614 888 627 901 q 559 861 587 861 q 514 868 531 861 q 485 888 498 876 z "},"":{"ha":580,"x_min":33,"x_max":512,"o":"m 296 800 l 275 800 q 224 783 241 800 q 194 719 194 753 l 194 680 q 144 607 194 627 q 113 601 130 601 q 82 607 96 601 q 57 624 67 613 q 33 680 33 647 l 33 721 q 92 863 33 804 q 234 922 153 922 l 376 922 q 426 905 409 922 q 456 840 456 875 l 456 -121 q 397 -262 456 -203 q 254 -321 338 -321 l 149 -321 q 92 -285 109 -321 q 87 -260 87 -273 q 100 -222 87 -236 q 149 -199 123 -199 l 215 -199 q 266 -182 249 -199 q 296 -119 296 -152 l 296 800 m 503 1084 q 512 1053 512 1068 q 500 1025 512 1038 q 475 1013 489 1013 q 435 1026 448 1013 l 346 1117 l 257 1026 q 223 1013 243 1013 q 191 1025 203 1013 q 180 1053 180 1038 q 189 1084 180 1068 l 270 1229 q 347 1280 298 1280 q 422 1229 391 1280 l 503 1084 z "},"":{"ha":458,"x_min":-34,"x_max":398,"o":"m 146 655 q 163 707 146 689 q 227 736 192 736 q 277 719 261 736 q 307 655 307 689 l 307 -121 q 248 -262 307 -205 q 106 -321 188 -321 l 27 -321 q -28 -285 -12 -321 q -34 -260 -34 -273 q -20 -222 -34 -236 q 27 -199 1 -199 l 66 -199 q 117 -182 100 -199 q 146 -119 146 -153 l 146 655 m 389 872 q 398 841 398 856 q 387 813 398 826 q 361 800 375 800 q 321 814 334 800 l 232 905 l 143 814 q 109 800 130 800 q 77 813 89 800 q 66 841 66 826 q 75 872 66 856 l 156 1017 q 233 1068 184 1068 q 308 1017 277 1068 l 389 872 z "},"":{"ha":922,"x_min":30,"x_max":922,"o":"m 680 430 q 781 281 781 391 l 781 261 q 852 12 781 103 q 892 -38 873 -17 q 922 -100 922 -71 q 882 -162 922 -144 q 857 -168 869 -168 q 770 -125 816 -168 q 693 -29 724 -83 q 619 288 619 100 q 602 339 619 321 q 540 369 574 369 l 460 369 l 460 66 q 444 16 460 34 q 389 -13 414 -13 q 349 -6 363 -13 q 323 11 334 0 q 299 66 299 33 l 299 800 l 264 800 q 218 781 234 800 q 191 719 191 751 l 191 680 q 141 607 191 627 q 110 601 126 601 q 78 607 93 601 q 53 624 64 613 q 30 680 30 647 l 30 721 q 89 863 30 804 q 231 922 148 922 l 380 922 q 431 905 414 922 q 460 840 460 873 l 460 491 l 539 491 q 589 509 572 491 q 618 572 618 538 l 618 840 q 636 892 618 873 q 700 922 665 922 q 750 905 734 922 q 780 840 780 873 l 780 601 q 721 457 780 505 q 680 430 703 442 m 505 -269 q 507 -264 505 -269 q 513 -252 509 -260 q 517 -227 517 -244 q 502 -197 517 -210 q 474 -146 474 -172 q 480 -108 474 -121 q 497 -84 486 -94 q 548 -63 521 -63 q 590 -71 574 -63 q 616 -92 606 -79 q 636 -164 636 -119 q 587 -313 636 -256 q 538 -345 561 -345 q 503 -332 515 -345 q 492 -307 492 -320 q 496 -285 492 -293 q 505 -269 500 -277 z "},"":{"ha":694,"x_min":106,"x_max":596,"o":"m 466 408 q 587 229 587 359 l 587 66 q 570 16 587 33 q 475 -7 524 -28 q 425 66 425 14 l 425 227 q 408 277 425 260 q 346 307 378 307 l 267 307 l 267 66 q 250 16 267 33 q 195 -14 220 -14 q 155 -7 170 -14 q 130 9 140 -1 q 106 66 106 33 l 106 962 q 123 1013 106 995 q 187 1043 152 1043 q 237 1025 221 1043 q 267 962 267 995 l 267 429 l 316 429 l 444 692 q 473 726 453 714 q 515 738 494 738 q 555 728 536 738 q 585 699 574 718 q 596 657 596 679 q 587 619 596 636 l 466 408 m 311 -281 q 314 -277 311 -281 q 320 -264 316 -273 q 324 -239 324 -256 q 309 -209 324 -222 q 281 -159 281 -184 q 287 -120 281 -134 q 304 -96 293 -106 q 354 -75 328 -75 q 397 -83 381 -75 q 423 -104 413 -91 q 443 -176 443 -131 q 394 -326 443 -269 q 345 -357 368 -357 q 310 -345 321 -357 q 298 -319 298 -332 q 302 -297 298 -305 q 311 -281 307 -289 z "},"":{"ha":700,"x_min":106,"x_max":596,"o":"m 471 399 q 587 222 587 350 l 587 66 q 570 17 587 33 q 475 -7 524 -28 q 425 66 425 15 l 425 220 q 408 271 425 254 q 346 300 378 300 l 267 300 l 267 66 q 250 16 267 34 q 195 -13 220 -13 q 155 -6 170 -13 q 130 11 140 0 q 106 66 106 33 l 106 655 q 123 707 106 688 q 187 736 152 736 q 237 719 221 736 q 267 655 267 688 l 267 422 l 322 422 l 444 692 q 517 737 466 737 q 554 727 535 737 q 585 698 573 718 q 596 657 596 678 q 587 619 596 635 l 471 399 z "},"":{"ha":695,"x_min":7,"x_max":667,"o":"m 244 142 q 264 122 244 122 l 433 122 q 478 140 463 122 q 506 195 506 170 q 512 233 506 219 q 529 258 518 248 q 578 281 553 281 q 618 275 604 281 q 644 258 633 269 q 667 197 667 235 q 651 123 667 159 q 608 59 635 86 q 466 0 549 0 l 66 0 q 30 14 43 0 q 7 61 7 36 q 24 105 7 87 q 62 123 41 123 q 98 129 83 123 q 123 144 113 134 q 146 199 146 166 l 146 721 q 206 863 146 804 q 347 922 266 922 l 446 922 q 503 884 486 922 q 507 854 507 873 q 490 817 507 835 q 446 800 472 800 l 388 800 q 336 783 354 800 q 307 719 307 753 l 307 273 q 261 167 307 213 q 244 142 244 152 m 342 1234 q 417 1279 374 1279 q 463 1261 446 1279 q 491 1208 491 1234 q 448 1127 491 1156 l 299 1023 q 270 1012 283 1012 q 235 1024 247 1012 q 224 1054 224 1036 q 235 1086 224 1071 l 342 1234 z "},"":{"ha":460,"x_min":123,"x_max":445,"o":"m 296 202 q 313 151 296 168 q 376 123 343 123 l 383 123 q 422 109 408 123 q 445 67 445 86 q 440 37 445 48 q 427 18 435 26 q 383 0 408 0 l 336 0 q 195 59 254 0 q 136 201 136 118 l 136 882 q 153 932 136 916 q 216 962 182 962 q 267 945 250 962 q 296 882 296 916 l 296 202 m 241 1257 q 317 1302 274 1302 q 362 1284 345 1302 q 391 1231 391 1257 q 348 1150 391 1179 l 199 1046 q 170 1035 182 1035 q 135 1047 146 1035 q 123 1077 123 1059 q 135 1109 123 1094 l 241 1257 z "},"":{"ha":695,"x_min":7,"x_max":667,"o":"m 244 142 q 264 122 244 122 l 433 122 q 478 140 463 122 q 506 195 506 170 q 512 233 506 219 q 529 258 518 248 q 578 281 553 281 q 618 275 604 281 q 644 258 633 269 q 667 197 667 235 q 651 123 667 159 q 608 59 635 86 q 466 0 549 0 l 66 0 q 30 14 43 0 q 7 61 7 36 q 24 105 7 87 q 62 123 41 123 q 98 129 83 123 q 123 144 113 134 q 146 199 146 166 l 146 721 q 206 863 146 804 q 347 922 266 922 l 446 922 q 503 884 486 922 q 507 854 507 873 q 490 817 507 835 q 446 800 472 800 l 388 800 q 336 783 354 800 q 307 719 307 753 l 307 273 q 261 167 307 213 q 244 142 244 152 m 267 -269 q 270 -264 267 -269 q 276 -252 272 -260 q 280 -227 280 -244 q 264 -197 280 -210 q 237 -146 237 -172 q 243 -108 237 -121 q 260 -84 249 -94 q 310 -63 283 -63 q 353 -71 337 -63 q 379 -92 369 -79 q 399 -164 399 -119 q 350 -313 399 -256 q 300 -345 323 -345 q 266 -332 277 -345 q 254 -307 254 -320 q 258 -285 254 -293 q 267 -269 262 -277 z "},"":{"ha":460,"x_min":136,"x_max":445,"o":"m 296 202 q 313 151 296 168 q 376 123 343 123 l 383 123 q 422 109 408 123 q 445 67 445 86 q 440 37 445 48 q 427 18 435 26 q 383 0 408 0 l 336 0 q 195 59 254 0 q 136 201 136 118 l 136 963 q 153 1014 136 997 q 216 1043 182 1043 q 267 1026 250 1043 q 296 963 296 997 l 296 202 m 182 -269 q 185 -264 182 -269 q 191 -252 187 -260 q 195 -227 195 -244 q 180 -197 195 -210 q 152 -146 152 -172 q 158 -108 152 -121 q 175 -84 164 -94 q 225 -63 199 -63 q 268 -71 252 -63 q 294 -92 284 -79 q 314 -164 314 -119 q 265 -313 314 -256 q 216 -345 239 -345 q 181 -332 193 -345 q 170 -307 170 -320 q 174 -285 170 -293 q 182 -269 178 -277 z "},"":{"ha":695,"x_min":7,"x_max":743,"o":"m 244 142 q 264 122 244 122 l 433 122 q 478 140 463 122 q 506 195 506 170 q 512 233 506 219 q 529 258 518 248 q 578 281 553 281 q 618 275 604 281 q 644 258 633 269 q 667 197 667 235 q 651 123 667 159 q 608 59 635 86 q 466 0 549 0 l 66 0 q 30 14 43 0 q 7 61 7 36 q 24 105 7 87 q 62 123 41 123 q 98 129 83 123 q 123 144 113 134 q 146 199 146 166 l 146 721 q 206 863 146 804 q 347 922 266 922 l 412 922 q 469 884 452 922 q 473 854 473 873 q 456 817 473 835 q 412 800 438 800 l 388 800 q 336 783 354 800 q 307 719 307 753 l 307 273 q 261 167 307 213 q 244 142 244 152 m 651 935 q 743 806 743 935 q 723 688 743 736 q 683 619 703 640 q 639 598 663 598 q 603 612 616 598 q 590 641 590 625 q 594 666 590 656 q 604 684 598 675 q 616 726 616 707 q 609 759 616 745 q 591 785 601 772 q 566 841 566 817 q 571 881 566 865 q 588 909 577 897 q 651 935 611 935 z "},"":{"ha":460,"x_min":136,"x_max":546,"o":"m 296 202 q 313 151 296 168 q 376 123 343 123 l 383 123 q 422 109 408 123 q 445 67 445 86 q 440 37 445 48 q 427 18 435 26 q 383 0 408 0 l 336 0 q 195 59 254 0 q 136 201 136 118 l 136 963 q 153 1014 136 997 q 216 1043 182 1043 q 267 1026 250 1043 q 296 963 296 997 l 296 202 m 454 935 q 546 806 546 935 q 526 688 546 736 q 486 619 506 640 q 442 598 465 598 q 406 612 418 598 q 393 641 393 625 q 397 666 393 656 q 406 684 401 675 q 419 726 419 707 q 411 759 419 745 q 393 785 404 772 q 368 841 368 817 q 374 881 368 865 q 391 909 380 897 q 454 935 414 935 z "},"":{"ha":695,"x_min":7,"x_max":686,"o":"m 244 142 q 264 122 244 122 l 433 122 q 478 140 463 122 q 506 195 506 170 q 512 233 506 219 q 529 258 518 248 q 578 281 553 281 q 618 275 604 281 q 644 258 633 269 q 667 197 667 235 q 651 123 667 159 q 608 59 635 86 q 466 0 549 0 l 66 0 q 30 14 43 0 q 7 61 7 36 q 24 105 7 87 q 62 123 41 123 q 98 129 83 123 q 123 144 113 134 q 146 199 146 166 l 146 721 q 206 863 146 804 q 347 922 266 922 l 446 922 q 503 884 486 922 q 507 854 507 873 q 490 817 507 835 q 446 800 472 800 l 388 800 q 336 783 354 800 q 307 719 307 753 l 307 273 q 261 167 307 213 q 244 142 244 152 m 595 625 q 659 598 632 625 q 686 543 686 571 q 679 499 686 515 q 659 471 671 483 q 595 444 632 444 q 530 471 557 444 q 503 525 503 498 q 530 598 503 571 q 595 625 557 625 z "},"":{"ha":601,"x_min":136,"x_max":581,"o":"m 296 202 q 313 151 296 168 q 376 123 343 123 l 383 123 q 422 109 408 123 q 445 67 445 86 q 440 37 445 48 q 427 18 435 26 q 383 0 408 0 l 336 0 q 195 59 254 0 q 136 201 136 118 l 136 963 q 153 1014 136 997 q 216 1043 182 1043 q 267 1026 250 1043 q 296 963 296 997 l 296 202 m 489 510 q 553 483 526 510 q 581 428 581 456 q 573 384 581 400 q 553 355 566 368 q 489 328 526 328 q 425 355 452 328 q 397 410 397 382 q 425 483 397 456 q 489 510 452 510 z "},"":{"ha":695,"x_min":-26,"x_max":667,"o":"m 244 142 q 264 122 244 122 l 433 122 q 478 140 463 122 q 506 195 506 170 q 512 233 506 219 q 529 258 518 248 q 578 281 553 281 q 618 275 604 281 q 644 258 633 269 q 667 197 667 235 q 651 123 667 159 q 608 59 635 86 q 466 0 549 0 l 66 0 q 30 14 43 0 q 7 61 7 36 q 24 105 7 87 q 62 123 41 123 q 98 129 83 123 q 123 144 113 134 q 146 199 146 166 l 146 432 l 31 390 q -1 390 14 384 q -21 412 -16 397 q -19 441 -26 427 q 3 460 -12 454 l 146 512 l 146 721 q 206 863 146 804 q 347 922 266 922 l 446 922 q 503 884 486 922 q 507 854 507 873 q 490 817 507 835 q 446 800 472 800 l 388 800 q 336 783 354 800 q 307 719 307 753 l 307 570 l 523 649 q 552 648 538 654 q 572 627 566 642 q 570 598 577 611 q 549 579 564 585 l 307 490 l 307 273 q 261 167 307 213 q 244 142 244 152 z "},"":{"ha":460,"x_min":14,"x_max":445,"o":"m 296 729 l 385 785 q 410 791 395 791 q 435 779 426 791 q 444 755 444 766 q 425 722 444 732 l 296 640 l 296 202 q 313 151 296 168 q 376 123 343 123 l 383 123 q 422 109 408 123 q 445 67 445 86 q 440 37 445 48 q 427 18 435 26 q 383 0 408 0 l 336 0 q 195 59 254 0 q 136 201 136 118 l 136 538 l 75 500 q 54 494 64 494 q 22 507 30 494 q 14 536 14 520 q 33 564 14 551 l 136 628 l 136 963 q 153 1014 136 997 q 216 1043 182 1043 q 267 1026 250 1043 q 296 963 296 997 l 296 729 z "},"":{"ha":809,"x_min":-31,"x_max":709,"o":"m 130 680 q 81 607 130 627 q 49 601 66 601 q 18 607 33 601 q -7 624 3 613 q -31 680 -31 647 l -31 721 q 28 863 -31 804 q 170 922 89 922 l 306 922 q 370 888 346 922 q 390 872 380 872 q 404 878 399 872 l 416 889 q 530 935 466 935 q 656 876 604 935 q 708 734 708 818 l 709 66 q 661 -7 709 15 q 629 -13 646 -13 q 597 -6 612 -13 q 572 11 583 0 q 548 66 548 33 l 547 732 q 530 783 547 766 q 468 813 500 813 q 418 798 435 813 q 386 737 386 769 l 386 201 q 328 59 386 117 q 186 0 269 0 l 127 0 q 84 18 102 0 q 66 61 66 35 q 84 104 66 86 q 127 123 102 123 l 146 123 q 197 140 179 123 q 226 202 226 168 l 226 800 l 208 800 q 159 781 175 798 q 130 719 130 751 l 130 680 m 494 1234 q 569 1279 526 1279 q 614 1261 597 1279 q 643 1208 643 1234 q 600 1127 643 1156 l 451 1023 q 422 1012 435 1012 q 387 1024 399 1012 q 376 1054 376 1036 q 387 1086 376 1071 l 494 1234 z "},"":{"ha":694,"x_min":106,"x_max":588,"o":"m 249 16 q 241 8 249 16 q 217 -7 232 -1 q 186 -14 203 -14 q 155 -7 170 -14 q 130 9 140 -1 q 106 66 106 33 l 106 655 q 123 707 106 688 q 178 736 152 736 q 217 731 204 736 q 238 718 229 725 q 256 695 251 707 q 265 679 261 684 q 278 673 269 673 q 292 679 286 673 q 309 697 297 685 q 398 736 350 736 q 479 721 447 736 q 536 677 512 705 q 588 536 588 618 l 588 66 q 540 -7 588 14 q 508 -14 525 -14 q 477 -7 492 -14 q 451 9 462 -1 q 427 66 427 33 l 427 534 q 411 585 427 567 q 349 614 382 614 q 273 572 294 614 q 267 542 267 559 l 267 66 q 249 16 267 33 m 371 1063 q 446 1107 404 1107 q 492 1090 475 1107 q 520 1036 520 1062 q 477 956 520 985 l 328 851 q 299 840 312 840 q 264 852 276 840 q 253 882 253 865 q 264 915 253 899 l 371 1063 z "},"":{"ha":814,"x_min":-31,"x_max":709,"o":"m 130 680 q 81 607 130 627 q 49 601 66 601 q 18 607 33 601 q -7 624 3 613 q -31 680 -31 647 l -31 721 q 28 863 -31 804 q 170 922 89 922 l 306 922 q 370 888 346 922 q 390 872 380 872 q 404 878 399 872 l 416 889 q 530 935 466 935 q 656 876 604 935 q 708 734 708 818 l 709 66 q 661 -7 709 15 q 629 -13 646 -13 q 597 -6 612 -13 q 572 11 583 0 q 548 66 548 33 l 547 732 q 530 783 547 766 q 468 813 500 813 q 418 798 435 813 q 386 737 386 769 l 386 201 q 328 59 386 117 q 186 0 269 0 l 127 0 q 84 18 102 0 q 66 61 66 35 q 84 104 66 86 q 127 123 102 123 l 146 123 q 197 140 179 123 q 226 202 226 168 l 226 800 l 208 800 q 159 781 175 798 q 130 719 130 751 l 130 680 m 420 -269 q 422 -264 420 -269 q 429 -252 425 -260 q 433 -227 433 -244 q 417 -197 433 -210 q 389 -146 389 -172 q 395 -108 389 -121 q 412 -84 401 -94 q 463 -63 436 -63 q 506 -71 490 -63 q 532 -92 522 -79 q 551 -164 551 -119 q 503 -313 551 -256 q 453 -345 476 -345 q 418 -332 430 -345 q 407 -307 407 -320 q 411 -285 407 -293 q 420 -269 415 -277 z "},"":{"ha":694,"x_min":106,"x_max":588,"o":"m 249 16 q 241 8 249 16 q 217 -7 232 -1 q 186 -14 203 -14 q 155 -7 170 -14 q 130 9 140 -1 q 106 66 106 33 l 106 655 q 123 707 106 688 q 178 736 152 736 q 217 731 204 736 q 238 718 229 725 q 256 695 251 707 q 265 679 261 684 q 278 673 269 673 q 292 679 286 673 q 309 697 297 685 q 398 736 350 736 q 479 721 447 736 q 536 677 512 705 q 588 536 588 618 l 588 66 q 540 -7 588 14 q 508 -14 525 -14 q 477 -7 492 -14 q 451 9 462 -1 q 427 66 427 33 l 427 534 q 411 585 427 567 q 349 614 382 614 q 273 572 294 614 q 267 542 267 559 l 267 66 q 249 16 267 33 m 304 -269 q 307 -264 304 -269 q 313 -252 309 -260 q 317 -227 317 -244 q 302 -197 317 -210 q 274 -146 274 -172 q 280 -108 274 -121 q 297 -84 286 -94 q 348 -63 321 -63 q 390 -71 374 -63 q 416 -92 406 -79 q 436 -164 436 -119 q 387 -313 436 -256 q 338 -345 361 -345 q 303 -332 315 -345 q 292 -307 292 -320 q 296 -285 292 -293 q 304 -269 300 -277 z "},"":{"ha":814,"x_min":-31,"x_max":709,"o":"m 130 680 q 81 607 130 627 q 49 601 66 601 q 18 607 33 601 q -7 624 3 613 q -31 680 -31 647 l -31 721 q 28 863 -31 804 q 170 922 89 922 l 306 922 q 370 888 346 922 q 390 872 380 872 q 404 878 399 872 l 416 889 q 530 935 466 935 q 656 876 604 935 q 708 734 708 818 l 709 66 q 661 -7 709 15 q 629 -13 646 -13 q 597 -6 612 -13 q 572 11 583 0 q 548 66 548 33 l 547 732 q 530 783 547 766 q 468 813 500 813 q 418 798 435 813 q 386 737 386 769 l 386 201 q 328 59 386 117 q 186 0 269 0 l 127 0 q 84 18 102 0 q 66 61 66 35 q 84 104 66 86 q 127 123 102 123 l 146 123 q 197 140 179 123 q 226 202 226 168 l 226 800 l 208 800 q 159 781 175 798 q 130 719 130 751 l 130 680 m 312 1208 q 303 1240 303 1225 q 315 1267 303 1255 q 340 1280 326 1280 q 380 1267 367 1280 l 469 1176 l 558 1267 q 592 1280 572 1280 q 624 1267 612 1280 q 635 1240 635 1255 q 627 1208 635 1225 l 545 1064 q 469 1013 517 1013 q 393 1064 425 1013 l 312 1208 z "},"":{"ha":694,"x_min":106,"x_max":588,"o":"m 249 16 q 241 8 249 16 q 217 -7 232 -1 q 186 -14 203 -14 q 155 -7 170 -14 q 130 9 140 -1 q 106 66 106 33 l 106 655 q 123 707 106 688 q 178 736 152 736 q 217 731 204 736 q 238 718 229 725 q 256 695 251 707 q 265 679 261 684 q 278 673 269 673 q 292 679 286 673 q 309 697 297 685 q 398 736 350 736 q 479 721 447 736 q 536 677 512 705 q 588 536 588 618 l 588 66 q 540 -7 588 14 q 508 -14 525 -14 q 477 -7 492 -14 q 451 9 462 -1 q 427 66 427 33 l 427 534 q 411 585 427 567 q 349 614 382 614 q 273 572 294 614 q 267 542 267 559 l 267 66 q 249 16 267 33 m 190 1037 q 181 1068 181 1053 q 193 1096 181 1083 q 218 1109 204 1109 q 258 1095 245 1109 l 347 1004 l 436 1095 q 470 1109 450 1109 q 502 1096 490 1109 q 513 1068 513 1083 q 505 1037 513 1053 l 423 892 q 347 841 395 841 q 271 892 302 841 l 190 1037 z "},"":{"ha":814,"x_min":-43,"x_max":709,"o":"m 386 66 q 338 -7 386 15 q 307 -13 323 -13 q 275 -6 290 -13 q 250 11 260 0 q 226 66 226 33 l 226 800 l 195 800 q 146 781 163 798 q 118 719 118 751 l 118 680 q 68 607 118 627 q 37 601 54 601 q 6 607 20 601 q -19 624 -9 613 q -43 680 -43 647 l -43 721 q 16 863 -43 804 q 158 922 77 922 l 306 922 q 370 888 346 922 q 390 872 380 872 q 404 878 399 872 l 416 889 q 530 935 466 935 q 656 876 604 935 q 708 734 708 818 l 709 -121 q 651 -262 709 -203 q 509 -321 593 -321 l 404 -321 q 347 -285 364 -321 q 342 -260 342 -273 q 355 -222 342 -236 q 404 -199 378 -199 l 470 -199 q 520 -182 504 -199 q 548 -119 548 -153 l 548 732 q 530 783 548 766 q 468 813 500 813 q 418 798 435 813 q 386 737 386 769 l 386 66 z "},"":{"ha":694,"x_min":106,"x_max":588,"o":"m 427 534 l 427 534 q 411 585 427 567 q 349 614 382 614 q 273 572 294 614 q 267 542 267 559 l 267 66 q 250 16 267 33 q 155 -7 204 -28 q 113 35 125 5 q 106 66 106 50 l 106 655 q 123 707 106 688 q 178 736 152 736 q 217 731 204 736 q 238 718 229 725 q 256 695 251 707 q 265 679 261 684 q 278 673 269 673 q 292 679 286 673 q 309 697 297 685 q 398 736 350 736 q 479 721 447 736 q 536 677 512 705 q 588 536 588 618 l 587 -121 q 528 -262 587 -205 q 386 -321 468 -321 l 307 -321 q 251 -285 268 -321 q 246 -260 246 -273 q 259 -222 246 -236 q 307 -199 281 -199 l 347 -199 q 397 -182 380 -199 q 427 -119 427 -153 l 427 534 z "},"":{"ha":693,"x_min":99,"x_max":587,"o":"m 272 789 q 266 784 272 789 q 253 764 260 779 q 246 730 246 749 q 255 697 246 711 q 275 669 264 682 q 303 611 303 634 q 297 574 303 589 q 280 549 291 559 q 225 526 256 526 q 172 542 195 526 q 133 585 149 557 q 99 735 99 642 q 164 880 99 827 q 347 935 230 935 q 525 880 460 935 q 587 736 587 827 l 587 188 q 524 41 587 95 q 347 -13 460 -13 q 168 41 233 -13 q 106 186 106 93 l 106 407 q 123 457 106 440 q 178 487 153 487 q 218 481 203 487 q 243 464 233 475 q 267 407 267 441 l 267 182 q 290 129 267 147 q 347 110 313 110 q 404 129 381 110 q 427 182 427 147 l 427 732 q 403 790 427 766 q 350 813 380 813 q 302 807 319 813 q 272 789 284 800 m 519 1164 q 526 1157 519 1164 q 537 1140 532 1151 q 542 1116 542 1128 q 537 1092 542 1103 q 524 1073 532 1081 q 482 1055 507 1055 l 209 1055 q 172 1067 185 1055 q 149 1109 149 1090 q 154 1140 149 1128 q 167 1160 159 1151 q 209 1177 184 1177 l 482 1177 q 519 1164 506 1177 z "},"":{"ha":694,"x_min":106,"x_max":588,"o":"m 106 537 q 168 682 106 629 q 347 736 233 736 q 525 682 460 736 q 588 536 588 628 l 588 185 q 450 0 588 43 q 348 -14 405 -14 q 245 0 290 -14 q 170 41 201 14 q 106 187 106 94 l 106 537 m 427 534 q 410 585 427 568 q 347 614 380 614 q 296 597 313 614 q 267 534 267 568 l 267 181 q 290 128 267 146 q 347 109 313 109 q 404 128 381 109 q 427 181 427 146 l 427 534 m 513 986 q 520 979 513 986 q 531 961 526 972 q 536 938 536 950 q 531 914 536 925 q 518 894 526 903 q 476 876 501 876 l 203 876 q 165 890 179 876 q 143 931 143 912 q 148 961 143 950 q 161 981 153 972 q 203 999 178 999 l 476 999 q 513 986 500 999 z "},"":{"ha":693,"x_min":99,"x_max":587,"o":"m 272 789 q 266 784 272 789 q 253 764 260 779 q 246 730 246 749 q 255 697 246 711 q 275 669 264 682 q 303 611 303 634 q 297 574 303 589 q 280 549 291 559 q 225 526 256 526 q 172 542 195 526 q 133 585 149 557 q 99 735 99 642 q 164 880 99 827 q 347 935 230 935 q 525 880 460 935 q 587 736 587 827 l 587 188 q 524 41 587 95 q 347 -13 460 -13 q 168 41 233 -13 q 106 186 106 93 l 106 407 q 123 457 106 440 q 178 487 153 487 q 218 481 203 487 q 243 464 233 475 q 267 407 267 441 l 267 182 q 290 129 267 147 q 347 110 313 110 q 404 129 381 110 q 427 182 427 147 l 427 732 q 403 790 427 766 q 350 813 380 813 q 302 807 319 813 q 272 789 284 800 m 347 1143 q 440 1199 416 1143 q 447 1232 447 1214 q 460 1262 447 1250 q 491 1274 474 1274 q 523 1263 508 1274 q 537 1217 537 1252 q 525 1148 537 1181 q 495 1091 513 1114 q 454 1055 477 1068 q 410 1034 431 1041 q 347 1021 376 1021 q 239 1055 295 1021 q 168 1147 191 1084 q 156 1217 156 1181 q 171 1263 156 1252 q 202 1274 185 1274 q 233 1262 219 1274 q 246 1232 246 1250 q 253 1199 246 1214 q 273 1171 260 1183 q 347 1143 301 1143 z "},"":{"ha":694,"x_min":106,"x_max":588,"o":"m 106 537 q 168 682 106 629 q 347 736 233 736 q 525 682 460 736 q 588 536 588 628 l 588 185 q 450 0 588 43 q 348 -14 405 -14 q 245 0 290 -14 q 170 41 201 14 q 106 187 106 94 l 106 537 m 427 534 q 410 585 427 568 q 347 614 380 614 q 296 597 313 614 q 267 534 267 568 l 267 181 q 290 128 267 146 q 347 109 313 109 q 404 128 381 109 q 427 181 427 146 l 427 534 m 347 963 q 441 1019 416 963 q 448 1052 448 1034 q 461 1082 448 1069 q 492 1094 475 1094 q 523 1083 509 1094 q 538 1036 538 1072 q 526 967 538 1001 q 496 911 514 934 q 455 874 477 888 q 411 853 432 861 q 347 841 376 841 q 240 874 296 841 q 168 967 191 903 q 157 1036 157 1001 q 171 1083 157 1072 q 203 1094 186 1094 q 233 1082 220 1094 q 247 1052 247 1069 q 254 1018 247 1034 q 273 991 260 1003 q 347 963 302 963 z "},"":{"ha":693,"x_min":99,"x_max":686,"o":"m 272 789 q 266 784 272 789 q 253 764 260 779 q 246 730 246 749 q 255 697 246 711 q 275 669 264 682 q 303 611 303 634 q 297 574 303 589 q 280 549 291 559 q 225 526 256 526 q 172 542 195 526 q 133 585 149 557 q 99 735 99 642 q 164 880 99 827 q 347 935 230 935 q 525 880 460 935 q 587 736 587 827 l 587 188 q 524 41 587 95 q 347 -13 460 -13 q 168 41 233 -13 q 106 186 106 93 l 106 407 q 123 457 106 440 q 178 487 153 487 q 218 481 203 487 q 243 464 233 475 q 267 407 267 441 l 267 182 q 290 129 267 147 q 347 110 313 110 q 404 129 381 110 q 427 182 427 147 l 427 732 q 403 790 427 766 q 350 813 380 813 q 302 807 319 813 q 272 789 284 800 m 280 1234 q 351 1279 313 1279 q 399 1258 377 1279 q 420 1213 420 1236 q 373 1134 420 1166 l 244 1023 q 215 1012 228 1012 q 180 1024 192 1012 q 169 1054 169 1036 q 180 1086 169 1071 l 280 1234 m 545 1234 q 616 1279 578 1279 q 664 1258 642 1279 q 686 1213 686 1236 q 638 1134 686 1166 l 509 1023 q 481 1012 493 1012 q 446 1024 457 1012 q 434 1054 434 1036 q 446 1086 434 1071 l 545 1234 z "},"":{"ha":694,"x_min":106,"x_max":698,"o":"m 106 537 q 168 682 106 629 q 347 736 233 736 q 525 682 460 736 q 588 536 588 628 l 588 185 q 450 0 588 43 q 348 -14 405 -14 q 245 0 290 -14 q 170 41 201 14 q 106 187 106 94 l 106 537 m 427 534 q 410 585 427 568 q 347 614 380 614 q 296 597 313 614 q 267 534 267 568 l 267 181 q 290 128 267 146 q 347 109 313 109 q 404 128 381 109 q 427 181 427 146 l 427 534 m 280 1063 q 353 1111 311 1111 q 400 1093 380 1111 q 433 1039 433 1063 q 399 969 433 994 l 262 851 q 235 840 248 840 q 198 854 212 840 q 183 884 183 867 q 191 915 183 901 l 280 1063 m 545 1063 q 618 1111 575 1111 q 665 1093 644 1111 q 698 1039 698 1063 q 664 969 698 994 l 527 851 q 499 840 512 840 q 462 854 477 840 q 448 884 448 867 q 456 915 448 901 l 545 1063 z "}}}
